<svg xmlns="http://www.w3.org/2000/svg" xmlns:xlink="http://www.w3.org/1999/xlink" width="484" zoomAndPan="magnify" viewBox="0 0 363 105.749996" height="141" preserveAspectRatio="xMidYMid meet" version="1.0"><defs><clipPath id="048778c25f"><path d="M 22.371094 2.890625 L 100 2.890625 L 100 81 L 22.371094 81 Z M 22.371094 2.890625 " clip-rule="nonzero"/></clipPath><clipPath id="7a850f6f48"><path d="M 217 29 L 266 29 L 266 102.40625 L 217 102.40625 Z M 217 29 " clip-rule="nonzero"/></clipPath><clipPath id="880dff85ba"><path d="M 293 29 L 340.371094 29 L 340.371094 80 L 293 80 Z M 293 29 " clip-rule="nonzero"/></clipPath></defs><g clip-path="url(#048778c25f)"><path fill="#ffffff" d="M 62.636719 38.46875 L 62.636719 49.121094 L 88.246094 49.121094 C 87.566406 55.011719 85.523438 59.546875 82.351562 62.492188 C 78.726562 66.117188 72.835938 70.195312 62.636719 70.195312 C 47 70.195312 34.761719 57.503906 34.761719 41.867188 C 34.761719 26.230469 46.773438 13.542969 62.636719 13.542969 C 71.019531 13.542969 77.367188 16.941406 81.898438 21.246094 L 89.378906 13.769531 C 83.03125 7.648438 74.421875 2.890625 62.636719 2.890625 C 41.105469 2.890625 22.976562 20.339844 22.976562 41.867188 C 22.976562 63.398438 41.105469 80.847656 62.636719 80.847656 C 74.195312 80.847656 83.03125 76.996094 89.832031 69.96875 C 96.855469 62.945312 99.121094 52.972656 99.121094 45.042969 C 99.121094 42.550781 98.894531 40.28125 98.667969 38.46875 Z M 62.636719 38.46875 " fill-opacity="1" fill-rule="nonzero"/></g><path fill="#ffffff" d="M 130.847656 29.632812 C 117.027344 29.632812 105.46875 40.28125 105.46875 54.785156 C 105.46875 69.289062 116.800781 79.941406 130.847656 79.941406 C 144.898438 79.941406 156.230469 69.515625 156.230469 55.011719 C 156.230469 40.28125 144.898438 29.632812 130.847656 29.632812 Z M 130.847656 70.195312 C 123.144531 70.195312 116.570312 63.851562 116.570312 55.011719 C 116.570312 45.949219 123.144531 39.828125 130.847656 39.828125 C 138.554688 39.828125 145.125 45.949219 145.125 55.011719 C 145.125 63.851562 138.554688 70.195312 130.847656 70.195312 Z M 130.847656 70.195312 " fill-opacity="1" fill-rule="nonzero"/><g clip-path="url(#7a850f6f48)"><path fill="#ffffff" d="M 254.8125 35.296875 L 254.359375 35.296875 C 251.867188 32.351562 247.105469 29.632812 240.988281 29.632812 C 228.296875 29.632812 217.417969 40.507812 217.417969 54.785156 C 217.417969 68.835938 228.296875 79.941406 240.988281 79.941406 C 247.105469 79.941406 251.867188 77.222656 254.359375 74.277344 L 254.8125 74.277344 L 254.8125 77.902344 C 254.8125 87.417969 249.597656 92.632812 241.441406 92.632812 C 234.640625 92.632812 230.5625 87.875 228.75 83.566406 L 219.230469 87.648438 C 221.953125 94.21875 229.429688 102.605469 241.667969 102.605469 C 254.585938 102.605469 265.6875 94.898438 265.6875 76.316406 L 265.6875 30.992188 L 255.265625 30.992188 L 255.265625 35.296875 Z M 242.121094 70.195312 C 234.414062 70.195312 228.75 63.625 228.75 55.011719 C 228.75 46.175781 234.640625 39.828125 242.121094 39.828125 C 249.597656 39.828125 255.492188 46.402344 255.492188 55.238281 C 255.71875 63.851562 249.824219 70.195312 242.121094 70.195312 Z M 242.121094 70.195312 " fill-opacity="1" fill-rule="nonzero"/></g><path fill="#ffffff" d="M 187.277344 29.632812 C 173.453125 29.632812 161.898438 40.28125 161.898438 54.785156 C 161.898438 69.289062 173.226562 79.941406 187.277344 79.941406 C 201.328125 79.941406 212.660156 69.515625 212.660156 55.011719 C 212.660156 40.28125 201.328125 29.632812 187.277344 29.632812 Z M 187.277344 70.195312 C 179.574219 70.195312 173 63.851562 173 55.011719 C 173 45.949219 179.574219 39.828125 187.277344 39.828125 C 194.984375 39.828125 201.554688 45.949219 201.554688 55.011719 C 201.554688 63.851562 194.984375 70.195312 187.277344 70.195312 Z M 187.277344 70.195312 " fill-opacity="1" fill-rule="nonzero"/><path fill="#ffffff" d="M 274.074219 4.023438 L 284.953125 4.023438 L 284.953125 80.167969 L 274.074219 80.167969 Z M 274.074219 4.023438 " fill-opacity="1" fill-rule="nonzero"/><g clip-path="url(#880dff85ba)"><path fill="#ffffff" d="M 318.492188 70.195312 C 312.828125 70.195312 308.972656 67.703125 306.253906 62.492188 L 340.019531 48.667969 L 338.886719 45.722656 C 336.847656 40.054688 330.277344 29.632812 317.359375 29.632812 C 304.441406 29.632812 293.5625 39.828125 293.5625 54.785156 C 293.5625 68.835938 304.214844 79.941406 318.492188 79.941406 C 330.050781 79.941406 336.621094 72.917969 339.566406 68.835938 L 330.957031 63.171875 C 328.011719 67.476562 324.15625 70.195312 318.492188 70.195312 Z M 317.8125 39.148438 C 322.34375 39.148438 326.195312 41.414062 327.332031 44.589844 L 304.667969 54.105469 C 304.441406 43.683594 312.148438 39.148438 317.8125 39.148438 Z M 317.8125 39.148438 " fill-opacity="1" fill-rule="nonzero"/></g></svg>