<svg xmlns="http://www.w3.org/2000/svg" xmlns:xlink="http://www.w3.org/1999/xlink" width="155" zoomAndPan="magnify" viewBox="0 0 116.25 33.749998" height="45" preserveAspectRatio="xMidYMid meet" version="1.0"><defs><g/><clipPath id="82373e45de"><path d="M 0.0546875 9 L 21 9 L 21 25 L 0.0546875 25 Z M 0.0546875 9 " clip-rule="nonzero"/></clipPath></defs><g clip-path="url(#82373e45de)"><g fill="#000000" fill-opacity="1"><g transform="translate(0.078518, 24.133907)"><g><path d="M 10.3125 0.328125 C 6.625 0.328125 4.03125 -0.4375 2.53125 -1.96875 C 1.257812 -3.25 0.625 -5.109375 0.625 -7.546875 L 6.96875 -7.546875 C 6.96875 -6.492188 7.148438 -5.660156 7.515625 -5.046875 C 8.023438 -4.171875 8.957031 -3.734375 10.3125 -3.734375 C 11.6875 -3.734375 12.625 -4.171875 13.125 -5.046875 C 13.488281 -5.679688 13.671875 -6.515625 13.671875 -7.546875 L 13.671875 -15.109375 L 20.015625 -15.109375 L 20.015625 -7.453125 C 20.015625 -5.078125 19.382812 -3.25 18.125 -1.96875 C 16.613281 -0.4375 14.007812 0.328125 10.3125 0.328125 Z M 10.3125 0.328125 "/></g></g></g></g><g fill="#000000" fill-opacity="1"><g transform="translate(21.025349, 24.133907)"><g><path d="M 11.4375 0.328125 C 7.695312 0.328125 4.945312 -0.441406 3.1875 -1.984375 C 1.625 -3.347656 0.84375 -5.203125 0.84375 -7.546875 C 0.84375 -9.898438 1.625 -11.757812 3.1875 -13.125 C 4.945312 -14.65625 7.695312 -15.421875 11.4375 -15.421875 C 15.164062 -15.421875 17.914062 -14.65625 19.6875 -13.125 C 21.238281 -11.757812 22.015625 -9.898438 22.015625 -7.546875 C 22.015625 -5.203125 21.238281 -3.347656 19.6875 -1.984375 C 17.914062 -0.441406 15.164062 0.328125 11.4375 0.328125 Z M 11.4375 -3.734375 C 12.96875 -3.734375 14.085938 -4.171875 14.796875 -5.046875 C 15.378906 -5.753906 15.671875 -6.585938 15.671875 -7.546875 C 15.671875 -8.515625 15.378906 -9.347656 14.796875 -10.046875 C 14.085938 -10.929688 12.96875 -11.375 11.4375 -11.375 C 9.90625 -11.375 8.773438 -10.929688 8.046875 -10.046875 C 7.472656 -9.347656 7.1875 -8.515625 7.1875 -7.546875 C 7.1875 -6.585938 7.472656 -5.753906 8.046875 -5.046875 C 8.773438 -4.171875 9.90625 -3.734375 11.4375 -3.734375 Z M 11.4375 -3.734375 "/></g></g></g><g fill="#000000" fill-opacity="1"><g transform="translate(43.87834, 24.133907)"><g><path d="M 12.53125 0 L 1.6875 0 L 1.6875 -15.109375 L 12.765625 -15.109375 C 14.722656 -15.109375 16.335938 -15.019531 17.609375 -14.84375 C 18.890625 -14.664062 19.875 -14.382812 20.5625 -14 C 21.25 -13.613281 21.710938 -13.125 21.953125 -12.53125 C 22.203125 -11.945312 22.328125 -11.242188 22.328125 -10.421875 C 22.304688 -9.773438 22.128906 -9.238281 21.796875 -8.8125 C 21.460938 -8.382812 21.070312 -8.066406 20.625 -7.859375 C 20.175781 -7.648438 19.785156 -7.546875 19.453125 -7.546875 C 19.773438 -7.546875 20.15625 -7.484375 20.59375 -7.359375 C 21.039062 -7.234375 21.472656 -7.046875 21.890625 -6.796875 C 22.316406 -6.546875 22.664062 -6.242188 22.9375 -5.890625 C 23.21875 -5.546875 23.359375 -5.148438 23.359375 -4.703125 C 23.359375 -4.109375 23.289062 -3.566406 23.15625 -3.078125 C 23.019531 -2.585938 22.742188 -2.148438 22.328125 -1.765625 C 21.921875 -1.390625 21.316406 -1.066406 20.515625 -0.796875 C 19.710938 -0.535156 18.660156 -0.335938 17.359375 -0.203125 C 16.066406 -0.0664062 14.457031 0 12.53125 0 Z M 12.171875 -8.84375 C 13.097656 -8.84375 13.816406 -8.890625 14.328125 -8.984375 C 14.835938 -9.078125 15.1875 -9.21875 15.375 -9.40625 C 15.570312 -9.59375 15.671875 -9.828125 15.671875 -10.109375 C 15.671875 -10.410156 15.570312 -10.648438 15.375 -10.828125 C 15.1875 -11.015625 14.835938 -11.148438 14.328125 -11.234375 C 13.816406 -11.328125 13.097656 -11.375 12.171875 -11.375 L 8.03125 -11.375 L 8.03125 -8.84375 Z M 12.171875 -3.734375 C 13.117188 -3.734375 13.882812 -3.753906 14.46875 -3.796875 C 15.0625 -3.847656 15.492188 -3.960938 15.765625 -4.140625 C 16.046875 -4.316406 16.1875 -4.601562 16.1875 -5 C 16.1875 -5.382812 16.046875 -5.664062 15.765625 -5.84375 C 15.492188 -6.03125 15.0625 -6.144531 14.46875 -6.1875 C 13.882812 -6.238281 13.117188 -6.265625 12.171875 -6.265625 L 8.03125 -6.265625 L 8.03125 -3.734375 Z M 12.171875 -3.734375 "/></g></g></g><g fill="#000000" fill-opacity="1"><g transform="translate(68.068821, 24.133907)"><g><path d="M 12.53125 0 L 1.6875 0 L 1.6875 -15.109375 L 12.765625 -15.109375 C 14.722656 -15.109375 16.335938 -15.019531 17.609375 -14.84375 C 18.890625 -14.664062 19.875 -14.382812 20.5625 -14 C 21.25 -13.613281 21.710938 -13.125 21.953125 -12.53125 C 22.203125 -11.945312 22.328125 -11.242188 22.328125 -10.421875 C 22.304688 -9.773438 22.128906 -9.238281 21.796875 -8.8125 C 21.460938 -8.382812 21.070312 -8.066406 20.625 -7.859375 C 20.175781 -7.648438 19.785156 -7.546875 19.453125 -7.546875 C 19.773438 -7.546875 20.15625 -7.484375 20.59375 -7.359375 C 21.039062 -7.234375 21.472656 -7.046875 21.890625 -6.796875 C 22.316406 -6.546875 22.664062 -6.242188 22.9375 -5.890625 C 23.21875 -5.546875 23.359375 -5.148438 23.359375 -4.703125 C 23.359375 -4.109375 23.289062 -3.566406 23.15625 -3.078125 C 23.019531 -2.585938 22.742188 -2.148438 22.328125 -1.765625 C 21.921875 -1.390625 21.316406 -1.066406 20.515625 -0.796875 C 19.710938 -0.535156 18.660156 -0.335938 17.359375 -0.203125 C 16.066406 -0.0664062 14.457031 0 12.53125 0 Z M 12.171875 -8.84375 C 13.097656 -8.84375 13.816406 -8.890625 14.328125 -8.984375 C 14.835938 -9.078125 15.1875 -9.21875 15.375 -9.40625 C 15.570312 -9.59375 15.671875 -9.828125 15.671875 -10.109375 C 15.671875 -10.410156 15.570312 -10.648438 15.375 -10.828125 C 15.1875 -11.015625 14.835938 -11.148438 14.328125 -11.234375 C 13.816406 -11.328125 13.097656 -11.375 12.171875 -11.375 L 8.03125 -11.375 L 8.03125 -8.84375 Z M 12.171875 -3.734375 C 13.117188 -3.734375 13.882812 -3.753906 14.46875 -3.796875 C 15.0625 -3.847656 15.492188 -3.960938 15.765625 -4.140625 C 16.046875 -4.316406 16.1875 -4.601562 16.1875 -5 C 16.1875 -5.382812 16.046875 -5.664062 15.765625 -5.84375 C 15.492188 -6.03125 15.0625 -6.144531 14.46875 -6.1875 C 13.882812 -6.238281 13.117188 -6.265625 12.171875 -6.265625 L 8.03125 -6.265625 L 8.03125 -3.734375 Z M 12.171875 -3.734375 "/></g></g></g><g fill="#000000" fill-opacity="1"><g transform="translate(92.259302, 24.133907)"><g><path d="M 22.328125 0 L 16.328125 0 C 16.054688 -0.375 15.863281 -0.859375 15.75 -1.453125 C 15.65625 -1.910156 15.507812 -2.359375 15.3125 -2.796875 C 15.113281 -3.234375 14.773438 -3.597656 14.296875 -3.890625 C 13.816406 -4.179688 13.097656 -4.335938 12.140625 -4.359375 L 8.03125 -4.359375 L 8.03125 0 L 1.6875 0 L 1.6875 -15.125 L 12 -15.125 C 14.46875 -15.125 16.457031 -14.9375 17.96875 -14.5625 C 19.476562 -14.195312 20.582031 -13.617188 21.28125 -12.828125 C 21.976562 -12.035156 22.328125 -11.003906 22.328125 -9.734375 C 22.328125 -8.671875 22.082031 -7.773438 21.59375 -7.046875 C 21.113281 -6.328125 20.359375 -5.757812 19.328125 -5.34375 C 20.328125 -4.925781 20.972656 -4.425781 21.265625 -3.84375 C 21.566406 -3.269531 21.753906 -2.632812 21.828125 -1.9375 C 21.898438 -1.320312 22.066406 -0.675781 22.328125 0 Z M 8.03125 -8.09375 L 11.65625 -8.109375 C 12.664062 -8.109375 13.460938 -8.148438 14.046875 -8.234375 C 14.628906 -8.328125 15.054688 -8.453125 15.328125 -8.609375 C 15.609375 -8.765625 15.785156 -8.941406 15.859375 -9.140625 C 15.941406 -9.335938 15.984375 -9.535156 15.984375 -9.734375 C 15.984375 -9.941406 15.941406 -10.140625 15.859375 -10.328125 C 15.785156 -10.523438 15.609375 -10.703125 15.328125 -10.859375 C 15.054688 -11.023438 14.628906 -11.148438 14.046875 -11.234375 C 13.460938 -11.328125 12.664062 -11.375 11.65625 -11.375 L 8.03125 -11.375 Z M 8.03125 -8.09375 "/></g></g></g></svg>