<svg xmlns="http://www.w3.org/2000/svg" xmlns:xlink="http://www.w3.org/1999/xlink" width="484" zoomAndPan="magnify" viewBox="0 0 363 105.749996" height="141" preserveAspectRatio="xMidYMid meet" version="1.0"><path fill="#ffffff" d="M 140.578125 77.21875 L 132.152344 77.21875 L 132.152344 72.003906 L 131.953125 72.003906 C 129.144531 75.8125 123.726562 78.421875 118.714844 78.421875 C 112.695312 78.421875 107.882812 76.015625 104.472656 72.003906 C 101.460938 68.390625 99.65625 63.378906 99.65625 58.160156 C 99.65625 52.945312 101.0625 48.535156 104.671875 44.519531 C 108.683594 40.109375 113.496094 37.902344 119.113281 37.902344 C 124.328125 37.902344 128.941406 40.308594 132.152344 44.519531 L 132.152344 39.105469 L 140.578125 39.105469 Z M 120.71875 47.128906 C 113.898438 47.128906 109.085938 52.144531 109.085938 58.761719 C 109.085938 64.980469 114.300781 69.796875 120.519531 69.796875 C 127.136719 69.796875 131.75 64.980469 131.75 58.363281 C 131.75 51.941406 127.136719 46.929688 120.71875 47.128906 Z M 186.511719 77.21875 L 177.886719 77.21875 L 177.886719 72.003906 L 177.6875 72.003906 C 174.878906 76.214844 169.863281 78.421875 164.847656 78.421875 C 159.234375 78.421875 154.21875 75.8125 150.808594 72.003906 C 147.597656 68.390625 145.59375 63.378906 145.59375 58.363281 C 145.59375 53.347656 147.398438 48.332031 150.808594 44.519531 C 154.21875 40.710938 159.835938 38.101562 165.050781 38.101562 C 169.464844 38.101562 174.078125 39.90625 177.085938 43.316406 L 177.085938 26.667969 L 186.3125 26.667969 L 186.3125 77.21875 Z M 166.253906 47.128906 C 160.234375 47.128906 155.019531 52.34375 155.019531 58.160156 C 155.019531 64.378906 159.835938 69.796875 166.253906 69.796875 C 172.671875 69.796875 177.6875 64.582031 177.6875 58.363281 C 177.886719 51.941406 172.671875 47.128906 166.253906 47.128906 Z M 192.332031 69.195312 L 209.582031 47.53125 L 194.335938 47.53125 L 194.335938 39.507812 L 220.613281 39.507812 L 220.613281 47.53125 L 203.5625 69.195312 L 222.019531 69.195312 L 222.019531 77.21875 L 192.332031 77.21875 Z M 261.335938 39.304688 L 261.335938 77.21875 L 252.710938 77.21875 L 252.710938 73.207031 L 252.507812 73.207031 C 250.503906 76.816406 246.890625 78.421875 242.679688 78.421875 C 238.066406 78.421875 233.652344 76.617188 230.445312 73.207031 C 227.035156 69.59375 226.832031 65.582031 226.832031 60.769531 L 226.832031 39.304688 L 236.058594 39.304688 L 236.058594 57.960938 C 236.058594 60.367188 236.058594 63.578125 237.265625 65.785156 C 238.46875 68.191406 241.074219 69.59375 243.882812 69.59375 C 250.902344 69.59375 251.90625 63.378906 251.90625 57.960938 L 251.90625 39.304688 Z M 268.757812 39.304688 L 277.382812 39.304688 L 277.382812 42.714844 L 277.582031 42.714844 C 279.988281 39.507812 284.003906 37.902344 288.214844 37.902344 C 292.425781 37.902344 296.4375 39.707031 299.246094 42.714844 L 300.25 43.71875 C 303.257812 47.730469 303.257812 52.546875 303.257812 57.359375 L 303.257812 77.015625 L 294.03125 77.015625 L 294.03125 59.164062 C 294.03125 56.15625 294.03125 52.546875 292.425781 49.9375 C 291.023438 47.929688 288.617188 46.726562 286.207031 46.726562 C 283.601562 46.726562 280.992188 47.929688 279.789062 50.136719 C 278.183594 52.746094 278.183594 56.757812 278.183594 59.765625 L 278.183594 77.015625 L 268.957031 77.015625 L 268.957031 39.304688 Z M 349.996094 77.21875 L 341.574219 77.21875 L 341.574219 72.003906 L 341.371094 72.003906 C 338.5625 75.8125 333.148438 78.421875 328.132812 78.421875 C 322.113281 78.421875 317.300781 76.015625 313.890625 72.003906 C 310.882812 68.390625 309.078125 63.378906 309.078125 58.160156 C 309.078125 52.945312 310.480469 48.535156 314.089844 44.519531 C 318.101562 40.109375 322.917969 37.902344 328.535156 37.902344 C 333.75 37.902344 338.363281 40.308594 341.574219 44.519531 L 341.574219 39.105469 L 349.996094 39.105469 Z M 329.9375 47.128906 C 323.117188 47.128906 318.304688 52.144531 318.304688 58.761719 C 318.304688 64.980469 323.519531 69.796875 329.738281 69.796875 C 336.355469 69.796875 340.96875 64.980469 340.96875 58.363281 C 341.171875 51.941406 336.558594 46.929688 329.9375 47.128906 Z M 92.433594 54.148438 C 92.433594 40.308594 87.421875 28.875 77.792969 20.851562 C 69.167969 13.628906 56.929688 9.617188 43.492188 9.617188 L 43.492188 20.652344 C 54.324219 20.652344 63.75 23.660156 70.371094 29.277344 C 77.390625 35.09375 81 43.71875 81 54.148438 C 81 71 66.960938 84.640625 49.910156 84.640625 C 35.867188 84.640625 24.234375 73.40625 24.234375 59.566406 C 24.234375 54.148438 26.441406 48.933594 30.25 45.324219 C 34.261719 41.511719 39.480469 39.507812 45.09375 39.507812 C 49.910156 39.507812 54.121094 40.910156 57.132812 43.316406 C 59.9375 45.726562 61.542969 49.335938 61.542969 53.546875 C 61.542969 60.769531 56.128906 65.984375 48.503906 65.984375 L 48.503906 77.015625 C 62.347656 77.015625 72.777344 66.988281 72.777344 53.546875 C 72.777344 46.125 69.769531 39.507812 64.554688 34.894531 C 59.539062 30.679688 52.71875 28.273438 45.09375 28.273438 C 36.46875 28.273438 28.445312 31.484375 22.226562 37.300781 C 16.410156 43.316406 13 51.140625 13 59.566406 C 13 79.625 29.648438 95.875 49.910156 95.875 C 73.378906 95.875 92.433594 77.21875 92.433594 54.148438 Z M 92.433594 54.148438 " fill-opacity="1" fill-rule="nonzero"/></svg>