<svg xmlns="http://www.w3.org/2000/svg" xmlns:xlink="http://www.w3.org/1999/xlink" width="484" zoomAndPan="magnify" viewBox="0 0 363 105.749996" height="141" preserveAspectRatio="xMidYMid meet" version="1.0"><defs><clipPath id="9402be9001"><path d="M 117 20.878906 L 131 20.878906 L 131 84 L 117 84 Z M 117 20.878906 " clip-rule="nonzero"/></clipPath><clipPath id="d10cddc135"><path d="M 137 35 L 186 35 L 186 84.476562 L 137 84.476562 Z M 137 35 " clip-rule="nonzero"/></clipPath><clipPath id="ad4ca14a95"><path d="M 243 20.878906 L 270 20.878906 L 270 84 L 243 84 Z M 243 20.878906 " clip-rule="nonzero"/></clipPath><clipPath id="f538476e49"><path d="M 31 20.878906 L 57 20.878906 L 57 84 L 31 84 Z M 31 20.878906 " clip-rule="nonzero"/></clipPath><clipPath id="a253bcf6ee"><path d="M 322 63 L 352.171875 63 L 352.171875 84 L 322 84 Z M 322 63 " clip-rule="nonzero"/></clipPath></defs><g clip-path="url(#9402be9001)"><path fill="#ffffff" d="M 117.113281 20.878906 L 130.890625 20.878906 L 130.890625 83.554688 L 117.113281 83.554688 Z M 117.113281 20.878906 " fill-opacity="1" fill-rule="nonzero"/></g><g clip-path="url(#d10cddc135)"><path fill="#ffffff" d="M 151.800781 63.71875 C 152.59375 69.476562 157.503906 73.011719 163.375 73.011719 C 167.5 73.011719 171.710938 70.804688 173.804688 67.347656 L 183.703125 73.902344 C 179.753906 81.066406 173.089844 84.617188 163.53125 84.617188 C 156.25 84.617188 150.207031 82.316406 145.203125 77.71875 C 140.289062 73.027344 137.84375 67.097656 137.84375 59.839844 C 137.84375 53.019531 140.289062 47.265625 145.125 42.398438 C 150.035156 37.535156 155.910156 35.140625 162.664062 35.140625 C 169.589844 35.140625 175.199219 37.363281 179.507812 41.695312 C 183.8125 46.027344 186 51.785156 186 58.777344 C 186 60.980469 185.90625 62.671875 185.828125 63.734375 L 151.800781 63.734375 Z M 172.332031 54.601562 C 171.976562 50.441406 168.566406 46.371094 162.339844 46.371094 C 159.535156 46.371094 157.164062 47.265625 155.320312 49.109375 C 153.476562 50.878906 152.421875 52.738281 152.160156 54.601562 Z M 172.332031 54.601562 " fill-opacity="1" fill-rule="nonzero"/></g><path fill="#ffffff" d="M 223.234375 83.554688 L 223.234375 57.355469 C 223.234375 51.785156 220.429688 48.140625 215.085938 48.140625 C 209.550781 48.140625 206.671875 52.128906 206.671875 57.355469 L 206.671875 83.554688 L 192.988281 83.554688 L 192.988281 35.566406 L 206.578125 35.566406 L 206.578125 42.476562 L 206.671875 42.476562 C 207.816406 40.539062 209.304688 39.023438 211.320312 37.878906 C 215.441406 35.488281 217.886719 35.394531 219.917969 35.394531 C 225.527344 35.394531 229.742188 37.160156 232.546875 40.789062 C 235.441406 44.417969 236.835938 48.84375 236.835938 54.164062 L 236.835938 83.554688 Z M 223.234375 83.554688 " fill-opacity="1" fill-rule="nonzero"/><path fill="#ffffff" d="M 110.15625 35.566406 L 110.15625 83.554688 L 96.382812 83.554688 L 96.382812 81.019531 C 93.332031 82.597656 89.953125 83.554688 86.375 83.554688 C 73.25 83.554688 62.605469 72.808594 62.605469 59.558594 C 62.605469 46.3125 73.25 35.566406 86.375 35.566406 C 89.953125 35.566406 93.347656 36.519531 96.382812 38.097656 L 96.382812 35.566406 Z M 87.226562 71.085938 C 93.386719 71.085938 98.382812 65.90625 98.382812 59.511719 C 98.382812 53.121094 93.386719 47.9375 87.226562 47.9375 C 81.0625 47.9375 76.070312 53.121094 76.070312 59.511719 C 76.070312 65.90625 81.0625 71.085938 87.226562 71.085938 Z M 87.226562 71.085938 " fill-opacity="1" fill-rule="evenodd"/><g clip-path="url(#ad4ca14a95)"><path fill="#ffffff" d="M 269.046875 49.46875 L 269.046875 35.566406 L 257.472656 35.566406 L 257.472656 20.878906 L 243.792969 20.878906 L 243.792969 65.753906 C 243.792969 76.8125 250.191406 83.554688 262.382812 83.554688 C 264.660156 83.554688 266.769531 83.289062 268.785156 82.660156 L 268.785156 71.585938 L 266.335938 71.585938 C 266.101562 71.601562 265.871094 71.601562 265.621094 71.601562 C 260.277344 71.601562 257.472656 69.476562 257.472656 64.078125 L 257.472656 49.46875 Z M 269.046875 49.46875 " fill-opacity="1" fill-rule="nonzero"/></g><g clip-path="url(#f538476e49)"><path fill="#ffffff" d="M 56.734375 49.46875 L 56.734375 35.566406 L 45.421875 35.566406 L 45.421875 20.878906 L 31.742188 20.878906 L 31.742188 65.753906 C 31.742188 76.8125 38.140625 83.554688 50.332031 83.554688 C 52.613281 83.554688 54.71875 83.289062 56.734375 82.660156 L 56.734375 71.585938 L 54.285156 71.585938 C 54.050781 71.601562 53.820312 71.601562 53.570312 71.601562 C 48.226562 71.601562 45.421875 69.476562 45.421875 64.078125 L 45.421875 49.46875 Z M 56.734375 49.46875 " fill-opacity="1" fill-rule="nonzero"/></g><path fill="#ffffff" d="M 12.542969 49.46875 L 12.542969 35.566406 L 26.320312 35.566406 L 26.320312 49.453125 L 12.542969 49.453125 Z M 12.542969 49.46875 " fill-opacity="1" fill-rule="nonzero"/><path fill="#ffffff" d="M 277.015625 47.800781 C 275.601562 46.378906 274.859375 44.621094 274.859375 42.652344 C 274.859375 38.578125 278.085938 35.265625 282.140625 35.265625 C 286.195312 35.265625 289.421875 38.59375 289.421875 42.652344 C 289.421875 44.621094 288.683594 46.378906 287.265625 47.800781 C 285.847656 49.226562 284.167969 49.972656 282.140625 49.972656 C 280.195312 49.972656 278.433594 49.226562 277.015625 47.800781 Z M 277.015625 47.800781 " fill-opacity="1" fill-rule="nonzero"/><path fill="#ffffff" d="M 278.949219 80.894531 C 277.011719 78.9375 276.019531 76.5 276.019531 73.589844 C 276.019531 70.820312 277.011719 68.425781 278.949219 66.394531 C 280.882812 64.359375 283.300781 63.375 286.183594 63.375 C 290.566406 63.375 293.792969 65.769531 294.953125 69.273438 L 291.21875 70.960938 C 290.382812 68.570312 288.695312 67.347656 286.214844 67.347656 C 284.601562 67.347656 283.253906 67.941406 282.125 69.085938 C 281.023438 70.226562 280.480469 71.695312 280.480469 73.511719 C 280.480469 75.355469 281.023438 76.875 282.125 78.046875 C 283.222656 79.234375 284.601562 79.816406 286.261719 79.816406 C 288.710938 79.816406 290.382812 78.59375 291.296875 76.15625 L 295.09375 77.859375 C 294.550781 79.4375 293.480469 80.847656 291.992188 82.035156 C 290.492188 83.210938 288.554688 83.804688 286.183594 83.804688 C 283.285156 83.804688 280.882812 82.847656 278.949219 80.894531 Z M 278.949219 80.894531 " fill-opacity="1" fill-rule="nonzero"/><path fill="#ffffff" d="M 315.375 66.285156 C 317.390625 68.238281 318.367188 70.632812 318.367188 73.511719 C 318.367188 76.421875 317.375 78.859375 315.375 80.847656 C 313.40625 82.800781 310.992188 83.804688 308.109375 83.804688 C 305.257812 83.804688 302.808594 82.800781 300.796875 80.847656 C 298.78125 78.890625 297.804688 76.453125 297.804688 73.574219 C 297.804688 70.695312 298.828125 68.253906 300.84375 66.300781 C 302.855469 64.34375 305.304688 63.34375 308.15625 63.34375 C 310.960938 63.375 313.363281 64.328125 315.375 66.285156 Z M 302.253906 73.511719 C 302.253906 75.246094 302.792969 76.71875 303.894531 77.96875 C 304.996094 79.1875 306.421875 79.8125 308.140625 79.8125 C 309.859375 79.8125 311.285156 79.21875 312.339844 78 C 313.394531 76.78125 313.949219 75.308594 313.949219 73.574219 C 313.949219 71.835938 313.40625 70.367188 312.308594 69.148438 C 311.253906 67.925781 309.828125 67.332031 308.109375 67.332031 C 306.390625 67.332031 304.964844 67.925781 303.863281 69.148438 C 302.808594 70.351562 302.253906 71.789062 302.253906 73.511719 Z M 302.253906 73.511719 " fill-opacity="1" fill-rule="nonzero"/><g clip-path="url(#a253bcf6ee)"><path fill="#ffffff" d="M 334.851562 83.472656 L 334.851562 72.398438 C 334.851562 69.445312 333.535156 67.488281 330.652344 67.488281 C 328.019531 67.488281 326.375 69.523438 326.375 72.507812 L 326.375 83.457031 L 322.023438 83.457031 L 322.023438 63.765625 L 326.269531 63.765625 L 326.269531 66.425781 C 327.800781 64.359375 329.738281 63.328125 332.078125 63.328125 C 334.898438 63.328125 336.898438 64.390625 338.105469 66.582031 C 340.117188 64.359375 342.007812 63.328125 344.90625 63.328125 C 349.617188 63.328125 352.003906 66.582031 352.003906 71.289062 L 352.003906 83.457031 L 347.648438 83.457031 L 347.648438 72.351562 C 347.648438 69.367188 346.378906 67.488281 343.480469 67.488281 C 340.816406 67.488281 339.175781 69.476562 339.175781 72.460938 L 339.175781 83.457031 L 334.851562 83.457031 Z M 334.851562 83.472656 " fill-opacity="1" fill-rule="nonzero"/></g></svg>