<svg xmlns="http://www.w3.org/2000/svg" xmlns:xlink="http://www.w3.org/1999/xlink" width="484" zoomAndPan="magnify" viewBox="0 0 363 105.749996" height="141" preserveAspectRatio="xMidYMid meet" version="1.0"><defs><clipPath id="9a797c8866"><path d="M 253 11.390625 L 337 11.390625 L 337 94 L 253 94 Z M 253 11.390625 " clip-rule="nonzero"/></clipPath><clipPath id="3be88fd4f3"><path d="M 339 83 L 352 83 L 352 94.445312 L 339 94.445312 Z M 339 83 " clip-rule="nonzero"/></clipPath></defs><path fill="#ffffff" d="M 346.242188 89.085938 C 346.453125 89.085938 346.65625 89.046875 346.847656 88.964844 C 347.042969 88.882812 347.210938 88.765625 347.355469 88.613281 C 347.503906 88.460938 347.609375 88.285156 347.683594 88.085938 C 347.757812 87.886719 347.785156 87.683594 347.773438 87.472656 C 347.773438 86.328125 347.085938 85.78125 345.675781 85.78125 L 343.394531 85.78125 L 343.394531 91.769531 L 344.253906 91.769531 L 344.253906 89.160156 L 345.308594 89.160156 L 345.332031 89.191406 L 346.964844 91.769531 L 347.882812 91.769531 L 346.125 89.101562 Z M 345.25 88.484375 L 344.253906 88.484375 L 344.253906 86.460938 L 345.515625 86.460938 C 346.167969 86.460938 346.910156 86.566406 346.910156 87.421875 C 346.910156 88.40625 346.160156 88.484375 345.246094 88.484375 " fill-opacity="1" fill-rule="nonzero"/><path fill="#ffffff" d="M 12.144531 23.582031 L 24.804688 23.582031 L 24.804688 69.859375 L 48.238281 69.859375 L 48.238281 81.582031 L 12.144531 81.582031 Z M 12.144531 23.582031 " fill-opacity="1" fill-rule="nonzero"/><path fill="#ffffff" d="M 53.835938 42.257812 L 65.996094 42.257812 L 65.996094 81.5625 L 53.835938 81.5625 Z M 59.914062 22.714844 C 60.378906 22.714844 60.835938 22.761719 61.292969 22.851562 C 61.746094 22.941406 62.1875 23.078125 62.613281 23.253906 C 63.042969 23.433594 63.449219 23.652344 63.835938 23.910156 C 64.21875 24.167969 64.574219 24.460938 64.902344 24.789062 C 65.230469 25.117188 65.523438 25.476562 65.78125 25.863281 C 66.039062 26.25 66.253906 26.65625 66.433594 27.085938 C 66.609375 27.515625 66.742188 27.960938 66.832031 28.414062 C 66.921875 28.871094 66.96875 29.332031 66.96875 29.796875 C 66.96875 30.261719 66.921875 30.722656 66.832031 31.175781 C 66.742188 31.632812 66.609375 32.078125 66.429688 32.503906 C 66.253906 32.933594 66.035156 33.34375 65.777344 33.730469 C 65.523438 34.117188 65.230469 34.472656 64.902344 34.800781 C 64.574219 35.132812 64.21875 35.425781 63.832031 35.683594 C 63.449219 35.941406 63.042969 36.160156 62.613281 36.335938 C 62.183594 36.515625 61.742188 36.648438 61.289062 36.738281 C 60.835938 36.832031 60.375 36.875 59.914062 36.875 C 59.449219 36.875 58.992188 36.832031 58.539062 36.738281 C 58.082031 36.648438 57.640625 36.515625 57.214844 36.335938 C 56.785156 36.160156 56.378906 35.941406 55.996094 35.683594 C 55.609375 35.425781 55.253906 35.128906 54.925781 34.800781 C 54.597656 34.472656 54.304688 34.117188 54.046875 33.730469 C 53.789062 33.34375 53.574219 32.933594 53.394531 32.503906 C 53.21875 32.074219 53.085938 31.632812 52.996094 31.175781 C 52.90625 30.722656 52.859375 30.261719 52.859375 29.796875 C 52.859375 29.332031 52.90625 28.871094 52.996094 28.414062 C 53.085938 27.957031 53.21875 27.515625 53.398438 27.085938 C 53.574219 26.65625 53.792969 26.25 54.046875 25.863281 C 54.304688 25.476562 54.597656 25.117188 54.925781 24.789062 C 55.253906 24.460938 55.609375 24.167969 55.996094 23.90625 C 56.378906 23.648438 56.789062 23.433594 57.214844 23.253906 C 57.644531 23.074219 58.085938 22.941406 58.539062 22.851562 C 58.992188 22.761719 59.453125 22.714844 59.914062 22.714844 " fill-opacity="1" fill-rule="nonzero"/><path fill="#ffffff" d="M 116.867188 23.570312 L 129.027344 23.570312 L 129.027344 58.234375 L 142.808594 42.238281 L 157.71875 42.238281 L 141.757812 60.4375 L 157.382812 81.578125 L 142.097656 81.578125 L 129.1875 62.148438 L 129.027344 62.148438 L 129.027344 81.574219 L 116.867188 81.574219 Z M 116.867188 23.570312 " fill-opacity="1" fill-rule="nonzero"/><path fill="#ffffff" d="M 72.738281 42.261719 L 84.417969 42.261719 L 84.417969 47.632812 L 84.582031 47.632812 C 85.164062 46.628906 85.871094 45.722656 86.699219 44.910156 C 87.527344 44.101562 88.449219 43.417969 89.464844 42.859375 C 90.476562 42.296875 91.546875 41.886719 92.675781 41.617188 C 93.800781 41.351562 94.941406 41.238281 96.097656 41.28125 C 108.429688 41.28125 110.699219 49.425781 110.699219 60.003906 L 110.699219 81.558594 L 98.539062 81.558594 L 98.539062 62.449219 C 98.539062 57.886719 98.453125 52.023438 92.203125 52.023438 C 85.882812 52.023438 84.90625 56.992188 84.90625 62.117188 L 84.90625 81.554688 L 72.746094 81.554688 Z M 72.738281 42.261719 " fill-opacity="1" fill-rule="nonzero"/><path fill="#ffffff" d="M 183.328125 57.335938 C 183.339844 56.84375 183.300781 56.351562 183.214844 55.863281 C 183.125 55.375 182.992188 54.902344 182.808594 54.441406 C 182.625 53.984375 182.394531 53.546875 182.125 53.132812 C 181.851562 52.71875 181.542969 52.339844 181.191406 51.988281 C 180.84375 51.636719 180.464844 51.328125 180.050781 51.054688 C 179.640625 50.78125 179.203125 50.554688 178.746094 50.371094 C 178.289062 50.1875 177.816406 50.050781 177.332031 49.960938 C 176.84375 49.875 176.355469 49.835938 175.863281 49.847656 C 175.335938 49.816406 174.8125 49.835938 174.289062 49.902344 C 173.765625 49.972656 173.253906 50.09375 172.757812 50.261719 C 172.257812 50.433594 171.777344 50.648438 171.320312 50.914062 C 170.863281 51.175781 170.4375 51.480469 170.039062 51.828125 C 169.640625 52.175781 169.277344 52.558594 168.953125 52.972656 C 168.632812 53.390625 168.351562 53.835938 168.113281 54.308594 C 167.875 54.78125 167.6875 55.273438 167.542969 55.78125 C 167.402344 56.292969 167.308594 56.808594 167.269531 57.335938 Z M 193.628906 74.753906 C 192.617188 75.984375 191.484375 77.089844 190.230469 78.066406 C 188.976562 79.042969 187.628906 79.867188 186.191406 80.542969 C 184.753906 81.222656 183.257812 81.730469 181.707031 82.074219 C 180.15625 82.414062 178.585938 82.582031 177 82.574219 C 164.839844 82.574219 155.101562 74.429688 155.101562 61.8125 C 155.101562 49.195312 164.835938 41.054688 177 41.054688 C 188.367188 41.054688 195.492188 49.191406 195.492188 61.8125 L 195.492188 65.640625 L 167.269531 65.640625 C 167.355469 66.175781 167.488281 66.703125 167.671875 67.21875 C 167.851562 67.730469 168.078125 68.226562 168.347656 68.699219 C 168.617188 69.171875 168.925781 69.617188 169.273438 70.035156 C 169.625 70.453125 170.007812 70.835938 170.425781 71.183594 C 170.84375 71.535156 171.289062 71.84375 171.761719 72.113281 C 172.234375 72.378906 172.726562 72.605469 173.238281 72.785156 C 173.753906 72.964844 174.277344 73.097656 174.8125 73.179688 C 175.351562 73.265625 175.890625 73.304688 176.433594 73.292969 C 177.296875 73.285156 178.148438 73.175781 178.988281 72.953125 C 179.824219 72.734375 180.621094 72.417969 181.378906 71.996094 C 182.136719 71.578125 182.832031 71.070312 183.464844 70.476562 C 184.097656 69.882812 184.644531 69.21875 185.113281 68.488281 Z M 193.628906 74.753906 " fill-opacity="1" fill-rule="nonzero"/><path fill="#ffffff" d="M 220.839844 51.757812 C 214.761719 51.757812 211.113281 55.832031 211.113281 61.769531 C 211.113281 67.707031 214.761719 71.785156 220.839844 71.785156 C 226.921875 71.785156 230.578125 67.714844 230.578125 61.769531 C 230.578125 55.820312 226.929688 51.757812 220.839844 51.757812 M 241.773438 81.554688 L 230.578125 81.554688 L 230.578125 76.339844 L 230.414062 76.339844 C 229.710938 77.289062 228.910156 78.144531 228.011719 78.90625 C 227.113281 79.667969 226.136719 80.320312 225.089844 80.855469 C 224.042969 81.394531 222.945312 81.800781 221.804688 82.085938 C 220.660156 82.367188 219.5 82.515625 218.324219 82.53125 C 206.640625 82.53125 198.941406 74.066406 198.941406 62.097656 C 198.941406 51.105469 205.753906 41.011719 216.949219 41.011719 C 221.984375 41.011719 226.683594 42.394531 229.441406 46.226562 L 229.601562 46.226562 L 229.601562 23.566406 L 241.773438 23.566406 Z M 241.773438 81.554688 " fill-opacity="1" fill-rule="nonzero"/><g clip-path="url(#9a797c8866)"><path fill="#ffffff" d="M 323.871094 81.578125 L 311.710938 81.578125 L 311.710938 62.464844 C 311.710938 57.90625 311.628906 52.039062 305.386719 52.039062 C 299.050781 52.039062 298.082031 57.003906 298.082031 62.132812 L 298.082031 81.574219 L 285.921875 81.574219 L 285.921875 42.269531 L 297.597656 42.269531 L 297.597656 47.640625 L 297.757812 47.640625 C 298.34375 46.640625 299.050781 45.734375 299.878906 44.921875 C 300.707031 44.113281 301.628906 43.429688 302.644531 42.871094 C 303.660156 42.308594 304.730469 41.898438 305.855469 41.628906 C 306.980469 41.363281 308.121094 41.25 309.277344 41.292969 C 321.605469 41.292969 323.875 49.429688 323.875 60.015625 Z M 272.199219 36.898438 C 271.738281 36.898438 271.277344 36.851562 270.824219 36.761719 C 270.367188 36.671875 269.929688 36.535156 269.5 36.359375 C 269.070312 36.179688 268.664062 35.960938 268.28125 35.703125 C 267.894531 35.445312 267.539062 35.152344 267.210938 34.824219 C 266.882812 34.496094 266.589844 34.136719 266.332031 33.75 C 266.074219 33.363281 265.855469 32.957031 265.679688 32.527344 C 265.503906 32.097656 265.367188 31.652344 265.277344 31.199219 C 265.1875 30.742188 265.140625 30.28125 265.140625 29.816406 C 265.140625 29.351562 265.1875 28.890625 265.277344 28.433594 C 265.367188 27.976562 265.5 27.535156 265.679688 27.105469 C 265.855469 26.675781 266.074219 26.265625 266.332031 25.878906 C 266.589844 25.492188 266.878906 25.136719 267.207031 24.808594 C 267.535156 24.476562 267.890625 24.183594 268.277344 23.925781 C 268.664062 23.667969 269.070312 23.449219 269.496094 23.269531 C 269.925781 23.09375 270.367188 22.957031 270.820312 22.867188 C 271.277344 22.777344 271.734375 22.730469 272.199219 22.730469 C 272.660156 22.730469 273.121094 22.777344 273.574219 22.867188 C 274.027344 22.957031 274.46875 23.09375 274.898438 23.269531 C 275.328125 23.449219 275.734375 23.667969 276.117188 23.925781 C 276.503906 24.183594 276.859375 24.476562 277.1875 24.804688 C 277.515625 25.132812 277.808594 25.492188 278.066406 25.878906 C 278.324219 26.265625 278.542969 26.671875 278.71875 27.101562 C 278.894531 27.53125 279.03125 27.976562 279.121094 28.429688 C 279.210938 28.886719 279.257812 29.347656 279.257812 29.8125 C 279.257812 30.277344 279.210938 30.738281 279.121094 31.195312 C 279.03125 31.652344 278.898438 32.09375 278.71875 32.523438 C 278.542969 32.953125 278.324219 33.363281 278.066406 33.75 C 277.808594 34.136719 277.519531 34.492188 277.191406 34.820312 C 276.863281 35.152344 276.507812 35.445312 276.121094 35.703125 C 275.734375 35.960938 275.328125 36.179688 274.902344 36.359375 C 274.472656 36.535156 274.03125 36.671875 273.578125 36.761719 C 273.121094 36.851562 272.664062 36.898438 272.199219 36.898438 M 278.28125 81.578125 L 266.109375 81.578125 L 266.109375 42.269531 L 278.28125 42.269531 Z M 329.933594 11.398438 L 259.996094 11.398438 C 259.605469 11.394531 259.214844 11.425781 258.828125 11.5 C 258.441406 11.570312 258.066406 11.683594 257.699219 11.828125 C 257.335938 11.976562 256.988281 12.15625 256.660156 12.371094 C 256.332031 12.585938 256.023438 12.832031 255.742188 13.109375 C 255.460938 13.382812 255.210938 13.683594 254.988281 14.007812 C 254.765625 14.335938 254.578125 14.679688 254.421875 15.042969 C 254.269531 15.402344 254.152344 15.777344 254.070312 16.164062 C 253.988281 16.550781 253.945312 16.941406 253.941406 17.335938 L 253.941406 87.820312 C 253.945312 88.214844 253.988281 88.601562 254.070312 88.988281 C 254.148438 89.375 254.269531 89.75 254.421875 90.113281 C 254.578125 90.476562 254.765625 90.820312 254.988281 91.144531 C 255.210938 91.472656 255.460938 91.773438 255.742188 92.046875 C 256.023438 92.324219 256.328125 92.570312 256.660156 92.785156 C 256.988281 93 257.335938 93.183594 257.699219 93.328125 C 258.066406 93.476562 258.441406 93.585938 258.828125 93.660156 C 259.214844 93.730469 259.601562 93.765625 259.996094 93.761719 L 329.933594 93.761719 C 330.328125 93.765625 330.71875 93.734375 331.105469 93.660156 C 331.492188 93.589844 331.871094 93.480469 332.234375 93.332031 C 332.601562 93.1875 332.949219 93.003906 333.28125 92.789062 C 333.609375 92.574219 333.917969 92.328125 334.199219 92.054688 C 334.480469 91.777344 334.734375 91.476562 334.957031 91.148438 C 335.179688 90.824219 335.371094 90.480469 335.527344 90.117188 C 335.679688 89.753906 335.800781 89.378906 335.882812 88.992188 C 335.964844 88.605469 336.007812 88.214844 336.015625 87.820312 L 336.015625 17.328125 C 336.007812 16.933594 335.964844 16.542969 335.882812 16.15625 C 335.800781 15.769531 335.679688 15.394531 335.523438 15.03125 C 335.371094 14.667969 335.179688 14.324219 334.957031 14 C 334.734375 13.675781 334.480469 13.375 334.199219 13.097656 C 333.914062 12.824219 333.609375 12.578125 333.277344 12.363281 C 332.949219 12.148438 332.601562 11.964844 332.234375 11.820312 C 331.867188 11.671875 331.492188 11.5625 331.105469 11.492188 C 330.71875 11.421875 330.328125 11.386719 329.933594 11.390625 " fill-opacity="1" fill-rule="nonzero"/></g><g clip-path="url(#3be88fd4f3)"><path fill="#ffffff" d="M 345.355469 83.113281 C 345.109375 83.113281 344.867188 83.132812 344.625 83.167969 C 344.386719 83.199219 344.148438 83.25 343.910156 83.316406 C 343.675781 83.382812 343.445312 83.460938 343.222656 83.558594 C 343 83.652344 342.78125 83.761719 342.570312 83.886719 C 342.359375 84.011719 342.160156 84.148438 341.96875 84.296875 C 341.773438 84.449219 341.59375 84.609375 341.421875 84.785156 C 341.25 84.960938 341.089844 85.144531 340.945312 85.339844 C 340.796875 85.535156 340.664062 85.738281 340.542969 85.949219 C 340.421875 86.164062 340.316406 86.382812 340.222656 86.609375 C 340.132812 86.835938 340.054688 87.070312 339.992188 87.304688 C 339.933594 87.542969 339.886719 87.78125 339.855469 88.023438 C 339.824219 88.265625 339.808594 88.511719 339.8125 88.753906 C 339.8125 89 339.828125 89.242188 339.863281 89.484375 C 339.894531 89.730469 339.945312 89.96875 340.007812 90.203125 C 340.070312 90.441406 340.152344 90.671875 340.246094 90.898438 C 340.339844 91.121094 340.449219 91.339844 340.570312 91.550781 C 340.691406 91.765625 340.828125 91.964844 340.976562 92.160156 C 341.125 92.355469 341.285156 92.535156 341.460938 92.710938 C 341.632812 92.882812 341.816406 93.042969 342.007812 93.191406 C 342.203125 93.339844 342.40625 93.476562 342.617188 93.597656 C 342.828125 93.71875 343.046875 93.828125 343.273438 93.921875 C 343.496094 94.015625 343.726562 94.09375 343.964844 94.15625 C 344.199219 94.21875 344.4375 94.265625 344.679688 94.296875 C 344.921875 94.328125 345.164062 94.34375 345.40625 94.34375 C 345.652344 94.34375 345.894531 94.328125 346.136719 94.296875 C 346.378906 94.265625 346.617188 94.21875 346.851562 94.15625 C 347.085938 94.09375 347.316406 94.015625 347.542969 93.921875 C 347.769531 93.828125 347.988281 93.71875 348.199219 93.597656 C 348.410156 93.476562 348.613281 93.339844 348.804688 93.191406 C 349 93.042969 349.183594 92.882812 349.355469 92.710938 C 349.527344 92.539062 349.6875 92.355469 349.839844 92.160156 C 349.988281 91.964844 350.121094 91.765625 350.246094 91.550781 C 350.367188 91.339844 350.476562 91.121094 350.570312 90.898438 C 350.664062 90.671875 350.742188 90.441406 350.808594 90.203125 C 350.871094 89.96875 350.917969 89.730469 350.953125 89.484375 C 350.984375 89.242188 351.003906 89 351.003906 88.753906 C 351.003906 88.511719 350.992188 88.265625 350.960938 88.023438 C 350.929688 87.78125 350.882812 87.542969 350.820312 87.304688 C 350.761719 87.070312 350.683594 86.835938 350.589844 86.609375 C 350.5 86.382812 350.394531 86.164062 350.273438 85.953125 C 350.152344 85.738281 350.019531 85.535156 349.871094 85.339844 C 349.722656 85.144531 349.566406 84.960938 349.394531 84.785156 C 349.222656 84.609375 349.039062 84.449219 348.847656 84.296875 C 348.65625 84.148438 348.453125 84.011719 348.246094 83.886719 C 348.035156 83.761719 347.816406 83.652344 347.59375 83.558594 C 347.367188 83.460938 347.140625 83.382812 346.902344 83.316406 C 346.667969 83.25 346.429688 83.199219 346.1875 83.167969 C 345.949219 83.132812 345.707031 83.113281 345.460938 83.113281 L 345.355469 83.113281 M 345.355469 93.703125 C 345.03125 93.707031 344.710938 93.679688 344.394531 93.625 C 344.078125 93.566406 343.769531 93.476562 343.46875 93.359375 C 343.171875 93.238281 342.886719 93.09375 342.613281 92.917969 C 342.34375 92.742188 342.09375 92.542969 341.859375 92.316406 C 341.628906 92.09375 341.421875 91.847656 341.238281 91.582031 C 341.054688 91.316406 340.898438 91.035156 340.769531 90.738281 C 340.640625 90.441406 340.542969 90.136719 340.476562 89.820312 C 340.40625 89.503906 340.371094 89.183594 340.367188 88.859375 C 340.359375 88.535156 340.386719 88.214844 340.445312 87.898438 C 340.5 87.578125 340.589844 87.269531 340.707031 86.96875 C 340.824219 86.667969 340.972656 86.382812 341.148438 86.109375 C 341.320312 85.839844 341.519531 85.585938 341.746094 85.351562 C 341.96875 85.121094 342.214844 84.914062 342.476562 84.726562 C 342.742188 84.542969 343.023438 84.386719 343.320312 84.257812 C 343.613281 84.128906 343.917969 84.03125 344.234375 83.964844 C 344.550781 83.894531 344.867188 83.859375 345.191406 83.851562 C 345.511719 83.847656 345.832031 83.875 346.148438 83.929688 C 346.464844 83.988281 346.773438 84.078125 347.074219 84.195312 C 347.375 84.316406 347.660156 84.460938 347.929688 84.636719 C 348.199219 84.8125 348.453125 85.011719 348.683594 85.238281 C 348.914062 85.460938 349.121094 85.707031 349.304688 85.972656 C 349.488281 86.238281 349.644531 86.519531 349.773438 86.816406 C 349.902344 87.113281 350 87.421875 350.070312 87.738281 C 350.136719 88.050781 350.171875 88.371094 350.179688 88.695312 C 350.179688 88.722656 350.179688 88.75 350.179688 88.777344 C 350.183594 89.09375 350.160156 89.410156 350.105469 89.71875 C 350.050781 90.03125 349.96875 90.335938 349.851562 90.628906 C 349.738281 90.925781 349.597656 91.207031 349.425781 91.472656 C 349.257812 91.738281 349.0625 91.988281 348.847656 92.214844 C 348.628906 92.445312 348.390625 92.648438 348.132812 92.828125 C 347.871094 93.011719 347.597656 93.164062 347.3125 93.292969 C 347.023438 93.421875 346.722656 93.519531 346.417969 93.585938 C 346.109375 93.65625 345.796875 93.691406 345.480469 93.699219 L 345.355469 93.699219 " fill-opacity="1" fill-rule="nonzero"/></g></svg>