<svg xmlns="http://www.w3.org/2000/svg" xmlns:xlink="http://www.w3.org/1999/xlink" width="484" zoomAndPan="magnify" viewBox="0 0 363 105.749996" height="141" preserveAspectRatio="xMidYMid meet" version="1.0"><defs><clipPath id="0dea2b4242"><path d="M 295 21 L 352 21 L 352 98.5625 L 295 98.5625 Z M 295 21 " clip-rule="nonzero"/></clipPath><clipPath id="e848488508"><path d="M 239 41 L 294 41 L 294 98.5625 L 239 98.5625 Z M 239 41 " clip-rule="nonzero"/></clipPath><clipPath id="4bebfbe5d3"><path d="M 182 41 L 237 41 L 237 98.5625 L 182 98.5625 Z M 182 41 " clip-rule="nonzero"/></clipPath><clipPath id="b1f01f08f9"><path d="M 41 52 L 57 52 L 57 98.5625 L 41 98.5625 Z M 41 52 " clip-rule="nonzero"/></clipPath><clipPath id="d1acda731f"><path d="M 121 21 L 178 21 L 178 98.5625 L 121 98.5625 Z M 121 21 " clip-rule="nonzero"/></clipPath><clipPath id="7742d883cb"><path d="M 66 41 L 117 41 L 117 98.5625 L 66 98.5625 Z M 66 41 " clip-rule="nonzero"/></clipPath><clipPath id="758a1f6b9d"><path d="M 11 7.277344 L 75 7.277344 L 75 54 L 11 54 Z M 11 7.277344 " clip-rule="nonzero"/></clipPath></defs><g clip-path="url(#0dea2b4242)"><path fill="#ffffff" d="M 349.84375 23.0625 C 348.636719 21.699219 347.03125 21.015625 344.855469 21.015625 C 342.679688 21.015625 341.023438 21.742188 339.859375 23.238281 C 338.707031 24.683594 338.105469 26.855469 338.105469 29.710938 L 338.105469 50.355469 C 335.429688 47.453125 332.65625 45.371094 329.839844 43.96875 C 328.074219 43.109375 326.003906 42.480469 323.691406 42.160156 C 322.34375 41.976562 320.964844 41.886719 319.445312 41.886719 C 312.371094 41.886719 306.648438 44.332031 302.253906 49.21875 C 297.914062 54.109375 295.742188 60.902344 295.742188 69.632812 C 295.742188 73.757812 296.296875 77.601562 297.398438 81.136719 C 298.519531 84.671875 300.078125 87.746094 302.214844 90.375 C 304.339844 93.003906 306.875 94.988281 309.789062 96.441406 C 312.699219 97.84375 315.839844 98.5625 319.261719 98.5625 C 320.835938 98.5625 322.304688 98.433594 323.699219 98.164062 C 324.621094 98.019531 325.496094 97.796875 326.378906 97.523438 C 328.546875 96.804688 330.578125 95.761719 332.425781 94.453125 C 334.320312 93.089844 336.21875 91.328125 338.109375 89.199219 L 338.109375 90.554688 C 338.109375 93.136719 338.757812 95.078125 340.003906 96.480469 C 341.296875 97.84375 342.914062 98.5625 344.855469 98.5625 C 346.84375 98.5625 348.460938 97.890625 349.707031 96.578125 C 350.949219 95.21875 351.597656 93.230469 351.597656 90.554688 L 351.597656 28.992188 C 351.597656 26.410156 350.996094 24.414062 349.84375 23.0625 M 335.472656 80.007812 C 334.222656 82.636719 332.566406 84.582031 330.535156 85.847656 C 328.457031 87.117188 326.1875 87.746094 323.695312 87.746094 L 323.652344 87.746094 C 321.15625 87.746094 318.890625 87.070312 316.804688 85.757812 C 314.730469 84.402344 313.0625 82.40625 311.863281 79.785156 C 310.667969 77.113281 310.066406 73.898438 310.066406 70.097656 C 310.066406 66.519531 310.617188 63.351562 311.773438 60.683594 C 312.886719 57.964844 314.5 55.882812 316.535156 54.433594 C 318.609375 52.9375 320.921875 52.257812 323.554688 52.257812 L 323.691406 52.257812 C 326.140625 52.257812 328.402344 52.980469 330.484375 54.382812 C 332.558594 55.785156 334.21875 57.832031 335.472656 60.5 C 336.71875 63.171875 337.316406 66.382812 337.316406 70.097656 C 337.320312 74.074219 336.722656 77.386719 335.472656 80.007812 " fill-opacity="1" fill-rule="nonzero"/></g><g clip-path="url(#e848488508)"><path fill="#ffffff" d="M 291.351562 80.597656 C 290.484375 79.828125 289.277344 79.421875 287.796875 79.421875 C 286.457031 79.421875 285.441406 79.738281 284.703125 80.324219 C 282.902344 81.957031 281.472656 83.265625 280.359375 84.21875 C 279.253906 85.128906 278.007812 86.03125 276.664062 86.886719 C 275.375 87.699219 273.988281 88.339844 272.609375 88.703125 C 271.171875 89.105469 269.644531 89.285156 267.9375 89.285156 C 267.566406 89.285156 267.191406 89.285156 266.875 89.238281 C 264.75 89.105469 262.765625 88.511719 260.964844 87.425781 C 258.835938 86.207031 257.175781 84.398438 255.878906 82.046875 C 254.632812 79.597656 253.988281 76.792969 253.945312 73.628906 L 281.796875 73.628906 C 285.539062 73.628906 288.445312 73.078125 290.488281 72.082031 C 292.5625 70.996094 293.582031 68.734375 293.582031 65.25 C 293.582031 61.445312 292.5625 57.734375 290.578125 54.074219 C 288.589844 50.449219 285.632812 47.460938 281.613281 45.15625 C 277.632812 42.847656 272.878906 41.714844 267.292969 41.714844 L 266.875 41.714844 C 262.765625 41.757812 258.972656 42.441406 255.605469 43.707031 C 252.09375 45.066406 249.136719 47.011719 246.683594 49.5 C 244.335938 52.035156 242.484375 55.070312 241.238281 58.601562 C 239.996094 62.136719 239.34375 65.980469 239.34375 70.101562 C 239.34375 78.886719 241.886719 85.765625 246.964844 90.878906 C 251.765625 95.726562 258.421875 98.261719 266.875 98.527344 C 267.339844 98.570312 267.84375 98.570312 268.355469 98.570312 C 272.328125 98.570312 275.886719 98.078125 278.980469 97.039062 C 282.078125 95.996094 284.613281 94.722656 286.65625 93.191406 C 288.679688 91.601562 290.207031 89.980469 291.21875 88.296875 C 292.242188 86.625 292.746094 85.128906 292.746094 83.90625 C 292.742188 82.5 292.28125 81.367188 291.351562 80.597656 M 258.09375 55.019531 C 260.351562 52.621094 263.265625 51.441406 266.820312 51.441406 L 266.871094 51.441406 C 270.5625 51.441406 273.570312 52.621094 275.828125 54.972656 C 278.101562 57.324219 279.433594 60.90625 279.761719 65.703125 L 253.9375 65.703125 C 254.394531 60.992188 255.785156 57.414062 258.09375 55.019531 " fill-opacity="1" fill-rule="nonzero"/></g><g clip-path="url(#4bebfbe5d3)"><path fill="#ffffff" d="M 230.785156 79.417969 C 229.402344 79.417969 228.382812 79.734375 227.648438 80.324219 C 225.886719 81.953125 224.414062 83.265625 223.300781 84.214844 C 222.195312 85.125 220.992188 86.027344 219.652344 86.882812 C 218.316406 87.695312 216.972656 88.335938 215.542969 88.699219 C 214.15625 89.101562 212.582031 89.28125 210.875 89.28125 C 210.507812 89.28125 210.140625 89.28125 209.820312 89.234375 C 207.691406 89.101562 205.703125 88.507812 203.902344 87.421875 C 201.828125 86.203125 200.113281 84.398438 198.871094 82.042969 C 197.570312 79.597656 196.925781 76.792969 196.878906 73.625 L 224.785156 73.625 C 228.484375 73.625 231.390625 73.074219 233.472656 72.078125 C 235.511719 70.992188 236.519531 68.730469 236.519531 65.25 C 236.519531 61.445312 235.550781 57.730469 233.566406 54.070312 C 231.574219 50.445312 228.574219 47.457031 224.609375 45.152344 C 220.621094 42.84375 215.824219 41.710938 210.285156 41.710938 L 209.820312 41.710938 C 205.703125 41.757812 201.960938 42.4375 198.546875 43.703125 C 195.03125 45.0625 192.074219 47.007812 189.675781 49.496094 C 187.273438 52.03125 185.425781 55.066406 184.179688 58.597656 C 182.929688 62.132812 182.28125 65.976562 182.28125 70.097656 C 182.28125 78.882812 184.871094 85.761719 189.957031 90.875 C 194.753906 95.722656 201.367188 98.257812 209.820312 98.523438 C 210.324219 98.5625 210.78125 98.5625 211.296875 98.5625 C 215.3125 98.5625 218.828125 98.074219 221.910156 97.03125 C 225.007812 95.988281 227.554688 94.714844 229.582031 93.183594 C 231.660156 91.597656 233.140625 89.972656 234.160156 88.289062 C 235.179688 86.617188 235.683594 85.125 235.683594 83.898438 C 235.683594 82.5 235.222656 81.367188 234.351562 80.597656 C 233.425781 79.828125 232.21875 79.417969 230.785156 79.417969 M 201.039062 55.019531 C 203.296875 52.621094 206.203125 51.441406 209.769531 51.441406 L 209.820312 51.441406 C 213.511719 51.441406 216.515625 52.621094 218.78125 54.972656 C 221.089844 57.324219 222.382812 60.90625 222.753906 65.703125 L 196.878906 65.703125 C 197.386719 60.992188 198.773438 57.414062 201.039062 55.019531 " fill-opacity="1" fill-rule="nonzero"/></g><g clip-path="url(#b1f01f08f9)"><path fill="#ffffff" d="M 41.230469 89.285156 L 41.230469 55.96875 C 42.199219 56.054688 43.125 56.101562 44.09375 56.101562 C 48.710938 56.101562 53.058594 54.878906 56.753906 52.707031 L 56.753906 89.28125 C 56.753906 92.40625 56.011719 94.714844 54.582031 96.257812 C 53.15625 97.792969 51.253906 98.558594 48.945312 98.558594 C 46.679688 98.558594 44.878906 97.792969 43.398438 96.210938 C 41.972656 94.675781 41.230469 92.359375 41.230469 89.285156 " fill-opacity="1" fill-rule="nonzero"/></g><g clip-path="url(#d1acda731f)"><path fill="#ffffff" d="M 175.441406 23.0625 C 174.234375 21.699219 172.578125 21.015625 170.496094 21.015625 C 168.328125 21.015625 166.660156 21.742188 165.503906 23.238281 C 164.308594 24.683594 163.75 26.855469 163.75 29.710938 L 163.75 50.355469 C 161.070312 47.453125 158.296875 45.371094 155.480469 43.96875 C 153.683594 43.109375 151.648438 42.480469 149.339844 42.160156 C 148 41.976562 146.609375 41.886719 145.089844 41.886719 C 138.019531 41.886719 132.242188 44.332031 127.90625 49.21875 C 123.5625 54.109375 121.386719 60.902344 121.386719 69.632812 C 121.386719 73.757812 121.945312 77.601562 123 81.136719 C 124.113281 84.667969 125.730469 87.742188 127.859375 90.375 C 129.984375 93.003906 132.523438 94.988281 135.441406 96.441406 C 138.347656 97.839844 141.488281 98.558594 144.902344 98.558594 C 146.425781 98.558594 147.910156 98.429688 149.339844 98.160156 C 150.261719 98.019531 151.144531 97.792969 152.019531 97.519531 C 154.191406 96.800781 156.222656 95.757812 158.070312 94.449219 C 159.964844 93.085938 161.816406 91.324219 163.75 89.195312 L 163.75 90.550781 C 163.75 93.136719 164.398438 95.078125 165.648438 96.480469 C 166.894531 97.84375 168.554688 98.5625 170.496094 98.5625 C 172.386719 98.5625 174.054688 97.890625 175.308594 96.578125 C 176.550781 95.21875 177.152344 93.230469 177.152344 90.554688 L 177.152344 28.992188 C 177.148438 26.410156 176.601562 24.414062 175.441406 23.0625 M 161.113281 80.007812 C 159.871094 82.636719 158.207031 84.582031 156.132812 85.847656 C 154.09375 87.117188 151.785156 87.746094 149.339844 87.746094 L 149.289062 87.746094 C 146.800781 87.746094 144.53125 87.070312 142.453125 85.757812 C 140.328125 84.402344 138.707031 82.40625 137.503906 79.785156 C 136.308594 77.113281 135.707031 73.898438 135.707031 70.097656 C 135.707031 66.519531 136.265625 63.351562 137.367188 60.683594 C 138.523438 57.964844 140.09375 55.882812 142.171875 54.433594 C 144.210938 52.9375 146.558594 52.257812 149.152344 52.257812 L 149.335938 52.257812 C 151.78125 52.257812 154.042969 52.980469 156.078125 54.382812 C 158.203125 55.785156 159.871094 57.832031 161.109375 60.5 C 162.3125 63.171875 162.964844 66.382812 162.964844 70.097656 C 162.96875 74.074219 162.3125 77.386719 161.113281 80.007812 " fill-opacity="1" fill-rule="nonzero"/></g><g clip-path="url(#7742d883cb)"><path fill="#ffffff" d="M 79.53125 49.496094 L 79.53125 51.21875 C 82.070312 47.957031 84.796875 45.601562 87.753906 44.0625 C 90.757812 42.570312 94.175781 41.796875 98.054688 41.796875 C 101.800781 41.796875 105.167969 42.613281 108.128906 44.199219 C 111.085938 45.78125 113.253906 48.046875 114.734375 50.992188 C 115.707031 52.707031 116.304688 54.566406 116.582031 56.558594 C 116.859375 58.503906 116.996094 61.035156 116.996094 64.117188 L 116.996094 90.0625 C 116.996094 92.867188 116.304688 94.988281 115.011719 96.394531 C 113.71875 97.84375 112.003906 98.5625 109.925781 98.5625 C 107.804688 98.5625 106.097656 97.84375 104.753906 96.347656 C 103.414062 94.898438 102.773438 92.777344 102.773438 90.0625 L 102.773438 66.832031 C 102.773438 62.21875 102.121094 58.6875 100.828125 56.238281 C 99.535156 53.796875 96.898438 52.570312 93.023438 52.570312 C 90.480469 52.570312 88.167969 53.347656 86.089844 54.789062 C 84.015625 56.285156 82.441406 58.316406 81.46875 60.945312 C 80.777344 63.03125 80.449219 66.875 80.449219 72.628906 L 80.449219 90.0625 C 80.449219 92.910156 79.765625 94.988281 78.425781 96.445312 C 77.082031 97.84375 75.375 98.5625 73.25 98.5625 C 71.175781 98.5625 69.503906 97.84375 68.164062 96.347656 C 66.824219 94.898438 66.175781 92.777344 66.175781 90.0625 L 66.175781 49.722656 C 66.175781 47.054688 66.777344 45.0625 67.980469 43.796875 C 69.136719 42.484375 70.75 41.800781 72.832031 41.800781 C 74.082031 41.800781 75.1875 42.070312 76.199219 42.667969 C 77.222656 43.25 78.050781 44.113281 78.652344 45.289062 C 79.25 46.457031 79.53125 47.867188 79.53125 49.496094 " fill-opacity="1" fill-rule="nonzero"/></g><g clip-path="url(#758a1f6b9d)"><path fill="#ffffff" d="M 41.316406 9.4375 C 50.929688 6.039062 61.878906 6.21875 70.101562 13.191406 C 71.628906 14.59375 73.382812 16.359375 74.074219 18.441406 C 74.90625 21.066406 71.167969 18.164062 70.652344 17.808594 C 67.972656 16.085938 65.296875 14.640625 62.296875 13.640625 C 46.125 8.753906 30.828125 17.582031 21.316406 31.296875 C 17.34375 37.363281 14.753906 43.742188 12.628906 50.761719 C 12.398438 51.535156 12.214844 52.53125 11.792969 53.203125 C 11.375 53.980469 11.609375 51.128906 11.609375 51.035156 C 11.925781 48.140625 12.53125 45.332031 13.273438 42.523438 C 17.667969 27.582031 27.367188 15.136719 41.316406 9.4375 " fill-opacity="1" fill-rule="nonzero"/></g><path fill="#ffffff" d="M 53.84375 46.503906 C 48.066406 49.402344 40.996094 47.144531 38.085938 41.484375 C 35.125 35.824219 37.441406 28.898438 43.210938 26.046875 C 48.988281 23.148438 56.0625 25.410156 58.96875 31.074219 C 61.929688 36.734375 59.621094 43.65625 53.84375 46.503906 " fill-opacity="1" fill-rule="nonzero"/></svg>