<svg xmlns="http://www.w3.org/2000/svg" xmlns:xlink="http://www.w3.org/1999/xlink" width="484" zoomAndPan="magnify" viewBox="0 0 363 105.749996" height="141" preserveAspectRatio="xMidYMid meet" version="1.0"><defs><clipPath id="dfe9365903"><path d="M 7 45 L 27 45 L 27 94.941406 L 7 94.941406 Z M 7 45 " clip-rule="nonzero"/></clipPath><clipPath id="4d2be0f425"><path d="M 321 44 L 357.273438 44 L 357.273438 94.941406 L 321 94.941406 Z M 321 44 " clip-rule="nonzero"/></clipPath><clipPath id="3b710e9f34"><path d="M 5.722656 11.183594 L 43 11.183594 L 43 41 L 5.722656 41 Z M 5.722656 11.183594 " clip-rule="nonzero"/></clipPath></defs><g clip-path="url(#dfe9365903)"><path fill="#ffffff" d="M 15.382812 45.496094 L 26.390625 45.496094 L 26.390625 81.136719 C 26.390625 90.617188 22.207031 94.890625 15.507812 94.890625 C 12.472656 94.890625 9.195312 94.03125 7.1875 93 L 7.1875 84.402344 C 7.777344 84.796875 9.609375 85.972656 11.738281 85.972656 C 14.871094 85.972656 15.359375 83.445312 15.359375 79.785156 L 15.359375 45.496094 Z M 15.382812 45.496094 " fill-opacity="1" fill-rule="nonzero"/></g><path fill="#ffffff" d="M 67.488281 60.96875 C 67.488281 70.820312 59.808594 77.964844 49.753906 77.964844 C 39.699219 77.964844 32.1875 70.820312 32.1875 60.894531 C 32.1875 50.972656 39.871094 44.023438 49.800781 44.023438 C 59.734375 44.023438 67.488281 51.171875 67.488281 60.96875 Z M 56.480469 60.96875 C 56.480469 57.089844 53.789062 53.894531 49.851562 53.894531 C 45.914062 53.894531 43.171875 57.066406 43.171875 60.921875 C 43.171875 64.777344 45.863281 68.09375 49.851562 68.09375 C 53.839844 68.09375 56.480469 64.925781 56.480469 60.96875 Z M 56.480469 60.96875 " fill-opacity="1" fill-rule="nonzero"/><path fill="#ffffff" d="M 110.027344 60.996094 C 110.027344 67.75 105.773438 77.96875 95.105469 77.96875 C 87.230469 77.96875 84.097656 70.769531 84.097656 70.769531 L 84.097656 76.8125 L 73.921875 76.8125 L 73.921875 21.597656 L 84.929688 21.597656 L 84.929688 50.433594 C 85.078125 50.140625 88.453125 44.023438 95.597656 44.023438 C 104.988281 44.023438 110.054688 52.375 110.054688 60.996094 Z M 99.019531 60.996094 C 99.019531 57.285156 96.160156 54.265625 92.246094 54.265625 C 88.332031 54.265625 85.175781 57.65625 85.175781 60.996094 C 85.175781 64.628906 88.011719 67.75 92.246094 67.75 C 96.230469 67.75 99.019531 64.703125 99.019531 60.996094 Z M 99.019531 60.996094 " fill-opacity="1" fill-rule="nonzero"/><path fill="#ffffff" d="M 137.15625 53.257812 L 130.480469 53.257812 L 130.480469 76.863281 L 119.472656 76.863281 L 119.472656 53.257812 L 114.433594 53.257812 L 114.433594 45.25 L 119.742188 45.25 L 119.742188 37.390625 L 130.457031 34.691406 L 130.457031 45.25 L 137.132812 45.25 L 137.132812 53.257812 Z M 137.15625 53.257812 " fill-opacity="1" fill-rule="nonzero"/><path fill="#ffffff" d="M 176.46875 62.617188 L 151.882812 62.617188 C 151.882812 65.832031 154.796875 69.273438 159.050781 69.273438 C 163.699219 69.273438 164.875 65.929688 164.875 65.929688 L 175.613281 65.929688 C 175.613281 65.929688 172.382812 77.964844 158.832031 77.964844 C 146.96875 77.964844 141.21875 69.273438 141.21875 60.996094 C 141.21875 52.71875 147.503906 44.023438 158.757812 44.023438 C 170.011719 44.023438 176.46875 52.054688 176.46875 62.617188 Z M 152.226562 57.308594 L 165.363281 57.308594 C 165.363281 57.308594 164.042969 52.203125 158.808594 52.203125 C 153.570312 52.203125 152.226562 57.308594 152.226562 57.308594 Z M 152.226562 57.308594 " fill-opacity="1" fill-rule="nonzero"/><path fill="#ffffff" d="M 210.351562 67.703125 C 210.351562 72.023438 207.292969 77.96875 196.234375 77.96875 C 185.179688 77.96875 181.53125 71.1875 181.53125 67.257812 L 192.542969 67.257812 C 192.542969 67.773438 193.667969 69.960938 196.308594 69.960938 C 197.824219 69.960938 199.367188 69.273438 199.367188 67.726562 C 199.367188 63.402344 181.898438 65.21875 181.898438 54.316406 C 181.898438 48.222656 188.308594 44.046875 195.671875 44.046875 C 204.992188 44.046875 209.542969 49.746094 209.542969 54.90625 L 198.535156 54.90625 C 198.535156 52.914062 196.75 52.105469 195.550781 52.105469 C 194.523438 52.105469 192.882812 52.570312 192.882812 54.117188 C 192.882812 58.492188 210.351562 56.722656 210.351562 67.773438 Z M 210.351562 67.703125 " fill-opacity="1" fill-rule="nonzero"/><path fill="#ffffff" d="M 237.527344 53.257812 L 230.847656 53.257812 L 230.847656 76.863281 L 219.839844 76.863281 L 219.839844 53.257812 L 214.800781 53.257812 L 214.800781 45.25 L 220.109375 45.25 L 220.109375 37.390625 L 230.824219 34.691406 L 230.824219 45.25 L 237.503906 45.25 L 237.503906 53.257812 Z M 237.527344 53.257812 " fill-opacity="1" fill-rule="nonzero"/><path fill="#ffffff" d="M 240.023438 65.636719 L 250.933594 65.636719 L 250.933594 76.863281 L 240.023438 76.863281 Z M 240.023438 65.636719 " fill-opacity="1" fill-rule="nonzero"/><path fill="#ffffff" d="M 291.050781 60.96875 C 291.050781 70.820312 283.371094 77.964844 273.316406 77.964844 C 263.261719 77.964844 255.753906 70.820312 255.753906 60.894531 C 255.753906 50.972656 263.433594 44.023438 273.367188 44.023438 C 283.296875 44.023438 291.050781 51.171875 291.050781 60.96875 Z M 280.042969 60.96875 C 280.042969 57.089844 277.351562 53.894531 273.414062 53.894531 C 269.476562 53.894531 266.734375 57.066406 266.734375 60.921875 C 266.734375 64.777344 269.425781 68.09375 273.414062 68.09375 C 277.402344 68.09375 280.042969 64.925781 280.042969 60.96875 Z M 280.042969 60.96875 " fill-opacity="1" fill-rule="nonzero"/><path fill="#ffffff" d="M 319.429688 59.398438 L 318.328125 59.398438 C 312.675781 52.105469 308.421875 51.980469 308.421875 58.90625 L 308.421875 76.863281 L 297.484375 76.863281 L 297.484375 45.25 L 306.585938 45.25 L 308.421875 49.132812 C 309.007812 47.804688 311.40625 45.25 316.371094 45.25 L 319.429688 45.25 Z M 319.429688 59.398438 " fill-opacity="1" fill-rule="nonzero"/><g clip-path="url(#4d2be0f425)"><path fill="#ffffff" d="M 357.273438 45.519531 L 357.273438 71.039062 C 357.273438 87.472656 348.171875 96.90625 331.585938 94.59375 L 331.902344 83.863281 C 337.261719 85.972656 346.949219 85.457031 346.949219 72.785156 L 346.949219 71.777344 C 346.949219 71.777344 344.183594 78.3125 336.480469 78.3125 C 325.59375 78.3125 321.824219 67.527344 321.824219 61.339844 C 321.824219 53.210938 326.351562 44.367188 336.28125 44.367188 C 343.574219 44.367188 346.386719 50.726562 346.386719 50.726562 L 346.386719 45.546875 L 357.273438 45.546875 Z M 346.386719 61.339844 C 346.386719 58.269531 344.160156 54.609375 339.609375 54.609375 C 335.890625 54.609375 332.835938 57.335938 332.835938 61.339844 C 332.835938 65.34375 335.621094 68.070312 339.609375 68.070312 C 344.039062 68.070312 346.386719 64.558594 346.386719 61.339844 Z M 346.386719 61.339844 " fill-opacity="1" fill-rule="nonzero"/></g><g clip-path="url(#3b710e9f34)"><path fill="#ffffff" d="M 20.25 40.78125 L 5.722656 26.191406 L 12.644531 19.242188 L 20.25 26.878906 L 35.882812 11.183594 L 42.804688 18.136719 Z M 20.25 40.78125 " fill-opacity="1" fill-rule="nonzero"/></g></svg>