<svg xmlns="http://www.w3.org/2000/svg" xmlns:xlink="http://www.w3.org/1999/xlink" width="484" zoomAndPan="magnify" viewBox="0 0 363 105.749996" height="141" preserveAspectRatio="xMidYMid meet" version="1.0"><defs><clipPath id="be07115b54"><path d="M 281 28 L 311.757812 28 L 311.757812 76 L 281 76 Z M 281 28 " clip-rule="nonzero"/></clipPath><clipPath id="2b4335a7aa"><path d="M 288 83 L 311.757812 83 L 311.757812 98 L 288 98 Z M 288 83 " clip-rule="nonzero"/></clipPath><clipPath id="df47f6ed14"><path d="M 281 28 L 311.757812 28 L 311.757812 76 L 281 76 Z M 281 28 " clip-rule="nonzero"/></clipPath><clipPath id="c1271d9ef2"><path d="M 51.375 35 L 76 35 L 76 54 L 51.375 54 Z M 51.375 35 " clip-rule="nonzero"/></clipPath><clipPath id="45bcad4476"><path d="M 51.375 50 L 76 50 L 76 75 L 51.375 75 Z M 51.375 50 " clip-rule="nonzero"/></clipPath><clipPath id="669522273a"><path d="M 51.375 7.640625 L 76 7.640625 L 76 33 L 51.375 33 Z M 51.375 7.640625 " clip-rule="nonzero"/></clipPath></defs><path fill="#ffffff" d="M 96.019531 22.757812 C 95.328125 22.757812 94.738281 22.859375 94.148438 23.15625 C 93.554688 23.351562 92.964844 23.746094 92.570312 24.242188 C 92.078125 24.738281 91.78125 25.230469 91.484375 25.824219 C 91.289062 26.417969 91.089844 27.109375 91.089844 27.703125 C 91.191406 28.988281 91.78125 30.074219 92.667969 30.964844 C 93.554688 31.851562 94.738281 32.25 96.019531 32.25 C 97.300781 32.25 98.484375 31.753906 99.371094 30.964844 C 100.257812 30.171875 100.847656 28.988281 100.949219 27.703125 C 100.949219 27.011719 100.847656 26.417969 100.554688 25.824219 C 100.355469 25.230469 99.960938 24.636719 99.46875 24.242188 C 98.976562 23.746094 98.484375 23.453125 97.890625 23.15625 C 97.398438 22.859375 96.710938 22.757812 96.019531 22.757812 " fill-opacity="1" fill-rule="evenodd"/><path fill="#ffffff" d="M 92.472656 39.5625 L 99.667969 39.5625 L 99.667969 74.753906 L 92.472656 74.753906 Z M 92.472656 39.5625 " fill-opacity="1" fill-rule="nonzero"/><path fill="#ffffff" d="M 133.667969 44.902344 C 136.230469 41.046875 140.664062 38.871094 146.085938 38.871094 C 154.855469 38.871094 160.769531 44.605469 160.671875 53.105469 L 160.671875 74.753906 L 153.378906 74.753906 L 153.378906 54.984375 C 153.378906 49.25 150.324219 45.988281 145 45.988281 C 139.679688 45.988281 135.933594 49.746094 135.933594 55.179688 L 135.933594 74.753906 L 128.542969 74.753906 L 128.542969 54.984375 C 128.542969 49.25 125.488281 45.988281 120.164062 45.988281 C 114.84375 45.988281 111.097656 49.746094 111.097656 55.179688 L 111.097656 74.753906 L 103.804688 74.753906 L 103.804688 39.5625 L 111.195312 39.5625 L 111.195312 42.628906 C 114.546875 39.367188 118.882812 38.871094 121.347656 38.871094 C 126.769531 38.871094 131.105469 41.046875 133.667969 44.902344 " fill-opacity="1" fill-rule="evenodd"/><path fill="#ffffff" d="M 183.242188 38.871094 C 178.90625 38.871094 175.160156 40.253906 172.203125 42.824219 L 172.203125 39.5625 L 164.910156 39.5625 L 164.910156 88.589844 L 172.203125 88.589844 L 172.203125 71.195312 C 175.0625 73.863281 178.804688 75.148438 183.242188 75.148438 C 193.195312 75.148438 200.6875 67.339844 200.6875 56.960938 C 200.785156 46.679688 193.195312 38.871094 183.242188 38.871094 M 182.648438 68.230469 C 176.441406 68.230469 172.007812 63.484375 172.007812 57.058594 C 172.007812 50.632812 176.441406 45.890625 182.648438 45.890625 C 188.859375 45.890625 193.292969 50.535156 193.292969 57.058594 C 193.292969 63.582031 188.761719 68.230469 182.648438 68.230469 " fill-opacity="1" fill-rule="evenodd"/><g clip-path="url(#be07115b54)"><path fill="#ffffff" d="M 301.015625 68.328125 C 303.085938 68.328125 305.351562 67.539062 307.324219 66.152344 L 308.011719 65.757812 L 311.5625 71.390625 L 310.96875 71.886719 C 307.914062 74.160156 304.269531 75.347656 300.523438 75.347656 C 292.636719 75.347656 288.203125 70.601562 288.203125 62 L 288.203125 46.382812 L 281.105469 46.382812 L 281.105469 39.5625 L 288.203125 39.5625 L 288.203125 28.988281 L 295.59375 28.988281 L 295.59375 39.5625 L 309.589844 39.5625 L 309.589844 46.382812 L 295.59375 46.382812 L 295.59375 61.902344 C 295.59375 66.054688 297.566406 68.328125 301.015625 68.328125 " fill-opacity="1" fill-rule="evenodd"/></g><path fill="#ffffff" d="M 247.5 93.433594 C 247.007812 93.433594 246.613281 93.535156 246.21875 93.832031 C 245.824219 94.128906 245.527344 94.421875 245.429688 94.820312 C 245.234375 95.214844 245.234375 95.707031 245.332031 96.105469 C 245.429688 96.5 245.628906 96.992188 245.921875 97.289062 C 246.21875 97.585938 246.613281 97.785156 247.105469 97.882812 C 247.5 97.980469 247.992188 97.882812 248.386719 97.785156 C 248.78125 97.585938 249.175781 97.289062 249.371094 96.992188 C 249.667969 96.597656 249.765625 96.203125 249.765625 95.707031 C 249.765625 95.117188 249.570312 94.523438 249.078125 94.128906 C 248.582031 93.730469 248.089844 93.433594 247.5 93.433594 " fill-opacity="1" fill-rule="evenodd"/><path fill="#ffffff" d="M 259.917969 83.054688 C 262.085938 83.054688 263.957031 83.847656 265.238281 85.328125 L 265.339844 85.527344 L 263.464844 87.503906 L 263.269531 87.308594 C 262.875 86.8125 262.28125 86.417969 261.691406 86.21875 C 261.101562 85.921875 260.410156 85.824219 259.820312 85.824219 C 257.257812 85.824219 255.382812 87.800781 255.382812 90.570312 C 255.382812 93.238281 257.257812 95.3125 259.820312 95.3125 C 261.101562 95.3125 262.382812 94.71875 263.269531 93.832031 L 263.464844 93.632812 L 265.238281 95.609375 L 265.140625 95.707031 C 263.859375 97.191406 261.988281 97.882812 259.820312 97.882812 C 255.582031 97.882812 252.425781 94.820312 252.425781 90.46875 C 252.527344 86.121094 255.679688 83.054688 259.917969 83.054688 " fill-opacity="1" fill-rule="evenodd"/><path fill="#ffffff" d="M 276.871094 83.054688 C 272.53125 83.054688 269.28125 86.21875 269.28125 90.46875 C 269.28125 94.71875 272.53125 97.882812 276.871094 97.882812 C 281.207031 97.882812 284.359375 94.71875 284.359375 90.46875 C 284.359375 86.21875 281.207031 83.054688 276.871094 83.054688 M 276.871094 95.214844 C 274.207031 95.214844 272.238281 93.238281 272.238281 90.46875 C 272.238281 87.703125 274.207031 85.726562 276.871094 85.726562 C 279.53125 85.726562 281.5 87.703125 281.5 90.46875 C 281.5 93.140625 279.53125 95.214844 276.871094 95.214844 " fill-opacity="1" fill-rule="evenodd"/><g clip-path="url(#2b4335a7aa)"><path fill="#ffffff" d="M 308.898438 89.480469 C 308.898438 87.109375 307.617188 85.726562 305.351562 85.726562 C 303.085938 85.726562 301.507812 87.308594 301.410156 89.582031 L 301.410156 97.882812 L 298.550781 97.882812 L 298.550781 89.480469 C 298.550781 87.109375 297.269531 85.726562 295.003906 85.726562 C 293.230469 85.726562 291.160156 86.910156 291.160156 89.582031 L 291.160156 97.882812 L 288.300781 97.882812 L 288.300781 83.351562 L 291.160156 83.351562 L 291.160156 84.636719 L 291.949219 84.144531 C 293.03125 83.453125 294.214844 83.15625 295.496094 83.15625 C 297.46875 83.15625 299.144531 83.847656 300.226562 85.132812 L 300.621094 85.527344 L 301.015625 85.132812 C 302.101562 83.847656 303.773438 83.15625 305.746094 83.15625 C 309.292969 83.15625 311.757812 85.527344 311.757812 88.886719 L 311.757812 97.980469 L 308.898438 97.980469 Z M 308.898438 89.480469 " fill-opacity="1" fill-rule="evenodd"/></g><path fill="#ffffff" d="M 233.40625 39.5625 L 233.40625 42.824219 C 230.546875 40.253906 226.804688 38.871094 222.464844 38.871094 C 212.511719 38.871094 205.023438 46.679688 205.023438 57.160156 C 205.023438 67.539062 212.511719 75.445312 222.464844 75.445312 C 226.804688 75.445312 230.546875 74.0625 233.40625 71.390625 L 233.40625 74.753906 L 240.796875 74.753906 L 240.796875 39.5625 Z M 223.15625 68.425781 C 216.949219 68.425781 212.414062 63.683594 212.414062 57.160156 C 212.414062 50.734375 216.847656 45.890625 223.15625 45.890625 C 229.367188 45.890625 233.800781 50.632812 233.800781 57.160156 C 233.800781 63.683594 229.367188 68.425781 223.15625 68.425781 " fill-opacity="1" fill-rule="evenodd"/><path fill="#ffffff" d="M 263.171875 45.890625 C 266.324219 45.890625 269.082031 47.074219 271.546875 49.449219 L 272.140625 50.042969 L 276.96875 45 L 276.476562 44.40625 C 273.320312 40.847656 268.6875 38.871094 263.367188 38.871094 C 252.820312 38.871094 245.132812 46.582031 245.132812 57.160156 C 245.132812 67.734375 252.820312 75.445312 263.367188 75.445312 C 268.589844 75.445312 273.320312 73.46875 276.476562 69.910156 L 276.96875 69.414062 L 272.335938 64.273438 L 271.746094 64.867188 C 269.28125 67.242188 266.324219 68.527344 263.269531 68.527344 C 257.160156 68.527344 252.722656 63.78125 252.722656 57.257812 C 252.722656 50.734375 256.960938 45.890625 263.171875 45.890625 " fill-opacity="1" fill-rule="evenodd"/><path fill="#ffffff" d="M 92.472656 39.5625 L 99.667969 39.5625 L 99.667969 74.753906 L 92.472656 74.753906 Z M 92.472656 39.5625 " fill-opacity="1" fill-rule="nonzero"/><path fill="#ffffff" d="M 133.667969 44.902344 C 136.230469 41.046875 140.664062 38.871094 146.085938 38.871094 C 154.855469 38.871094 160.769531 44.605469 160.671875 53.105469 L 160.671875 74.753906 L 153.378906 74.753906 L 153.378906 54.984375 C 153.378906 49.25 150.324219 45.988281 145 45.988281 C 139.679688 45.988281 135.933594 49.746094 135.933594 55.179688 L 135.933594 74.753906 L 128.542969 74.753906 L 128.542969 54.984375 C 128.542969 49.25 125.488281 45.988281 120.164062 45.988281 C 114.84375 45.988281 111.097656 49.746094 111.097656 55.179688 L 111.097656 74.753906 L 103.804688 74.753906 L 103.804688 39.5625 L 111.195312 39.5625 L 111.195312 42.628906 C 114.546875 39.367188 118.882812 38.871094 121.347656 38.871094 C 126.769531 38.871094 131.105469 41.046875 133.667969 44.902344 " fill-opacity="1" fill-rule="evenodd"/><path fill="#ffffff" d="M 183.242188 38.871094 C 178.90625 38.871094 175.160156 40.253906 172.203125 42.824219 L 172.203125 39.5625 L 164.910156 39.5625 L 164.910156 88.589844 L 172.203125 88.589844 L 172.203125 71.195312 C 175.0625 73.863281 178.804688 75.148438 183.242188 75.148438 C 193.195312 75.148438 200.6875 67.339844 200.6875 56.960938 C 200.785156 46.679688 193.195312 38.871094 183.242188 38.871094 M 182.648438 68.230469 C 176.441406 68.230469 172.007812 63.484375 172.007812 57.058594 C 172.007812 50.632812 176.441406 45.890625 182.648438 45.890625 C 188.859375 45.890625 193.292969 50.535156 193.292969 57.058594 C 193.292969 63.582031 188.761719 68.230469 182.648438 68.230469 " fill-opacity="1" fill-rule="evenodd"/><g clip-path="url(#df47f6ed14)"><path fill="#ffffff" d="M 301.015625 68.328125 C 303.085938 68.328125 305.351562 67.539062 307.324219 66.152344 L 308.011719 65.757812 L 311.5625 71.390625 L 310.96875 71.886719 C 307.914062 74.160156 304.269531 75.347656 300.523438 75.347656 C 292.636719 75.347656 288.203125 70.601562 288.203125 62 L 288.203125 46.382812 L 281.105469 46.382812 L 281.105469 39.5625 L 288.203125 39.5625 L 288.203125 28.988281 L 295.59375 28.988281 L 295.59375 39.5625 L 309.589844 39.5625 L 309.589844 46.382812 L 295.59375 46.382812 L 295.59375 61.902344 C 295.59375 66.054688 297.566406 68.328125 301.015625 68.328125 " fill-opacity="1" fill-rule="evenodd"/></g><path fill="#ffffff" d="M 233.40625 39.5625 L 233.40625 42.824219 C 230.546875 40.253906 226.804688 38.871094 222.464844 38.871094 C 212.511719 38.871094 205.023438 46.679688 205.023438 57.160156 C 205.023438 67.539062 212.511719 75.445312 222.464844 75.445312 C 226.804688 75.445312 230.546875 74.0625 233.40625 71.390625 L 233.40625 74.753906 L 240.796875 74.753906 L 240.796875 39.5625 Z M 223.15625 68.425781 C 216.949219 68.425781 212.414062 63.683594 212.414062 57.160156 C 212.414062 50.734375 216.847656 45.890625 223.15625 45.890625 C 229.367188 45.890625 233.800781 50.632812 233.800781 57.160156 C 233.800781 63.683594 229.367188 68.425781 223.15625 68.425781 " fill-opacity="1" fill-rule="evenodd"/><path fill="#ffffff" d="M 263.171875 45.890625 C 266.324219 45.890625 269.082031 47.074219 271.546875 49.449219 L 272.140625 50.042969 L 276.96875 45 L 276.476562 44.40625 C 273.320312 40.847656 268.6875 38.871094 263.367188 38.871094 C 252.820312 38.871094 245.132812 46.582031 245.132812 57.160156 C 245.132812 67.734375 252.820312 75.445312 263.367188 75.445312 C 268.589844 75.445312 273.320312 73.46875 276.476562 69.910156 L 276.96875 69.414062 L 272.335938 64.273438 L 271.746094 64.867188 C 269.28125 67.242188 266.324219 68.527344 263.269531 68.527344 C 257.160156 68.527344 252.722656 63.78125 252.722656 57.257812 C 252.722656 50.734375 256.960938 45.890625 263.171875 45.890625 " fill-opacity="1" fill-rule="evenodd"/><g clip-path="url(#c1271d9ef2)"><path fill="#ffffff" d="M 63.691406 47.964844 C 65.863281 47.964844 67.929688 48.460938 69.804688 49.347656 C 71.773438 50.238281 73.449219 51.523438 74.828125 53.105469 C 75.519531 51.523438 75.914062 49.746094 75.914062 47.964844 C 75.914062 46.382812 75.617188 44.800781 74.929688 43.320312 C 74.335938 41.835938 73.449219 40.453125 72.269531 39.367188 C 71.085938 38.277344 69.804688 37.289062 68.324219 36.695312 C 66.847656 36.105469 65.269531 35.808594 63.59375 35.808594 C 62.019531 35.808594 60.34375 36.105469 58.863281 36.695312 C 57.386719 37.289062 56.007812 38.179688 54.921875 39.367188 C 53.738281 40.453125 52.851562 41.835938 52.261719 43.320312 C 51.667969 44.703125 51.375 46.285156 51.375 47.964844 C 51.375 49.746094 51.769531 51.523438 52.457031 53.105469 C 53.835938 51.523438 55.511719 50.140625 57.484375 49.25 C 59.457031 48.359375 61.523438 47.964844 63.691406 47.964844 " fill-opacity="1" fill-rule="nonzero"/></g><g clip-path="url(#45bcad4476)"><path fill="#ffffff" d="M 75.914062 62.496094 C 75.914062 60.125 75.222656 57.75 73.84375 55.675781 C 72.464844 53.699219 70.59375 52.117188 68.324219 51.128906 C 66.15625 50.335938 63.691406 50.042969 61.230469 50.535156 C 58.863281 51.03125 56.695312 52.214844 54.921875 53.894531 C 53.246094 55.578125 52.0625 57.75 51.570312 60.125 C 51.078125 62.496094 51.375 64.96875 52.261719 67.140625 C 53.148438 69.414062 54.726562 71.292969 56.792969 72.578125 C 58.863281 73.960938 61.230469 74.652344 63.59375 74.652344 C 66.847656 74.652344 70 73.371094 72.269531 71.097656 C 74.632812 68.824219 75.914062 65.757812 75.914062 62.496094 " fill-opacity="1" fill-rule="nonzero"/></g><g clip-path="url(#669522273a)"><path fill="#ffffff" d="M 75.914062 20.089844 C 75.914062 17.71875 75.222656 15.347656 73.84375 13.269531 C 72.464844 11.292969 70.59375 9.710938 68.324219 8.722656 C 66.15625 7.832031 63.691406 7.636719 61.230469 8.03125 C 58.863281 8.527344 56.695312 9.710938 55.019531 11.390625 C 53.246094 13.171875 52.0625 15.347656 51.570312 17.71875 C 51.078125 20.089844 51.375 22.5625 52.261719 24.738281 C 53.148438 26.910156 54.726562 28.886719 56.792969 30.273438 C 58.863281 31.65625 61.230469 32.347656 63.59375 32.347656 C 66.847656 32.347656 70 31.0625 72.269531 28.789062 C 74.632812 26.417969 75.914062 23.253906 75.914062 20.089844 " fill-opacity="1" fill-rule="nonzero"/></g></svg>