<svg xmlns="http://www.w3.org/2000/svg" xmlns:xlink="http://www.w3.org/1999/xlink" width="484" zoomAndPan="magnify" viewBox="0 0 363 105.749996" height="141" preserveAspectRatio="xMidYMid meet" version="1.0"><path fill="#ffffff" d="M 65.53125 52.257812 C 65.53125 40.070312 75.582031 30.210938 88.148438 30.210938 C 100.804688 30.210938 110.859375 40.074219 110.859375 52.257812 C 110.859375 64.359375 100.804688 74.398438 88.148438 74.398438 C 75.582031 74.398438 65.53125 64.347656 65.53125 52.257812 Z M 100 52.257812 C 100 46.167969 94.703125 40.789062 88.148438 40.789062 C 81.6875 40.789062 76.390625 46.167969 76.390625 52.257812 C 76.390625 58.445312 81.6875 63.820312 88.148438 63.820312 C 94.703125 63.820312 100 58.445312 100 52.257812 Z M 100 52.257812 " fill-opacity="1" fill-rule="nonzero"/><path fill="#ffffff" d="M 293.636719 52.617188 C 293.636719 39.265625 304.496094 30.210938 314.375 30.210938 C 321.105469 30.210938 324.964844 32.273438 327.566406 36.21875 L 328.601562 31.011719 L 338.699219 31.011719 L 338.699219 73.589844 L 328.601562 73.589844 L 327.296875 69.207031 C 324.335938 72.433594 320.65625 74.410156 314.375 74.410156 C 304.679688 74.398438 293.636719 65.882812 293.636719 52.617188 Z M 328.105469 52.527344 C 328.101562 51.753906 328.023438 50.988281 327.871094 50.230469 C 327.714844 49.472656 327.488281 48.738281 327.191406 48.023438 C 326.890625 47.308594 326.523438 46.632812 326.09375 45.992188 C 325.660156 45.347656 325.167969 44.757812 324.617188 44.210938 C 324.066406 43.667969 323.46875 43.179688 322.824219 42.753906 C 322.179688 42.324219 321.496094 41.964844 320.78125 41.671875 C 320.0625 41.378906 319.324219 41.15625 318.5625 41.011719 C 317.804688 40.863281 317.035156 40.789062 316.261719 40.792969 C 315.484375 40.796875 314.71875 40.875 313.960938 41.027344 C 313.199219 41.179688 312.464844 41.40625 311.75 41.707031 C 311.035156 42.003906 310.355469 42.371094 309.710938 42.804688 C 309.070312 43.234375 308.476562 43.726562 307.929688 44.273438 C 307.382812 44.824219 306.898438 45.421875 306.46875 46.066406 C 306.042969 46.710938 305.679688 47.390625 305.386719 48.105469 C 305.09375 48.824219 304.871094 49.558594 304.722656 50.320312 C 304.574219 51.078125 304.503906 51.84375 304.503906 52.617188 C 304.503906 58.535156 309.800781 63.820312 316.265625 63.820312 C 322.8125 63.820312 328.105469 58.535156 328.105469 52.527344 Z M 328.105469 52.527344 " fill-opacity="1" fill-rule="nonzero"/><path fill="#ffffff" d="M 281.230469 35.945312 L 281.230469 31.015625 L 270.203125 31.015625 L 270.203125 73.589844 L 281.242188 73.589844 L 281.242188 50.648438 C 281.242188 43.746094 284.65625 40.164062 290.574219 40.164062 C 290.964844 40.164062 291.339844 40.191406 291.703125 40.226562 L 293.75 29.949219 C 287.984375 29.980469 283.8125 31.949219 281.230469 35.945312 Z M 281.230469 35.945312 " fill-opacity="1" fill-rule="nonzero"/><path fill="#ffffff" d="M 170.292969 35.949219 L 170.292969 31.019531 L 159.25 31.042969 L 159.339844 73.613281 L 170.378906 73.589844 L 170.316406 50.648438 C 170.316406 43.746094 173.714844 40.15625 179.644531 40.140625 C 180.023438 40.144531 180.402344 40.164062 180.777344 40.203125 L 182.800781 29.917969 C 177.03125 29.964844 172.863281 31.945312 170.292969 35.949219 Z M 170.292969 35.949219 " fill-opacity="1" fill-rule="nonzero"/><path fill="#ffffff" d="M 114.6875 57.097656 L 114.6875 31.019531 L 125.726562 31.019531 L 125.726562 55.753906 C 125.726562 61.222656 128.777344 64.449219 134.074219 64.449219 C 140 64.449219 143.402344 60.863281 143.402344 53.960938 L 143.402344 31.019531 L 154.445312 31.019531 L 154.445312 73.589844 L 143.421875 73.589844 L 143.421875 68.65625 C 140.820312 72.691406 136.601562 74.664062 130.765625 74.664062 C 120.878906 74.664062 114.6875 67.496094 114.6875 57.097656 Z M 114.6875 57.097656 " fill-opacity="1" fill-rule="nonzero"/><path fill="#ffffff" d="M 222.179688 52.308594 C 222.207031 40.386719 230.75 30.1875 244.304688 30.210938 C 256.871094 30.238281 265.738281 40.289062 265.707031 52.132812 C 265.710938 53.304688 265.621094 54.46875 265.433594 55.625 L 232.941406 55.566406 C 234.1875 60.675781 238.398438 64.359375 244.773438 64.371094 C 248.632812 64.371094 252.765625 62.953125 255.285156 59.730469 L 262.8125 65.757812 C 258.941406 71.21875 252.113281 74.433594 244.84375 74.417969 C 232.019531 74.375 222.164062 64.765625 222.179688 52.308594 Z M 254.59375 47.886719 C 253.976562 43.585938 249.492188 40.257812 244.195312 40.25 C 239.078125 40.25 234.945312 43.28125 233.320312 47.847656 Z M 254.59375 47.886719 " fill-opacity="1" fill-rule="nonzero"/><path fill="#ffffff" d="M 182.867188 64.308594 L 192.6875 59.179688 C 194.308594 62.703125 197.550781 64.757812 202.148438 64.757812 C 206.382812 64.757812 208.003906 63.410156 208.003906 61.519531 C 208.003906 54.671875 184.757812 58.820312 184.757812 43.164062 C 184.757812 34.527344 192.328125 29.941406 201.695312 29.941406 C 208.8125 29.941406 215.121094 33.089844 218.542969 38.9375 L 208.8125 44.074219 C 207.375 41.195312 204.671875 39.574219 201.246094 39.574219 C 197.914062 39.574219 196.289062 40.746094 196.289062 42.722656 C 196.289062 49.378906 219.535156 45.152344 219.535156 61.078125 C 219.535156 69.355469 212.78125 74.390625 201.875 74.390625 C 192.597656 74.382812 186.109375 71.324219 182.867188 64.308594 Z M 182.867188 64.308594 " fill-opacity="1" fill-rule="nonzero"/><path fill="#ffffff" d="M 21.691406 52.257812 C 21.691406 39.984375 31.742188 30.121094 44.3125 30.121094 C 46.203125 30.109375 48.0625 30.328125 49.898438 30.777344 C 51.734375 31.226562 53.484375 31.894531 55.15625 32.777344 C 56.824219 33.664062 58.359375 34.738281 59.757812 36.003906 C 61.160156 37.269531 62.382812 38.6875 63.429688 40.257812 L 54.007812 45.71875 C 53.460938 44.9375 52.832031 44.238281 52.117188 43.613281 C 51.402344 42.988281 50.621094 42.457031 49.777344 42.019531 C 48.933594 41.582031 48.050781 41.25 47.125 41.027344 C 46.199219 40.804688 45.261719 40.695312 44.3125 40.699219 C 37.851562 40.699219 32.554688 46.074219 32.554688 52.257812 C 32.554688 58.445312 37.851562 63.820312 44.3125 63.820312 C 45.308594 63.828125 46.289062 63.710938 47.253906 63.464844 C 48.21875 63.21875 49.136719 62.859375 50.007812 62.378906 C 50.882812 61.898438 51.679688 61.316406 52.402344 60.632812 C 53.125 59.949219 53.75 59.1875 54.277344 58.34375 L 63.605469 63.898438 C 62.570312 65.515625 61.351562 66.976562 59.945312 68.285156 C 58.542969 69.59375 56.996094 70.703125 55.308594 71.621094 C 53.621094 72.539062 51.847656 73.230469 49.984375 73.699219 C 48.121094 74.167969 46.226562 74.394531 44.308594 74.386719 C 31.734375 74.398438 21.691406 64.347656 21.691406 52.257812 Z M 21.691406 52.257812 " fill-opacity="1" fill-rule="nonzero"/></svg>