<svg xmlns="http://www.w3.org/2000/svg" xmlns:xlink="http://www.w3.org/1999/xlink" width="484" zoomAndPan="magnify" viewBox="0 0 363 105.749996" height="141" preserveAspectRatio="xMidYMid meet" version="1.0"><defs><clipPath id="45a9b48cca"><path d="M 10.976562 24.753906 L 39 24.753906 L 39 80.871094 L 10.976562 80.871094 Z M 10.976562 24.753906 " clip-rule="nonzero"/></clipPath><clipPath id="14b1cb56e7"><path d="M 40 40 L 78 40 L 78 80.871094 L 40 80.871094 Z M 40 40 " clip-rule="nonzero"/></clipPath><clipPath id="fb04f80d1a"><path d="M 82 40 L 116 40 L 116 80.871094 L 82 80.871094 Z M 82 40 " clip-rule="nonzero"/></clipPath><clipPath id="0076c612c3"><path d="M 120 40 L 159 40 L 159 80.871094 L 120 80.871094 Z M 120 40 " clip-rule="nonzero"/></clipPath><clipPath id="16a00b1112"><path d="M 163 24.753906 L 198 24.753906 L 198 80.871094 L 163 80.871094 Z M 163 24.753906 " clip-rule="nonzero"/></clipPath><clipPath id="986ae455e7"><path d="M 217 40 L 252 40 L 252 80.871094 L 217 80.871094 Z M 217 40 " clip-rule="nonzero"/></clipPath><clipPath id="946bab9e38"><path d="M 257 24.753906 L 297 24.753906 L 297 80.871094 L 257 80.871094 Z M 257 24.753906 " clip-rule="nonzero"/></clipPath><clipPath id="2a6180b76a"><path d="M 301 24.753906 L 309 24.753906 L 309 80.871094 L 301 80.871094 Z M 301 24.753906 " clip-rule="nonzero"/></clipPath><clipPath id="dc9c9b8d52"><path d="M 314 40 L 352 40 L 352 80.871094 L 314 80.871094 Z M 314 40 " clip-rule="nonzero"/></clipPath><clipPath id="57f4969e3c"><path d="M 203 45 L 212 45 L 212 80.871094 L 203 80.871094 Z M 203 45 " clip-rule="nonzero"/></clipPath></defs><g clip-path="url(#45a9b48cca)"><path fill="#ffffff" d="M 26.476562 24.753906 L 26.476562 41.09375 L 38.015625 41.09375 L 38.015625 47.597656 L 26.476562 47.597656 L 26.476562 67.113281 C 26.476562 71.296875 28.722656 73.617188 32.515625 73.617188 L 38.015625 73.617188 L 38.015625 80.125 L 31.894531 80.125 C 23.996094 80.125 18.964844 75.320312 18.964844 67.347656 L 18.964844 47.597656 L 10.988281 47.597656 L 10.988281 41.09375 L 18.964844 41.09375 L 18.964844 24.753906 Z M 26.476562 24.753906 " fill-opacity="1" fill-rule="nonzero"/></g><g clip-path="url(#14b1cb56e7)"><path fill="#ffffff" d="M 77.742188 67.425781 C 76.347656 75.476562 69.300781 80.742188 59.695312 80.742188 C 47.617188 80.742188 40.105469 71.21875 40.105469 60.375 C 40.105469 49.457031 46.917969 40.476562 58.921875 40.476562 C 71.003906 40.476562 77.429688 49.070312 77.429688 58.984375 C 77.429688 59.988281 77.351562 61.230469 77.277344 61.925781 L 47.460938 61.925781 C 48.082031 69.28125 52.882812 74.316406 59.695312 74.316406 C 65.425781 74.316406 69.144531 71.839844 70.230469 67.425781 Z M 47.695312 56.425781 L 69.839844 56.425781 C 69.375 50.464844 65.351562 46.515625 58.921875 46.515625 C 52.804688 46.515625 48.855469 49.921875 47.695312 56.425781 Z M 47.695312 56.425781 " fill-opacity="1" fill-rule="nonzero"/></g><g clip-path="url(#fb04f80d1a)"><path fill="#ffffff" d="M 115.6875 54.957031 L 115.6875 80.125 L 108.175781 80.125 L 108.175781 73.773438 C 106.316406 77.957031 101.359375 80.742188 95.472656 80.742188 C 87.5 80.742188 82.230469 75.941406 82.230469 68.972656 C 82.230469 61.460938 88.195312 56.816406 97.410156 56.816406 L 105.542969 56.816406 C 107.324219 56.816406 108.175781 55.886719 108.175781 54.492188 C 108.175781 49.769531 104.765625 46.515625 98.726562 46.515625 C 93.304688 46.515625 89.355469 49.921875 89.125 53.871094 L 82.15625 53.871094 C 82.773438 46.207031 89.742188 40.476562 98.957031 40.476562 C 109.027344 40.476562 115.6875 46.28125 115.6875 54.957031 Z M 108.175781 63.007812 L 108.175781 62.082031 L 98.105469 62.082031 C 92.996094 62.082031 89.667969 64.714844 89.667969 68.816406 C 89.667969 72.378906 92.609375 74.78125 96.945312 74.78125 C 104.070312 74.78125 108.175781 70.210938 108.175781 63.007812 Z M 108.175781 63.007812 " fill-opacity="1" fill-rule="nonzero"/></g><g clip-path="url(#0076c612c3)"><path fill="#ffffff" d="M 120.953125 60.609375 C 120.953125 49.84375 128 40.476562 140.3125 40.476562 C 149.449219 40.476562 157.347656 45.894531 158.433594 54.722656 L 150.921875 54.722656 C 150.222656 50.308594 145.730469 47.058594 140.464844 47.058594 C 132.644531 47.058594 128.777344 53.097656 128.777344 60.609375 C 128.777344 68.121094 132.726562 74.160156 140.464844 74.160156 C 145.808594 74.160156 149.757812 71.375 150.996094 66.960938 L 158.433594 66.960938 C 157.191406 75.167969 150.222656 80.742188 140.3125 80.742188 C 128 80.742188 120.953125 71.375 120.953125 60.609375 Z M 120.953125 60.609375 " fill-opacity="1" fill-rule="nonzero"/></g><g clip-path="url(#16a00b1112)"><path fill="#ffffff" d="M 163.230469 24.753906 L 170.742188 24.753906 L 170.742188 47.984375 C 172.835938 43.105469 177.484375 40.472656 183.289062 40.472656 C 192.117188 40.472656 197.847656 46.824219 197.847656 56.117188 L 197.847656 80.125 L 190.335938 80.125 L 190.335938 57.589844 C 190.335938 51.394531 186.699219 47.210938 181.199219 47.210938 C 175.082031 47.210938 170.746094 52.167969 170.746094 58.980469 L 170.746094 80.125 L 163.234375 80.125 Z M 163.230469 24.753906 " fill-opacity="1" fill-rule="nonzero"/></g><g clip-path="url(#986ae455e7)"><path fill="#ffffff" d="M 251.050781 54.957031 L 251.050781 80.125 L 243.539062 80.125 L 243.539062 73.773438 C 241.679688 77.957031 236.722656 80.742188 230.835938 80.742188 C 222.863281 80.742188 217.59375 75.941406 217.59375 68.972656 C 217.59375 61.460938 223.558594 56.816406 232.773438 56.816406 L 240.90625 56.816406 C 242.6875 56.816406 243.539062 55.886719 243.539062 54.492188 C 243.539062 49.769531 240.128906 46.515625 234.089844 46.515625 C 228.667969 46.515625 224.71875 49.921875 224.488281 53.871094 L 217.519531 53.871094 C 218.136719 46.207031 225.105469 40.476562 234.324219 40.476562 C 244.386719 40.476562 251.050781 46.28125 251.050781 54.957031 Z M 243.539062 63.007812 L 243.539062 62.082031 L 233.46875 62.082031 C 228.359375 62.082031 225.03125 64.714844 225.03125 68.816406 C 225.03125 72.378906 227.972656 74.78125 232.308594 74.78125 C 239.433594 74.78125 243.535156 70.210938 243.535156 63.007812 Z M 243.539062 63.007812 " fill-opacity="1" fill-rule="nonzero"/></g><g clip-path="url(#946bab9e38)"><path fill="#ffffff" d="M 265.292969 74.316406 L 265.292969 80.125 L 257.785156 80.125 L 257.785156 24.753906 L 265.292969 24.753906 L 265.292969 46.824219 C 267.539062 43.03125 272.265625 40.472656 277.609375 40.472656 C 289.535156 40.472656 296.269531 48.992188 296.269531 60.609375 C 296.269531 72.222656 289.535156 80.742188 277.53125 80.742188 C 272.34375 80.742188 267.539062 78.1875 265.292969 74.316406 Z M 288.679688 60.609375 C 288.679688 52.476562 283.878906 47.058594 276.675781 47.058594 C 269.398438 47.058594 264.675781 52.476562 264.675781 60.609375 C 264.675781 68.738281 269.398438 74.160156 276.675781 74.160156 C 283.878906 74.160156 288.679688 68.738281 288.679688 60.609375 Z M 288.679688 60.609375 " fill-opacity="1" fill-rule="nonzero"/></g><g clip-path="url(#2a6180b76a)"><path fill="#ffffff" d="M 301.386719 24.753906 L 308.894531 24.753906 L 308.894531 80.125 L 301.386719 80.125 Z M 301.386719 24.753906 " fill-opacity="1" fill-rule="nonzero"/></g><g clip-path="url(#dc9c9b8d52)"><path fill="#ffffff" d="M 351.867188 67.425781 C 350.476562 75.476562 343.429688 80.742188 333.828125 80.742188 C 321.746094 80.742188 314.234375 71.21875 314.234375 60.375 C 314.234375 49.457031 321.050781 40.476562 333.054688 40.476562 C 345.132812 40.476562 351.558594 49.070312 351.558594 58.984375 C 351.558594 59.988281 351.480469 61.230469 351.402344 61.925781 L 321.589844 61.925781 C 322.207031 69.28125 327.011719 74.316406 333.824219 74.316406 C 339.550781 74.316406 343.269531 71.839844 344.351562 67.425781 Z M 321.824219 56.425781 L 343.976562 56.425781 C 343.515625 50.464844 339.484375 46.515625 333.0625 46.515625 C 326.941406 46.515625 322.988281 49.921875 321.824219 56.425781 Z M 321.824219 56.425781 " fill-opacity="1" fill-rule="nonzero"/></g><g clip-path="url(#57f4969e3c)"><path fill="#ffffff" d="M 211.785156 45.449219 L 211.785156 53.890625 L 203.5 53.890625 L 203.5 45.449219 Z M 211.785156 71.777344 L 211.785156 80.121094 L 203.5 80.121094 L 203.5 71.757812 Z M 211.785156 71.777344 " fill-opacity="1" fill-rule="nonzero"/></g></svg>