<svg xmlns="http://www.w3.org/2000/svg" xmlns:xlink="http://www.w3.org/1999/xlink" width="572" zoomAndPan="magnify" viewBox="0 0 428.88 95.999999" height="128" preserveAspectRatio="xMidYMid meet" version="1.0"><defs><g/></defs><path fill="#000000" d="M 329.277344 82.070312 C 329.71875 82.167969 330.078125 82.390625 330.355469 82.734375 C 330.628906 83.085938 330.769531 83.484375 330.769531 83.941406 C 330.769531 84.585938 330.539062 85.105469 330.085938 85.484375 C 329.628906 85.859375 329 86.042969 328.199219 86.042969 L 324.585938 86.042969 L 324.585938 78.292969 L 328.074219 78.292969 C 328.863281 78.292969 329.480469 78.472656 329.925781 78.832031 C 330.363281 79.191406 330.589844 79.6875 330.589844 80.308594 C 330.589844 80.765625 330.46875 81.144531 330.230469 81.441406 C 329.988281 81.742188 329.671875 81.953125 329.277344 82.070312 Z M 326.472656 81.421875 L 327.714844 81.421875 C 328.023438 81.421875 328.257812 81.359375 328.414062 81.226562 C 328.582031 81.09375 328.667969 80.898438 328.667969 80.632812 C 328.667969 80.355469 328.582031 80.15625 328.414062 80.019531 C 328.257812 79.875 328.023438 79.804688 327.714844 79.804688 L 326.472656 79.804688 Z M 327.859375 84.515625 C 328.179688 84.515625 328.425781 84.441406 328.59375 84.300781 C 328.773438 84.15625 328.863281 83.953125 328.863281 83.6875 C 328.863281 83.414062 328.773438 83.199219 328.59375 83.039062 C 328.414062 82.886719 328.164062 82.808594 327.839844 82.808594 L 326.472656 82.808594 L 326.472656 84.515625 Z M 327.859375 84.515625 " fill-opacity="1" fill-rule="nonzero"/><path fill="#000000" d="M 338.207031 78.292969 L 335.511719 83.492188 L 335.511719 86.042969 L 333.625 86.042969 L 333.625 83.492188 L 330.945312 78.292969 L 333.085938 78.292969 L 334.59375 81.53125 L 336.085938 78.292969 Z M 338.207031 78.292969 " fill-opacity="1" fill-rule="nonzero"/><path fill="#000000" d="M 351.355469 78.292969 L 349.34375 86.042969 L 347.0625 86.042969 L 345.820312 80.9375 L 344.542969 86.042969 L 342.261719 86.042969 L 340.285156 78.292969 L 342.316406 78.292969 L 343.429688 83.941406 L 344.796875 78.292969 L 346.882812 78.292969 L 348.210938 83.941406 L 349.324219 78.292969 Z M 351.355469 78.292969 " fill-opacity="1" fill-rule="nonzero"/><path fill="#000000" d="M 355.667969 86.117188 C 354.9375 86.117188 354.265625 85.949219 353.65625 85.613281 C 353.054688 85.277344 352.578125 84.8125 352.21875 84.210938 C 351.859375 83.597656 351.679688 82.910156 351.679688 82.140625 C 351.679688 81.386719 351.859375 80.710938 352.21875 80.109375 C 352.578125 79.5 353.054688 79.027344 353.65625 78.691406 C 354.265625 78.355469 354.9375 78.1875 355.667969 78.1875 C 356.398438 78.1875 357.0625 78.355469 357.664062 78.691406 C 358.273438 79.027344 358.75 79.5 359.101562 80.109375 C 359.449219 80.710938 359.621094 81.386719 359.621094 82.140625 C 359.621094 82.910156 359.441406 83.597656 359.082031 84.210938 C 358.734375 84.8125 358.261719 85.277344 357.664062 85.613281 C 357.0625 85.949219 356.398438 86.117188 355.667969 86.117188 Z M 355.667969 84.40625 C 356.28125 84.40625 356.769531 84.203125 357.140625 83.796875 C 357.523438 83.378906 357.71875 82.824219 357.71875 82.140625 C 357.71875 81.457031 357.523438 80.914062 357.140625 80.503906 C 356.769531 80.101562 356.28125 79.894531 355.667969 79.894531 C 355.042969 79.894531 354.546875 80.101562 354.175781 80.503906 C 353.804688 80.914062 353.621094 81.457031 353.621094 82.140625 C 353.621094 82.824219 353.804688 83.378906 354.175781 83.796875 C 354.546875 84.203125 355.042969 84.40625 355.667969 84.40625 Z M 355.667969 84.40625 " fill-opacity="1" fill-rule="nonzero"/><path fill="#000000" d="M 364.328125 86.042969 L 362.710938 83.113281 L 362.257812 83.113281 L 362.257812 86.042969 L 360.371094 86.042969 L 360.371094 78.292969 L 363.535156 78.292969 C 364.148438 78.292969 364.667969 78.402344 365.097656 78.617188 C 365.53125 78.832031 365.855469 79.128906 366.070312 79.5 C 366.285156 79.871094 366.394531 80.285156 366.394531 80.738281 C 366.394531 81.257812 366.242188 81.71875 365.945312 82.125 C 365.65625 82.519531 365.230469 82.800781 364.667969 82.96875 L 366.449219 86.042969 Z M 362.257812 81.78125 L 363.429688 81.78125 C 363.773438 81.78125 364.03125 81.703125 364.199219 81.53125 C 364.378906 81.363281 364.46875 81.125 364.46875 80.8125 C 364.46875 80.515625 364.378906 80.28125 364.199219 80.109375 C 364.03125 79.945312 363.773438 79.859375 363.429688 79.859375 L 362.257812 79.859375 Z M 362.257812 81.78125 " fill-opacity="1" fill-rule="nonzero"/><path fill="#000000" d="M 371.757812 86.042969 L 369.152344 82.628906 L 369.152344 86.042969 L 367.265625 86.042969 L 367.265625 78.292969 L 369.152344 78.292969 L 369.152344 81.691406 L 371.742188 78.292969 L 373.949219 78.292969 L 370.949219 82.085938 L 374.058594 86.042969 Z M 371.757812 86.042969 " fill-opacity="1" fill-rule="nonzero"/><path fill="#000000" d="M 381.359375 78.292969 L 381.359375 86.042969 L 379.46875 86.042969 L 379.46875 82.859375 L 376.539062 82.859375 L 376.539062 86.042969 L 374.652344 86.042969 L 374.652344 78.292969 L 376.539062 78.292969 L 376.539062 81.332031 L 379.46875 81.332031 L 379.46875 78.292969 Z M 381.359375 78.292969 " fill-opacity="1" fill-rule="nonzero"/><path fill="#000000" d="M 386.085938 86.117188 C 385.351562 86.117188 384.683594 85.949219 384.070312 85.613281 C 383.46875 85.277344 382.992188 84.8125 382.632812 84.210938 C 382.273438 83.597656 382.09375 82.910156 382.09375 82.140625 C 382.09375 81.386719 382.273438 80.710938 382.632812 80.109375 C 382.992188 79.5 383.46875 79.027344 384.070312 78.691406 C 384.683594 78.355469 385.351562 78.1875 386.085938 78.1875 C 386.8125 78.1875 387.476562 78.355469 388.078125 78.691406 C 388.691406 79.027344 389.167969 79.5 389.515625 80.109375 C 389.863281 80.710938 390.039062 81.386719 390.039062 82.140625 C 390.039062 82.910156 389.859375 83.597656 389.5 84.210938 C 389.148438 84.8125 388.675781 85.277344 388.078125 85.613281 C 387.476562 85.949219 386.8125 86.117188 386.085938 86.117188 Z M 386.085938 84.40625 C 386.695312 84.40625 387.183594 84.203125 387.558594 83.796875 C 387.941406 83.378906 388.132812 82.824219 388.132812 82.140625 C 388.132812 81.457031 387.941406 80.914062 387.558594 80.503906 C 387.183594 80.101562 386.695312 79.894531 386.085938 79.894531 C 385.460938 79.894531 384.960938 80.101562 384.59375 80.503906 C 384.21875 80.914062 384.035156 81.457031 384.035156 82.140625 C 384.035156 82.824219 384.21875 83.378906 384.59375 83.796875 C 384.960938 84.203125 385.460938 84.40625 386.085938 84.40625 Z M 386.085938 84.40625 " fill-opacity="1" fill-rule="nonzero"/><path fill="#000000" d="M 394.742188 86.042969 L 393.125 83.113281 L 392.675781 83.113281 L 392.675781 86.042969 L 390.789062 86.042969 L 390.789062 78.292969 L 393.949219 78.292969 C 394.5625 78.292969 395.082031 78.402344 395.515625 78.617188 C 395.945312 78.832031 396.269531 79.128906 396.484375 79.5 C 396.699219 79.871094 396.808594 80.285156 396.808594 80.738281 C 396.808594 81.257812 396.65625 81.71875 396.359375 82.125 C 396.070312 82.519531 395.644531 82.800781 395.082031 82.96875 L 396.863281 86.042969 Z M 392.675781 81.78125 L 393.84375 81.78125 C 394.1875 81.78125 394.445312 81.703125 394.617188 81.53125 C 394.796875 81.363281 394.886719 81.125 394.886719 80.8125 C 394.886719 80.515625 394.796875 80.28125 394.617188 80.109375 C 394.445312 79.945312 394.1875 79.859375 393.84375 79.859375 L 392.675781 79.859375 Z M 392.675781 81.78125 " fill-opacity="1" fill-rule="nonzero"/><path fill="#000000" d="M 400.484375 86.117188 C 399.917969 86.117188 399.410156 86.027344 398.957031 85.84375 C 398.511719 85.664062 398.152344 85.394531 397.878906 85.035156 C 397.613281 84.667969 397.472656 84.226562 397.464844 83.722656 L 399.476562 83.722656 C 399.5 84.011719 399.59375 84.238281 399.765625 84.390625 C 399.929688 84.53125 400.152344 84.605469 400.429688 84.605469 C 400.703125 84.605469 400.917969 84.546875 401.078125 84.425781 C 401.242188 84.292969 401.328125 84.113281 401.328125 83.886719 C 401.328125 83.695312 401.261719 83.539062 401.132812 83.417969 C 401.007812 83.289062 400.851562 83.179688 400.664062 83.09375 C 400.46875 83.015625 400.207031 82.925781 399.871094 82.824219 C 399.371094 82.671875 398.957031 82.515625 398.632812 82.359375 C 398.316406 82.203125 398.046875 81.976562 397.824219 81.675781 C 397.59375 81.378906 397.484375 80.980469 397.484375 80.488281 C 397.484375 79.769531 397.738281 79.207031 398.253906 78.796875 C 398.78125 78.394531 399.464844 78.1875 400.304688 78.1875 C 401.152344 78.1875 401.839844 78.394531 402.371094 78.796875 C 402.898438 79.207031 403.179688 79.777344 403.214844 80.503906 L 401.167969 80.503906 C 401.152344 80.253906 401.0625 80.054688 400.898438 79.914062 C 400.726562 79.769531 400.511719 79.695312 400.25 79.695312 C 400.007812 79.695312 399.820312 79.757812 399.675781 79.875 C 399.539062 79.996094 399.476562 80.171875 399.476562 80.398438 C 399.476562 80.648438 399.589844 80.847656 399.820312 80.992188 C 400.058594 81.125 400.429688 81.273438 400.933594 81.441406 C 401.4375 81.613281 401.839844 81.773438 402.15625 81.925781 C 402.464844 82.082031 402.734375 82.3125 402.964844 82.609375 C 403.1875 82.898438 403.304688 83.273438 403.304688 83.742188 C 403.304688 84.1875 403.1875 84.585938 402.964844 84.945312 C 402.75 85.304688 402.425781 85.59375 401.992188 85.808594 C 401.570312 86.015625 401.066406 86.117188 400.484375 86.117188 Z M 400.484375 86.117188 " fill-opacity="1" fill-rule="nonzero"/><path fill="#000000" d="M 406.050781 79.804688 L 406.050781 81.367188 L 408.585938 81.367188 L 408.585938 82.824219 L 406.050781 82.824219 L 406.050781 84.53125 L 408.910156 84.53125 L 408.910156 86.042969 L 404.164062 86.042969 L 404.164062 78.292969 L 408.910156 78.292969 L 408.910156 79.804688 Z M 406.050781 79.804688 " fill-opacity="1" fill-rule="nonzero"/><g fill="#000000" fill-opacity="1"><g transform="translate(16.374447, 64.55722)"><g><path d="M 25.171875 0.796875 C 16.171875 0.796875 9.835938 -1.070312 6.171875 -4.8125 C 3.085938 -7.945312 1.546875 -12.476562 1.546875 -18.40625 L 17.015625 -18.40625 C 17.015625 -15.832031 17.453125 -13.800781 18.328125 -12.3125 C 19.578125 -10.175781 21.859375 -9.109375 25.171875 -9.109375 C 28.515625 -9.109375 30.800781 -10.175781 32.03125 -12.3125 C 32.90625 -13.851562 33.34375 -15.882812 33.34375 -18.40625 L 33.34375 -36.875 L 48.828125 -36.875 L 48.828125 -18.203125 C 48.828125 -12.410156 47.289062 -7.945312 44.21875 -4.8125 C 40.53125 -1.070312 34.179688 0.796875 25.171875 0.796875 Z M 25.171875 0.796875 "/></g></g><g transform="translate(67.518427, 64.55722)"><g><path d="M 27.890625 0.796875 C 18.773438 0.796875 12.066406 -1.078125 7.765625 -4.828125 C 3.960938 -8.160156 2.0625 -12.695312 2.0625 -18.4375 C 2.0625 -24.15625 3.960938 -28.679688 7.765625 -32.015625 C 12.066406 -35.765625 18.773438 -37.640625 27.890625 -37.640625 C 37.015625 -37.640625 43.726562 -35.765625 48.03125 -32.015625 C 51.832031 -28.679688 53.734375 -24.15625 53.734375 -18.4375 C 53.734375 -12.695312 51.832031 -8.160156 48.03125 -4.828125 C 43.726562 -1.078125 37.015625 0.796875 27.890625 0.796875 Z M 27.890625 -9.109375 C 31.628906 -9.109375 34.375 -10.175781 36.125 -12.3125 C 37.53125 -14.039062 38.234375 -16.082031 38.234375 -18.4375 C 38.234375 -20.78125 37.53125 -22.8125 36.125 -24.53125 C 34.375 -26.6875 31.628906 -27.765625 27.890625 -27.765625 C 24.160156 -27.765625 21.410156 -26.6875 19.640625 -24.53125 C 18.234375 -22.8125 17.53125 -20.78125 17.53125 -18.4375 C 17.53125 -16.082031 18.234375 -14.039062 19.640625 -12.3125 C 21.410156 -10.175781 24.160156 -9.109375 27.890625 -9.109375 Z M 27.890625 -9.109375 "/></g></g><g transform="translate(123.316535, 64.55722)"><g><path d="M 30.578125 0 L 4.109375 0 L 4.109375 -36.875 L 31.140625 -36.875 C 35.929688 -36.875 39.878906 -36.65625 42.984375 -36.21875 C 46.085938 -35.78125 48.476562 -35.09375 50.15625 -34.15625 C 51.84375 -33.21875 52.984375 -32.03125 53.578125 -30.59375 C 54.179688 -29.15625 54.484375 -27.429688 54.484375 -25.421875 C 54.429688 -23.847656 54 -22.539062 53.1875 -21.5 C 52.375 -20.46875 51.421875 -19.695312 50.328125 -19.1875 C 49.242188 -18.6875 48.289062 -18.4375 47.46875 -18.4375 C 48.269531 -18.4375 49.207031 -18.273438 50.28125 -17.953125 C 51.363281 -17.640625 52.414062 -17.179688 53.4375 -16.578125 C 54.457031 -15.984375 55.304688 -15.253906 55.984375 -14.390625 C 56.660156 -13.535156 57 -12.5625 57 -11.46875 C 57 -10.03125 56.832031 -8.707031 56.5 -7.5 C 56.164062 -6.300781 55.492188 -5.238281 54.484375 -4.3125 C 53.484375 -3.394531 52.003906 -2.613281 50.046875 -1.96875 C 48.097656 -1.320312 45.539062 -0.832031 42.375 -0.5 C 39.21875 -0.164062 35.285156 0 30.578125 0 Z M 29.703125 -21.59375 C 31.960938 -21.59375 33.710938 -21.703125 34.953125 -21.921875 C 36.191406 -22.148438 37.050781 -22.488281 37.53125 -22.9375 C 38.019531 -23.394531 38.265625 -23.976562 38.265625 -24.6875 C 38.265625 -25.40625 38.019531 -25.988281 37.53125 -26.4375 C 37.050781 -26.894531 36.191406 -27.226562 34.953125 -27.4375 C 33.710938 -27.65625 31.960938 -27.765625 29.703125 -27.765625 L 19.59375 -27.765625 L 19.59375 -21.59375 Z M 29.703125 -9.109375 C 32.015625 -9.109375 33.890625 -9.164062 35.328125 -9.28125 C 36.765625 -9.40625 37.816406 -9.679688 38.484375 -10.109375 C 39.160156 -10.535156 39.5 -11.226562 39.5 -12.1875 C 39.5 -13.144531 39.160156 -13.84375 38.484375 -14.28125 C 37.816406 -14.71875 36.765625 -14.988281 35.328125 -15.09375 C 33.890625 -15.207031 32.015625 -15.265625 29.703125 -15.265625 L 19.59375 -15.265625 L 19.59375 -9.109375 Z M 29.703125 -9.109375 "/></g></g><g transform="translate(182.380246, 64.55722)"><g><path d="M 30.578125 0 L 4.109375 0 L 4.109375 -36.875 L 31.140625 -36.875 C 35.929688 -36.875 39.878906 -36.65625 42.984375 -36.21875 C 46.085938 -35.78125 48.476562 -35.09375 50.15625 -34.15625 C 51.84375 -33.21875 52.984375 -32.03125 53.578125 -30.59375 C 54.179688 -29.15625 54.484375 -27.429688 54.484375 -25.421875 C 54.429688 -23.847656 54 -22.539062 53.1875 -21.5 C 52.375 -20.46875 51.421875 -19.695312 50.328125 -19.1875 C 49.242188 -18.6875 48.289062 -18.4375 47.46875 -18.4375 C 48.269531 -18.4375 49.207031 -18.273438 50.28125 -17.953125 C 51.363281 -17.640625 52.414062 -17.179688 53.4375 -16.578125 C 54.457031 -15.984375 55.304688 -15.253906 55.984375 -14.390625 C 56.660156 -13.535156 57 -12.5625 57 -11.46875 C 57 -10.03125 56.832031 -8.707031 56.5 -7.5 C 56.164062 -6.300781 55.492188 -5.238281 54.484375 -4.3125 C 53.484375 -3.394531 52.003906 -2.613281 50.046875 -1.96875 C 48.097656 -1.320312 45.539062 -0.832031 42.375 -0.5 C 39.21875 -0.164062 35.285156 0 30.578125 0 Z M 29.703125 -21.59375 C 31.960938 -21.59375 33.710938 -21.703125 34.953125 -21.921875 C 36.191406 -22.148438 37.050781 -22.488281 37.53125 -22.9375 C 38.019531 -23.394531 38.265625 -23.976562 38.265625 -24.6875 C 38.265625 -25.40625 38.019531 -25.988281 37.53125 -26.4375 C 37.050781 -26.894531 36.191406 -27.226562 34.953125 -27.4375 C 33.710938 -27.65625 31.960938 -27.765625 29.703125 -27.765625 L 19.59375 -27.765625 L 19.59375 -21.59375 Z M 29.703125 -9.109375 C 32.015625 -9.109375 33.890625 -9.164062 35.328125 -9.28125 C 36.765625 -9.40625 37.816406 -9.679688 38.484375 -10.109375 C 39.160156 -10.535156 39.5 -11.226562 39.5 -12.1875 C 39.5 -13.144531 39.160156 -13.84375 38.484375 -14.28125 C 37.816406 -14.71875 36.765625 -14.988281 35.328125 -15.09375 C 33.890625 -15.207031 32.015625 -15.265625 29.703125 -15.265625 L 19.59375 -15.265625 L 19.59375 -9.109375 Z M 29.703125 -9.109375 "/></g></g></g><g fill="#000000" fill-opacity="1"><g transform="translate(235.787009, 64.55722)"><g><path d="M 36 0 L 20.515625 0 L 20.515625 -17.484375 L 0.390625 -36.890625 L 17.53125 -36.890625 L 28.25 -25.859375 L 38.953125 -36.890625 L 56.09375 -36.890625 L 36 -17.484375 Z M 36 0 "/></g></g><g transform="translate(292.279379, 64.55722)"><g><path d="M 19.59375 0 L 4.109375 0 L 4.109375 -36.890625 L 19.59375 -36.890625 Z M 19.59375 0 "/></g></g><g transform="translate(315.987146, 64.55722)"><g><path d="M 24.375 0.796875 C 19.382812 0.796875 15.363281 0.257812 12.3125 -0.8125 C 9.257812 -1.882812 6.9375 -3.359375 5.34375 -5.234375 C 3.75 -7.109375 2.679688 -9.269531 2.140625 -11.71875 L 18.5625 -11.71875 C 19.78125 -9.976562 21.71875 -9.109375 24.375 -9.109375 C 27.03125 -9.109375 28.96875 -9.976562 30.1875 -11.71875 C 30.289062 -11.894531 30.34375 -12.050781 30.34375 -12.1875 C 30.34375 -12.644531 29.726562 -12.988281 28.5 -13.21875 C 27.269531 -13.457031 25.441406 -13.632812 23.015625 -13.75 C 19.941406 -13.894531 16.71875 -14.222656 13.34375 -14.734375 C 5.820312 -15.898438 2.0625 -18.925781 2.0625 -23.8125 C 2.0625 -24.21875 2.085938 -24.65625 2.140625 -25.125 C 2.679688 -27.570312 3.75 -29.734375 5.34375 -31.609375 C 6.9375 -33.484375 9.257812 -34.957031 12.3125 -36.03125 C 15.363281 -37.101562 19.382812 -37.640625 24.375 -37.640625 C 29.363281 -37.640625 33.382812 -37.101562 36.4375 -36.03125 C 39.488281 -34.957031 41.8125 -33.484375 43.40625 -31.609375 C 45 -29.734375 46.066406 -27.570312 46.609375 -25.125 L 30.1875 -25.125 C 28.96875 -26.875 27.03125 -27.75 24.375 -27.75 C 21.71875 -27.75 19.78125 -26.875 18.5625 -25.125 C 18.476562 -24.976562 18.4375 -24.847656 18.4375 -24.734375 C 18.4375 -24.316406 19.019531 -24.007812 20.1875 -23.8125 C 21.363281 -23.625 23.097656 -23.457031 25.390625 -23.3125 C 27.679688 -23.175781 30.117188 -22.953125 32.703125 -22.640625 C 35.296875 -22.335938 37.71875 -21.804688 39.96875 -21.046875 C 42.21875 -20.285156 43.976562 -19.15625 45.25 -17.65625 C 46.25 -16.507812 46.75 -15.054688 46.75 -13.296875 C 46.75 -12.796875 46.703125 -12.269531 46.609375 -11.71875 C 46.066406 -9.269531 45 -7.109375 43.40625 -5.234375 C 41.8125 -3.359375 39.488281 -1.882812 36.4375 -0.8125 C 33.382812 0.257812 29.363281 0.796875 24.375 0.796875 Z M 24.375 0.796875 "/></g></g><g transform="translate(364.791205, 64.55722)"><g><path d="M 31.46875 0 L 16 0 L 16 -27.765625 L 1.546875 -27.765625 L 1.546875 -36.890625 L 45.921875 -36.890625 L 45.921875 -27.765625 L 31.46875 -27.765625 Z M 31.46875 0 "/></g></g></g></svg>