<svg xmlns="http://www.w3.org/2000/svg" xmlns:xlink="http://www.w3.org/1999/xlink" width="528" zoomAndPan="magnify" viewBox="0 0 396 154.499995" height="206" preserveAspectRatio="xMidYMid meet" version="1.0"><path fill="#000000" d="M 51.078125 30.644531 C 48.464844 30.644531 46.210938 29.710938 44.324219 27.832031 C 42.433594 25.945312 41.492188 23.726562 41.492188 21.179688 C 41.492188 18.554688 42.433594 16.300781 44.324219 14.421875 C 46.210938 12.535156 48.464844 11.589844 51.078125 11.589844 C 53.707031 11.589844 55.941406 12.535156 57.78125 14.421875 C 59.632812 16.300781 60.558594 18.554688 60.558594 21.179688 C 60.558594 23.726562 59.632812 25.945312 57.78125 27.832031 C 55.941406 29.710938 53.707031 30.644531 51.078125 30.644531 Z M 58.105469 37.296875 C 59.574219 37.296875 60.308594 37.992188 60.308594 39.375 L 60.308594 110.117188 C 60.308594 112.660156 59.304688 115.28125 57.296875 117.984375 C 55.292969 120.695312 52.644531 122.957031 49.359375 124.761719 C 46.085938 126.5625 42.519531 127.46875 38.660156 127.46875 C 34.476562 127.46875 30.585938 126.5625 26.976562 124.761719 C 23.382812 122.957031 20.472656 120.695312 18.25 117.984375 C 16.039062 115.28125 14.9375 112.660156 14.9375 110.117188 C 14.9375 107.484375 15.878906 105.25 17.769531 103.410156 C 19.652344 101.570312 21.863281 100.648438 24.398438 100.648438 C 27.023438 100.648438 29.28125 101.570312 31.171875 103.410156 C 33.058594 105.25 34.003906 107.484375 34.003906 110.117188 C 34.003906 112.238281 33.574219 113.898438 32.710938 115.082031 C 31.851562 116.273438 30.964844 117.34375 30.058594 118.289062 C 29.164062 119.230469 28.714844 120.445312 28.714844 121.929688 C 28.714844 123.3125 29.367188 124.355469 30.667969 125.046875 C 31.980469 125.753906 33.4375 126.203125 35.042969 126.410156 C 36.640625 126.613281 37.847656 126.714844 38.660156 126.714844 C 39.890625 126.714844 41.28125 126.554688 42.835938 126.230469 C 44.402344 125.910156 45.757812 125.375 46.90625 124.636719 C 48.050781 123.890625 48.625 122.90625 48.625 121.679688 C 48.625 120.121094 48.050781 118.792969 46.90625 117.679688 C 45.757812 116.570312 44.609375 115.441406 43.464844 114.292969 C 42.316406 113.144531 41.742188 111.75 41.742188 110.117188 L 41.742188 47.136719 C 41.742188 45.574219 41.269531 44.242188 40.328125 43.140625 C 39.382812 42.027344 38.179688 41.347656 36.707031 41.097656 L 36.707031 40.363281 L 57.855469 37.296875 Z M 58.105469 37.296875 " fill-opacity="1" fill-rule="nonzero"/><path fill="#000000" d="M 87.117188 36.058594 C 92.277344 36.058594 96.964844 37.457031 101.183594 40.253906 C 105.414062 43.042969 108.789062 46.792969 111.324219 51.511719 C 113.871094 56.222656 115.144531 61.445312 115.144531 67.179688 C 115.144531 72.929688 113.871094 78.164062 111.324219 82.882812 C 108.789062 87.59375 105.414062 91.339844 101.183594 94.125 C 96.964844 96.914062 92.277344 98.300781 87.117188 98.300781 C 81.941406 98.300781 77.246094 96.914062 73.03125 94.125 C 68.8125 91.339844 65.433594 87.59375 62.890625 82.882812 C 60.34375 78.164062 59.074219 72.929688 59.074219 67.179688 C 59.074219 61.445312 60.34375 56.222656 62.890625 51.511719 C 65.433594 46.792969 68.8125 43.042969 73.03125 40.253906 C 77.246094 37.457031 81.941406 36.058594 87.117188 36.058594 Z M 87.117188 97.566406 C 93.425781 97.566406 96.578125 87.4375 96.578125 67.179688 C 96.578125 46.921875 93.425781 36.792969 87.117188 36.792969 C 80.710938 36.792969 77.511719 46.921875 77.511719 67.179688 C 77.511719 87.4375 80.710938 97.566406 87.117188 97.566406 Z M 87.117188 97.566406 " fill-opacity="1" fill-rule="nonzero"/><path fill="#000000" d="M 169.867188 64.726562 C 170.441406 70.378906 169.855469 75.667969 168.128906 80.589844 C 166.40625 85.515625 163.84375 89.554688 160.441406 92.707031 C 157.042969 95.863281 153.097656 97.6875 148.59375 98.175781 C 145.800781 98.507812 143.066406 98.203125 140.40625 97.261719 C 137.742188 96.320312 135.21875 94.945312 132.84375 93.136719 L 132.84375 95.109375 C 132.84375 95.855469 132.597656 96.46875 132.109375 96.957031 C 131.617188 97.449219 131.003906 97.691406 130.265625 97.691406 L 109.371094 97.691406 L 109.371094 96.957031 C 110.753906 96.707031 111.9375 96.007812 112.917969 94.859375 C 113.90625 93.710938 114.40625 92.402344 114.40625 90.933594 L 114.40625 21.429688 C 114.40625 19.953125 113.90625 18.636719 112.917969 17.488281 C 111.9375 16.339844 110.753906 15.640625 109.371094 15.390625 L 109.371094 14.65625 L 130.390625 11.589844 C 130.46875 11.589844 130.53125 11.589844 130.570312 11.589844 C 130.613281 11.589844 130.679688 11.589844 130.765625 11.589844 C 132.148438 11.589844 132.84375 12.324219 132.84375 13.792969 L 132.84375 38.640625 C 135.46875 37.257812 138.421875 36.394531 141.695312 36.058594 C 146.210938 35.570312 150.515625 36.558594 154.617188 39.019531 C 158.710938 41.484375 162.132812 44.945312 164.882812 49.414062 C 167.628906 53.886719 169.292969 58.988281 169.867188 64.726562 Z M 137.019531 93.136719 C 139.730469 93.136719 142.1875 91.910156 144.402344 89.445312 C 146.609375 86.984375 148.371094 83.6875 149.6875 79.550781 C 151 75.40625 151.660156 70.832031 151.660156 65.835938 C 151.660156 60.746094 151 56.152344 149.6875 52.050781 C 148.371094 47.953125 146.609375 44.671875 144.402344 42.207031 C 142.1875 39.75 139.730469 38.515625 137.019531 38.515625 C 135.714844 38.515625 134.324219 38.847656 132.84375 39.5 L 132.84375 92.152344 C 134.324219 92.8125 135.714844 93.136719 137.019531 93.136719 Z M 137.019531 93.136719 " fill-opacity="1" fill-rule="nonzero"/><path fill="#000000" d="M 224.824219 64.726562 C 225.398438 70.378906 224.816406 75.667969 223.085938 80.589844 C 221.367188 85.515625 218.804688 89.554688 215.398438 92.707031 C 212.003906 95.863281 208.054688 97.6875 203.554688 98.175781 C 200.757812 98.507812 198.027344 98.203125 195.363281 97.261719 C 192.699219 96.320312 190.175781 94.945312 187.804688 93.136719 L 187.804688 95.109375 C 187.804688 95.855469 187.554688 96.46875 187.066406 96.957031 C 186.574219 97.449219 185.960938 97.691406 185.222656 97.691406 L 164.328125 97.691406 L 164.328125 96.957031 C 165.710938 96.707031 166.894531 96.007812 167.875 94.859375 C 168.867188 93.710938 169.363281 92.402344 169.363281 90.933594 L 169.363281 21.429688 C 169.363281 19.953125 168.867188 18.636719 167.875 17.488281 C 166.894531 16.339844 165.710938 15.640625 164.328125 15.390625 L 164.328125 14.65625 L 185.347656 11.589844 C 185.429688 11.589844 185.492188 11.589844 185.527344 11.589844 C 185.570312 11.589844 185.640625 11.589844 185.722656 11.589844 C 187.109375 11.589844 187.804688 12.324219 187.804688 13.792969 L 187.804688 38.640625 C 190.429688 37.257812 193.378906 36.394531 196.65625 36.058594 C 201.171875 35.570312 205.476562 36.558594 209.574219 39.019531 C 213.667969 41.484375 217.09375 44.945312 219.84375 49.414062 C 222.589844 53.886719 224.25 58.988281 224.824219 64.726562 Z M 191.976562 93.136719 C 194.6875 93.136719 197.148438 91.910156 199.359375 89.445312 C 201.570312 86.984375 203.332031 83.6875 204.648438 79.550781 C 205.960938 75.40625 206.617188 70.832031 206.617188 65.835938 C 206.617188 60.746094 205.960938 56.152344 204.648438 52.050781 C 203.332031 47.953125 201.570312 44.671875 199.359375 42.207031 C 197.148438 39.75 194.6875 38.515625 191.976562 38.515625 C 190.675781 38.515625 189.28125 38.847656 187.804688 39.5 L 187.804688 92.152344 C 189.28125 92.8125 190.675781 93.136719 191.976562 93.136719 Z M 191.976562 93.136719 " fill-opacity="1" fill-rule="nonzero"/><path fill="#000000" d="M 265.394531 37.296875 L 288.761719 37.296875 L 288.761719 38.03125 C 286.539062 38.28125 284.320312 39.085938 282.113281 40.433594 C 279.898438 41.789062 277.890625 43.421875 276.089844 45.347656 C 274.285156 47.273438 272.886719 49.261719 271.898438 51.316406 L 245.84375 105.9375 C 244.695312 108.46875 244.179688 111.050781 244.300781 113.683594 C 244.417969 116.308594 245.136719 118.671875 246.453125 120.765625 C 247.765625 122.851562 249.527344 124.476562 251.738281 125.621094 C 253.375 126.347656 255.132812 126.714844 257.023438 126.714844 C 258.421875 126.714844 259.121094 125.980469 259.121094 124.511719 C 259.121094 123.445312 258.648438 122.441406 257.707031 121.5 C 256.761719 120.554688 255.792969 119.464844 254.804688 118.234375 C 253.820312 117.003906 253.332031 115.445312 253.332031 113.558594 C 253.332031 110.941406 254.273438 108.6875 256.164062 106.800781 C 258.050781 104.90625 260.269531 103.964844 262.8125 103.964844 C 265.429688 103.964844 267.679688 104.90625 269.570312 106.800781 C 271.453125 108.6875 272.398438 110.941406 272.398438 113.558594 C 272.398438 115.851562 271.742188 118.003906 270.429688 120.011719 C 269.113281 122.027344 267.390625 123.691406 265.269531 124.996094 C 263.140625 126.308594 260.847656 127.109375 258.386719 127.398438 C 255.921875 127.683594 253.589844 127.292969 251.378906 126.230469 C 249 125.085938 247.132812 123.382812 245.773438 121.121094 C 244.417969 118.871094 243.683594 116.394531 243.566406 113.683594 C 243.445312 110.980469 243.996094 108.3125 245.214844 105.6875 L 249.03125 97.691406 L 222.851562 42.710938 C 222.277344 41.5625 221.410156 40.519531 220.253906 39.574219 C 219.109375 38.632812 217.960938 38.117188 216.8125 38.03125 L 216.8125 37.296875 L 237.851562 37.296875 C 239.976562 37.296875 241.453125 38.117188 242.277344 39.753906 L 259.480469 75.804688 L 271.898438 49.71875 C 272.398438 48.574219 272.652344 47.386719 272.652344 46.152344 C 272.652344 44.015625 271.953125 42.167969 270.554688 40.613281 C 269.15625 39.0625 267.4375 38.203125 265.394531 38.03125 Z M 265.394531 37.296875 " fill-opacity="1" fill-rule="nonzero"/><path fill="#000000" d="M 284.320312 90.933594 L 284.320312 47.136719 C 284.320312 45.574219 283.824219 44.242188 282.835938 43.140625 C 281.851562 42.027344 280.671875 41.347656 279.285156 41.097656 L 279.285156 40.363281 L 300.304688 37.296875 C 300.386719 37.296875 300.449219 37.296875 300.484375 37.296875 C 300.53125 37.296875 300.597656 37.296875 300.683594 37.296875 C 302.066406 37.296875 302.761719 37.992188 302.761719 39.375 L 302.761719 90.933594 C 302.761719 92.402344 303.25 93.710938 304.230469 94.859375 C 305.21875 96.007812 306.417969 96.707031 307.8125 96.957031 L 307.8125 97.691406 L 279.285156 97.691406 L 279.285156 96.957031 C 280.671875 96.707031 281.851562 96.007812 282.835938 94.859375 C 283.824219 93.710938 284.320312 92.402344 284.320312 90.933594 Z M 303.136719 21.179688 C 303.136719 23.726562 302.191406 25.945312 300.304688 27.832031 C 298.414062 29.710938 296.167969 30.644531 293.550781 30.644531 C 290.921875 30.644531 288.679688 29.710938 286.832031 27.832031 C 284.988281 25.945312 284.070312 23.726562 284.070312 21.179688 C 284.070312 18.554688 284.988281 16.300781 286.832031 14.421875 C 288.679688 12.535156 290.921875 11.589844 293.550781 11.589844 C 296.167969 11.589844 298.414062 12.535156 300.304688 14.421875 C 302.191406 16.300781 303.136719 18.554688 303.136719 21.179688 Z M 303.136719 21.179688 " fill-opacity="1" fill-rule="nonzero"/><path fill="#000000" d="M 348.378906 81.09375 C 348.628906 84.28125 347.683594 87.195312 345.546875 89.820312 C 343.417969 92.441406 340.550781 94.511719 336.945312 96.023438 C 333.335938 97.542969 329.402344 98.300781 325.136719 98.300781 C 320.953125 98.300781 317.117188 97.613281 313.632812 96.222656 C 310.15625 94.824219 307.347656 92.917969 305.210938 90.503906 C 303.082031 88.078125 302.019531 85.347656 302.019531 82.3125 C 302.019531 79.695312 302.960938 77.464844 304.851562 75.625 C 306.738281 73.773438 308.957031 72.84375 311.5 72.84375 C 314.117188 72.84375 316.363281 73.773438 318.253906 75.625 C 320.140625 77.464844 321.085938 79.695312 321.085938 82.3125 C 321.085938 84.535156 320.613281 86.246094 319.671875 87.4375 C 318.726562 88.621094 317.757812 89.601562 316.769531 90.378906 C 315.785156 91.15625 315.296875 92.078125 315.296875 93.136719 C 315.296875 94.046875 315.746094 94.914062 316.644531 95.738281 C 317.546875 96.554688 318.617188 97.042969 319.851562 97.207031 C 320.675781 97.28125 321.449219 97.359375 322.179688 97.441406 C 322.917969 97.527344 323.90625 97.566406 325.136719 97.566406 C 327.34375 97.566406 329.226562 96.792969 330.78125 95.234375 C 332.34375 93.671875 333.128906 91.785156 333.128906 89.570312 C 333.128906 87.527344 332.367188 85.546875 330.851562 83.621094 C 329.335938 81.683594 327.402344 79.757812 325.066406 77.828125 C 322.734375 75.90625 320.234375 73.917969 317.574219 71.859375 C 314.910156 69.808594 312.40625 67.695312 310.066406 65.53125 C 307.738281 63.359375 305.808594 61.023438 304.296875 58.523438 C 302.777344 56.011719 302.019531 53.324219 302.019531 50.453125 C 302.019531 47.183594 303.121094 44.480469 305.335938 42.351562 C 307.558594 40.214844 310.261719 38.632812 313.453125 37.601562 C 316.652344 36.574219 319.769531 36.058594 322.808594 36.058594 C 325.753906 36.058594 328.238281 36.347656 330.242188 36.921875 C 332.25 37.492188 334.050781 38.03125 335.65625 38.535156 C 337.253906 39.027344 338.917969 39.226562 340.636719 39.144531 C 341.289062 39.0625 341.882812 38.902344 342.410156 38.660156 C 342.949219 38.40625 343.378906 38.117188 343.703125 37.78125 L 344.328125 37.78125 L 344.328125 57.714844 C 344.328125 57.714844 344.261719 57.714844 344.132812 57.714844 C 344.011719 57.714844 343.867188 57.714844 343.703125 57.714844 C 343.207031 55.253906 342.394531 52.507812 341.246094 49.46875 C 340.097656 46.433594 338.398438 43.726562 336.140625 41.347656 C 333.890625 38.972656 330.753906 37.539062 326.730469 37.046875 C 324.601562 36.722656 322.757812 37.136719 321.195312 38.28125 C 319.640625 39.429688 318.785156 41.3125 318.632812 43.929688 C 318.460938 46.558594 319.300781 48.980469 321.140625 51.191406 C 322.992188 53.402344 325.351562 55.59375 328.21875 57.769531 C 331.085938 59.945312 334.011719 62.179688 337 64.472656 C 339.996094 66.769531 342.558594 69.273438 344.6875 71.984375 C 346.824219 74.6875 348.054688 77.722656 348.378906 81.09375 Z M 348.378906 81.09375 " fill-opacity="1" fill-rule="nonzero"/><path fill="#000000" d="M 372.851562 93.265625 C 374.234375 93.265625 375.464844 92.898438 376.542969 92.152344 L 376.542969 93.011719 C 375.058594 94.078125 373.046875 95.226562 370.503906 96.457031 C 367.96875 97.6875 364.972656 98.300781 361.523438 98.300781 C 357.761719 98.300781 354.523438 96.953125 351.8125 94.25 C 349.109375 91.539062 347.761719 88.296875 347.761719 84.535156 L 347.761719 38.03125 L 342.726562 38.03125 L 342.726562 37.296875 C 347.316406 37.296875 351.589844 36.292969 355.558594 34.285156 C 359.535156 32.277344 362.835938 29.589844 365.46875 26.21875 L 366.203125 26.21875 L 366.203125 37.296875 L 374.195312 37.296875 L 374.195312 38.03125 L 366.203125 38.03125 L 366.203125 86.613281 C 366.203125 88.417969 366.855469 89.980469 368.171875 91.292969 C 369.484375 92.609375 371.042969 93.265625 372.851562 93.265625 Z M 372.851562 93.265625 " fill-opacity="1" fill-rule="nonzero"/><path fill="#000000" d="M 297.527344 146.410156 C 297.96875 146.507812 298.324219 146.730469 298.605469 147.074219 C 298.878906 147.421875 299.015625 147.824219 299.015625 148.273438 C 299.015625 148.921875 298.789062 149.4375 298.335938 149.816406 C 297.878906 150.1875 297.25 150.371094 296.453125 150.371094 L 292.851562 150.371094 L 292.851562 142.644531 L 296.328125 142.644531 C 297.117188 142.644531 297.730469 142.824219 298.171875 143.183594 C 298.613281 143.542969 298.835938 144.035156 298.835938 144.652344 C 298.835938 145.109375 298.714844 145.488281 298.476562 145.785156 C 298.238281 146.082031 297.921875 146.292969 297.527344 146.410156 Z M 294.734375 145.765625 L 295.96875 145.765625 C 296.277344 145.765625 296.511719 145.703125 296.667969 145.566406 C 296.835938 145.4375 296.917969 145.242188 296.917969 144.976562 C 296.917969 144.703125 296.835938 144.5 296.667969 144.367188 C 296.511719 144.222656 296.277344 144.152344 295.96875 144.152344 L 294.734375 144.152344 Z M 296.113281 148.847656 C 296.433594 148.847656 296.675781 148.777344 296.847656 148.632812 C 297.027344 148.492188 297.117188 148.289062 297.117188 148.023438 C 297.117188 147.75 297.027344 147.535156 296.847656 147.378906 C 296.667969 147.226562 296.417969 147.144531 296.09375 147.144531 L 294.734375 147.144531 L 294.734375 148.847656 Z M 296.113281 148.847656 " fill-opacity="1" fill-rule="nonzero"/><path fill="#000000" d="M 306.429688 142.644531 L 303.742188 147.828125 L 303.742188 150.371094 L 301.863281 150.371094 L 301.863281 147.828125 L 299.191406 142.644531 L 301.324219 142.644531 L 302.828125 145.875 L 304.316406 142.644531 Z M 306.429688 142.644531 " fill-opacity="1" fill-rule="nonzero"/><path fill="#000000" d="M 319.542969 142.644531 L 317.535156 150.371094 L 315.257812 150.371094 L 314.023438 145.28125 L 312.75 150.371094 L 310.476562 150.371094 L 308.503906 142.644531 L 310.527344 142.644531 L 311.640625 148.273438 L 313 142.644531 L 315.082031 142.644531 L 316.40625 148.273438 L 317.515625 142.644531 Z M 319.542969 142.644531 " fill-opacity="1" fill-rule="nonzero"/><path fill="#000000" d="M 323.84375 150.445312 C 323.113281 150.445312 322.445312 150.277344 321.835938 149.941406 C 321.234375 149.609375 320.761719 149.144531 320.402344 148.542969 C 320.042969 147.933594 319.863281 147.25 319.863281 146.484375 C 319.863281 145.730469 320.042969 145.058594 320.402344 144.457031 C 320.761719 143.847656 321.234375 143.375 321.835938 143.039062 C 322.445312 142.710938 323.113281 142.539062 323.84375 142.539062 C 324.566406 142.539062 325.230469 142.710938 325.832031 143.039062 C 326.441406 143.375 326.914062 143.847656 327.265625 144.457031 C 327.609375 145.058594 327.785156 145.730469 327.785156 146.484375 C 327.785156 147.25 327.605469 147.933594 327.246094 148.542969 C 326.898438 149.144531 326.425781 149.609375 325.832031 149.941406 C 325.230469 150.277344 324.566406 150.445312 323.84375 150.445312 Z M 323.84375 148.742188 C 324.453125 148.742188 324.941406 148.539062 325.3125 148.132812 C 325.691406 147.714844 325.886719 147.164062 325.886719 146.484375 C 325.886719 145.800781 325.691406 145.257812 325.3125 144.851562 C 324.941406 144.449219 324.453125 144.242188 323.84375 144.242188 C 323.21875 144.242188 322.722656 144.449219 322.355469 144.851562 C 321.984375 145.257812 321.800781 145.800781 321.800781 146.484375 C 321.800781 147.164062 321.984375 147.714844 322.355469 148.132812 C 322.722656 148.539062 323.21875 148.742188 323.84375 148.742188 Z M 323.84375 148.742188 " fill-opacity="1" fill-rule="nonzero"/><path fill="#000000" d="M 332.472656 150.371094 L 330.863281 147.449219 L 330.414062 147.449219 L 330.414062 150.371094 L 328.53125 150.371094 L 328.53125 142.644531 L 331.6875 142.644531 C 332.296875 142.644531 332.816406 142.753906 333.246094 142.96875 C 333.675781 143.183594 333.996094 143.480469 334.210938 143.847656 C 334.425781 144.21875 334.535156 144.632812 334.535156 145.085938 C 334.535156 145.601562 334.382812 146.0625 334.085938 146.464844 C 333.800781 146.859375 333.375 147.140625 332.816406 147.308594 L 334.589844 150.371094 Z M 330.414062 146.125 L 331.578125 146.125 C 331.921875 146.125 332.179688 146.042969 332.347656 145.875 C 332.527344 145.707031 332.617188 145.46875 332.617188 145.15625 C 332.617188 144.859375 332.527344 144.628906 332.347656 144.457031 C 332.179688 144.292969 331.921875 144.207031 331.578125 144.207031 L 330.414062 144.207031 Z M 330.414062 146.125 " fill-opacity="1" fill-rule="nonzero"/><path fill="#000000" d="M 339.882812 150.371094 L 337.285156 146.964844 L 337.285156 150.371094 L 335.402344 150.371094 L 335.402344 142.644531 L 337.285156 142.644531 L 337.285156 146.035156 L 339.867188 142.644531 L 342.070312 142.644531 L 339.078125 146.429688 L 342.175781 150.371094 Z M 339.882812 150.371094 " fill-opacity="1" fill-rule="nonzero"/><path fill="#000000" d="M 349.457031 142.644531 L 349.457031 150.371094 L 347.574219 150.371094 L 347.574219 147.199219 L 344.652344 147.199219 L 344.652344 150.371094 L 342.769531 150.371094 L 342.769531 142.644531 L 344.652344 142.644531 L 344.652344 145.675781 L 347.574219 145.675781 L 347.574219 142.644531 Z M 349.457031 142.644531 " fill-opacity="1" fill-rule="nonzero"/><path fill="#000000" d="M 354.167969 150.445312 C 353.4375 150.445312 352.769531 150.277344 352.160156 149.941406 C 351.558594 149.609375 351.085938 149.144531 350.726562 148.542969 C 350.367188 147.933594 350.1875 147.25 350.1875 146.484375 C 350.1875 145.730469 350.367188 145.058594 350.726562 144.457031 C 351.085938 143.847656 351.558594 143.375 352.160156 143.039062 C 352.769531 142.710938 353.4375 142.539062 354.167969 142.539062 C 354.894531 142.539062 355.554688 142.710938 356.15625 143.039062 C 356.765625 143.375 357.242188 143.847656 357.589844 144.457031 C 357.933594 145.058594 358.109375 145.730469 358.109375 146.484375 C 358.109375 147.25 357.929688 147.933594 357.570312 148.542969 C 357.222656 149.144531 356.753906 149.609375 356.15625 149.941406 C 355.554688 150.277344 354.894531 150.445312 354.167969 150.445312 Z M 354.167969 148.742188 C 354.777344 148.742188 355.265625 148.539062 355.636719 148.132812 C 356.019531 147.714844 356.210938 147.164062 356.210938 146.484375 C 356.210938 145.800781 356.019531 145.257812 355.636719 144.851562 C 355.265625 144.449219 354.777344 144.242188 354.167969 144.242188 C 353.542969 144.242188 353.046875 144.449219 352.679688 144.851562 C 352.308594 145.257812 352.125 145.800781 352.125 146.484375 C 352.125 147.164062 352.308594 147.714844 352.679688 148.132812 C 353.046875 148.539062 353.542969 148.742188 354.167969 148.742188 Z M 354.167969 148.742188 " fill-opacity="1" fill-rule="nonzero"/><path fill="#000000" d="M 362.800781 150.371094 L 361.1875 147.449219 L 360.738281 147.449219 L 360.738281 150.371094 L 358.859375 150.371094 L 358.859375 142.644531 L 362.011719 142.644531 C 362.621094 142.644531 363.140625 142.753906 363.570312 142.96875 C 364 143.183594 364.324219 143.480469 364.539062 143.847656 C 364.753906 144.21875 364.859375 144.632812 364.859375 145.085938 C 364.859375 145.601562 364.707031 146.0625 364.414062 146.464844 C 364.125 146.859375 363.699219 147.140625 363.140625 147.308594 L 364.914062 150.371094 Z M 360.738281 146.125 L 361.902344 146.125 C 362.25 146.125 362.503906 146.042969 362.675781 145.875 C 362.855469 145.707031 362.941406 145.46875 362.941406 145.15625 C 362.941406 144.859375 362.855469 144.628906 362.675781 144.457031 C 362.503906 144.292969 362.25 144.207031 361.902344 144.207031 L 360.738281 144.207031 Z M 360.738281 146.125 " fill-opacity="1" fill-rule="nonzero"/><path fill="#000000" d="M 368.523438 150.445312 C 367.960938 150.445312 367.453125 150.355469 367 150.175781 C 366.558594 149.996094 366.199219 149.726562 365.925781 149.367188 C 365.664062 149 365.523438 148.5625 365.515625 148.058594 L 367.523438 148.058594 C 367.542969 148.347656 367.636719 148.570312 367.808594 148.722656 C 367.972656 148.867188 368.195312 148.9375 368.472656 148.9375 C 368.746094 148.9375 368.960938 148.878906 369.117188 148.757812 C 369.28125 148.628906 369.367188 148.449219 369.367188 148.222656 C 369.367188 148.035156 369.300781 147.875 369.171875 147.753906 C 369.050781 147.625 368.890625 147.519531 368.703125 147.433594 C 368.511719 147.351562 368.246094 147.261719 367.914062 147.164062 C 367.414062 147.011719 367 146.855469 366.679688 146.699219 C 366.367188 146.546875 366.097656 146.316406 365.871094 146.015625 C 365.644531 145.722656 365.53125 145.328125 365.53125 144.832031 C 365.53125 144.117188 365.789062 143.554688 366.304688 143.148438 C 366.828125 142.746094 367.507812 142.539062 368.347656 142.539062 C 369.191406 142.539062 369.878906 142.746094 370.40625 143.148438 C 370.929688 143.554688 371.214844 144.125 371.25 144.851562 L 369.207031 144.851562 C 369.191406 144.601562 369.101562 144.402344 368.9375 144.257812 C 368.765625 144.117188 368.550781 144.042969 368.292969 144.042969 C 368.050781 144.042969 367.863281 144.105469 367.71875 144.222656 C 367.585938 144.34375 367.523438 144.519531 367.523438 144.742188 C 367.523438 144.996094 367.632812 145.191406 367.863281 145.335938 C 368.097656 145.46875 368.472656 145.617188 368.972656 145.785156 C 369.476562 145.953125 369.878906 146.113281 370.191406 146.265625 C 370.5 146.425781 370.769531 146.652344 370.996094 146.949219 C 371.222656 147.234375 371.339844 147.613281 371.339844 148.078125 C 371.339844 148.523438 371.222656 148.921875 370.996094 149.277344 C 370.78125 149.636719 370.460938 149.925781 370.03125 150.140625 C 369.609375 150.347656 369.109375 150.445312 368.523438 150.445312 Z M 368.523438 150.445312 " fill-opacity="1" fill-rule="nonzero"/><path fill="#000000" d="M 374.078125 144.152344 L 374.078125 145.710938 L 376.601562 145.710938 L 376.601562 147.164062 L 374.078125 147.164062 L 374.078125 148.867188 L 376.925781 148.867188 L 376.925781 150.371094 L 372.195312 150.371094 L 372.195312 142.644531 L 376.925781 142.644531 L 376.925781 144.152344 Z M 374.078125 144.152344 " fill-opacity="1" fill-rule="nonzero"/></svg>