<svg xmlns="http://www.w3.org/2000/svg" xmlns:xlink="http://www.w3.org/1999/xlink" width="176" zoomAndPan="magnify" viewBox="0 0 132 42" height="56" preserveAspectRatio="xMidYMid meet" version="1.0"><defs><clipPath id="be854563cd"><path d="M 6 1 L 128.121094 1 L 128.121094 40.742188 L 6 40.742188 Z M 6 1 " clip-rule="nonzero"/></clipPath></defs><g clip-path="url(#be854563cd)"><path fill="#ffffff" d="M 17.09375 19.0625 C 15.558594 18.210938 14.878906 17.53125 14.878906 16.679688 C 14.878906 15.488281 15.902344 14.808594 17.601562 14.808594 C 19.476562 14.808594 21.175781 15.660156 21.175781 15.660156 L 22.539062 11.574219 C 22.539062 11.574219 21.347656 10.550781 17.773438 10.550781 C 12.667969 10.550781 9.261719 13.445312 9.261719 17.53125 C 9.261719 19.914062 10.964844 21.617188 13.007812 22.808594 C 14.710938 23.828125 15.390625 24.507812 15.390625 25.53125 C 15.390625 26.550781 14.539062 27.574219 12.835938 27.574219 C 10.453125 27.574219 8.070312 26.382812 8.070312 26.382812 L 6.710938 30.464844 C 6.710938 30.464844 8.753906 31.828125 12.328125 31.828125 C 17.433594 31.828125 21.175781 29.273438 21.175781 24.679688 C 21.175781 22.125 19.304688 20.253906 17.09375 19.0625 M 37.6875 10.382812 C 35.132812 10.382812 33.089844 11.574219 31.558594 13.445312 L 33.773438 1.871094 L 27.984375 1.871094 L 22.367188 31.316406 L 28.15625 31.316406 L 30.027344 21.277344 C 30.707031 17.53125 32.75 15.148438 34.625 15.148438 C 35.984375 15.148438 36.496094 16 36.496094 17.359375 C 36.496094 18.210938 36.496094 19.0625 36.324219 19.914062 L 34.113281 31.488281 L 39.898438 31.488281 L 42.113281 19.574219 C 42.28125 18.382812 42.453125 16.851562 42.453125 15.828125 C 42.453125 12.425781 40.75 10.382812 37.6875 10.382812 M 52.496094 27.234375 C 50.453125 27.234375 49.773438 25.53125 49.773438 23.488281 C 49.773438 20.253906 51.472656 14.808594 54.539062 14.808594 C 56.578125 14.808594 57.261719 16.511719 57.261719 18.210938 C 57.261719 21.957031 55.558594 27.234375 52.496094 27.234375 Z M 55.386719 10.382812 C 48.410156 10.382812 43.816406 16.679688 43.816406 23.660156 C 43.816406 28.082031 46.539062 31.65625 51.8125 31.65625 C 58.621094 31.65625 63.21875 25.53125 63.21875 18.382812 C 63.21875 14.296875 60.835938 10.382812 55.386719 10.382812 Z M 72.410156 27.402344 C 70.878906 27.402344 70.027344 26.550781 70.027344 26.550781 L 71.046875 21.105469 C 71.726562 17.53125 73.601562 15.148438 75.644531 15.148438 C 77.34375 15.148438 78.027344 16.851562 78.027344 18.382812 C 77.855469 22.125 75.644531 27.402344 72.410156 27.402344 Z M 78.027344 10.382812 C 74.109375 10.382812 71.898438 13.785156 71.898438 13.785156 L 72.238281 10.722656 L 67.132812 10.722656 C 66.960938 12.765625 66.453125 16 65.941406 18.382812 L 61.855469 39.488281 L 67.644531 39.488281 L 69.175781 30.976562 L 69.34375 30.976562 C 69.34375 30.976562 70.535156 31.65625 72.75 31.65625 C 79.558594 31.65625 83.984375 24.679688 83.984375 17.703125 C 83.984375 13.957031 82.28125 10.382812 78.027344 10.382812 Z M 92.152344 2.210938 C 90.28125 2.210938 88.917969 3.746094 88.917969 5.617188 C 88.917969 7.320312 89.941406 8.511719 91.640625 8.511719 C 93.515625 8.511719 95.046875 7.320312 95.046875 5.105469 C 95.046875 3.402344 93.855469 2.210938 92.152344 2.210938 M 84.152344 31.316406 L 89.941406 31.316406 L 93.855469 10.894531 L 88.066406 10.894531 Z M 108.492188 10.894531 L 104.40625 10.894531 L 104.578125 9.871094 C 104.917969 7.828125 106.109375 6.128906 107.980469 6.128906 C 109.003906 6.128906 109.855469 6.46875 109.855469 6.46875 L 111.046875 1.871094 C 111.046875 1.871094 110.023438 1.363281 107.980469 1.363281 C 105.9375 1.363281 103.898438 1.871094 102.363281 3.234375 C 100.324219 4.9375 99.472656 7.320312 98.960938 9.703125 L 98.789062 10.722656 L 96.066406 10.722656 L 95.214844 15.148438 L 97.941406 15.148438 L 94.875 31.316406 L 100.664062 31.316406 L 103.726562 15.148438 L 107.640625 15.148438 Z M 122.277344 10.894531 C 122.277344 10.894531 118.703125 19.914062 117.003906 24.851562 C 116.832031 23.316406 115.640625 10.894531 115.640625 10.894531 L 109.515625 10.894531 L 112.917969 29.617188 C 112.917969 29.957031 112.917969 30.296875 112.746094 30.636719 C 112.066406 32 110.875 33.191406 109.683594 34.039062 C 108.664062 34.890625 107.300781 35.402344 106.449219 35.742188 L 107.980469 40.679688 C 109.171875 40.507812 111.554688 39.488281 113.597656 37.617188 C 116.152344 35.230469 118.703125 31.316406 121.085938 26.210938 L 128.066406 11.0625 Z M 122.277344 10.894531 " fill-opacity="1" fill-rule="nonzero"/></g></svg>