<svg xmlns="http://www.w3.org/2000/svg" xmlns:xlink="http://www.w3.org/1999/xlink" width="130" zoomAndPan="magnify" viewBox="0 0 97.5 42" height="56" preserveAspectRatio="xMidYMid meet" version="1.0"><defs><g/></defs><g fill="#000000" fill-opacity="1"><g transform="translate(9.012644, 38.73314)"><g><path d="M 3.328125 -0.28125 C 2.140625 -0.0390625 1.171875 -0.128906 0.421875 -0.546875 C -0.328125 -0.972656 -0.796875 -1.660156 -0.984375 -2.609375 C -1.035156 -2.898438 -1.070312 -3.238281 -1.09375 -3.625 L -1 -11.25 L 2.03125 -11.859375 L 1.96875 -4.203125 C 1.957031 -4.109375 1.96875 -3.992188 2 -3.859375 C 2.144531 -3.117188 2.59375 -2.828125 3.34375 -2.984375 C 3.757812 -3.066406 4.101562 -3.273438 4.375 -3.609375 C 4.644531 -3.941406 4.789062 -4.328125 4.8125 -4.765625 L 5.03125 -27.90625 L 8.09375 -28.515625 L 7.859375 -5.421875 C 7.847656 -4.148438 7.429688 -3.039062 6.609375 -2.09375 C 5.796875 -1.15625 4.703125 -0.550781 3.328125 -0.28125 Z M 3.328125 -0.28125 "/></g></g></g><g fill="#000000" fill-opacity="1"><g transform="translate(20.494953, 36.423322)"><g><path d="M 3.6875 -0.359375 C 2.519531 -0.117188 1.554688 -0.207031 0.796875 -0.625 C 0.0351562 -1.050781 -0.4375 -1.738281 -0.625 -2.6875 C -0.675781 -2.976562 -0.707031 -3.3125 -0.71875 -3.6875 L -0.5 -22.953125 C -0.488281 -24.253906 -0.078125 -25.363281 0.734375 -26.28125 C 1.554688 -27.195312 2.644531 -27.789062 4 -28.0625 C 5.15625 -28.300781 6.113281 -28.210938 6.875 -27.796875 C 7.644531 -27.390625 8.128906 -26.707031 8.328125 -25.75 C 8.390625 -25.457031 8.421875 -25.125 8.421875 -24.75 L 8.21875 -5.5 C 8.226562 -4.226562 7.820312 -3.117188 7 -2.171875 C 6.175781 -1.234375 5.070312 -0.628906 3.6875 -0.359375 Z M 2.359375 -4.28125 C 2.347656 -4.21875 2.347656 -4.148438 2.359375 -4.078125 C 2.378906 -4.003906 2.394531 -3.941406 2.40625 -3.890625 C 2.46875 -3.566406 2.613281 -3.328125 2.84375 -3.171875 C 3.082031 -3.023438 3.375 -2.988281 3.71875 -3.0625 C 4.132812 -3.144531 4.484375 -3.351562 4.765625 -3.6875 C 5.046875 -4.03125 5.191406 -4.421875 5.203125 -4.859375 L 5.421875 -24.203125 C 5.421875 -24.285156 5.410156 -24.390625 5.390625 -24.515625 C 5.242188 -25.253906 4.78125 -25.546875 4 -25.390625 C 3.582031 -25.304688 3.238281 -25.101562 2.96875 -24.78125 C 2.707031 -24.457031 2.578125 -24.078125 2.578125 -23.640625 Z M 2.359375 -4.28125 "/></g></g></g><g fill="#000000" fill-opacity="1"><g transform="translate(32.235707, 34.061514)"><g><path d="M -0.625 0.125 L -0.359375 -26.8125 L 5.390625 -27.96875 C 6.203125 -28.132812 6.867188 -28.050781 7.390625 -27.71875 C 7.921875 -27.382812 8.257812 -26.863281 8.40625 -26.15625 C 8.4375 -26.03125 8.460938 -25.898438 8.484375 -25.765625 C 8.515625 -25.640625 8.519531 -25.492188 8.5 -25.328125 L 8.421875 -17.546875 C 8.421875 -17.015625 8.265625 -16.503906 7.953125 -16.015625 C 7.640625 -15.535156 7.238281 -15.128906 6.75 -14.796875 C 7.625 -14.566406 8.144531 -14.035156 8.3125 -13.203125 C 8.332031 -13.128906 8.347656 -13.050781 8.359375 -12.96875 C 8.378906 -12.894531 8.382812 -12.816406 8.375 -12.734375 L 8.3125 -4.9375 C 8.300781 -3.9375 8.007812 -3.082031 7.4375 -2.375 C 6.863281 -1.675781 6.09375 -1.226562 5.125 -1.03125 Z M 2.4375 -3.1875 L 4.203125 -3.546875 C 4.523438 -3.609375 4.785156 -3.753906 4.984375 -3.984375 C 5.179688 -4.210938 5.265625 -4.488281 5.234375 -4.8125 L 5.328125 -12.234375 C 5.316406 -12.285156 5.3125 -12.332031 5.3125 -12.375 C 5.320312 -12.414062 5.328125 -12.453125 5.328125 -12.484375 C 5.234375 -12.921875 4.953125 -13.09375 4.484375 -13 L 2.578125 -12.609375 Z M 2.5625 -15.3125 L 4.5 -15.703125 C 4.757812 -15.753906 4.972656 -15.882812 5.140625 -16.09375 C 5.316406 -16.3125 5.394531 -16.546875 5.375 -16.796875 L 5.484375 -24.25 C 5.484375 -24.5625 5.390625 -24.796875 5.203125 -24.953125 C 5.023438 -25.109375 4.769531 -25.148438 4.4375 -25.078125 L 2.6875 -24.734375 Z M 2.5625 -15.3125 "/></g></g></g><g fill="#000000" fill-opacity="1"><g transform="translate(43.902626, 31.714559)"><g><path d="M -0.625 0.125 L -0.359375 -26.8125 L 5.390625 -27.96875 C 6.203125 -28.132812 6.867188 -28.050781 7.390625 -27.71875 C 7.921875 -27.382812 8.257812 -26.863281 8.40625 -26.15625 C 8.4375 -26.03125 8.460938 -25.898438 8.484375 -25.765625 C 8.515625 -25.640625 8.519531 -25.492188 8.5 -25.328125 L 8.421875 -17.546875 C 8.421875 -17.015625 8.265625 -16.503906 7.953125 -16.015625 C 7.640625 -15.535156 7.238281 -15.128906 6.75 -14.796875 C 7.625 -14.566406 8.144531 -14.035156 8.3125 -13.203125 C 8.332031 -13.128906 8.347656 -13.050781 8.359375 -12.96875 C 8.378906 -12.894531 8.382812 -12.816406 8.375 -12.734375 L 8.3125 -4.9375 C 8.300781 -3.9375 8.007812 -3.082031 7.4375 -2.375 C 6.863281 -1.675781 6.09375 -1.226562 5.125 -1.03125 Z M 2.4375 -3.1875 L 4.203125 -3.546875 C 4.523438 -3.609375 4.785156 -3.753906 4.984375 -3.984375 C 5.179688 -4.210938 5.265625 -4.488281 5.234375 -4.8125 L 5.328125 -12.234375 C 5.316406 -12.285156 5.3125 -12.332031 5.3125 -12.375 C 5.320312 -12.414062 5.328125 -12.453125 5.328125 -12.484375 C 5.234375 -12.921875 4.953125 -13.09375 4.484375 -13 L 2.578125 -12.609375 Z M 2.5625 -15.3125 L 4.5 -15.703125 C 4.757812 -15.753906 4.972656 -15.882812 5.140625 -16.09375 C 5.316406 -16.3125 5.394531 -16.546875 5.375 -16.796875 L 5.484375 -24.25 C 5.484375 -24.5625 5.390625 -24.796875 5.203125 -24.953125 C 5.023438 -25.109375 4.769531 -25.148438 4.4375 -25.078125 L 2.6875 -24.734375 Z M 2.5625 -15.3125 "/></g></g></g><g fill="#000000" fill-opacity="1"><g transform="translate(55.569547, 29.367603)"><g><path d="M 7.359375 -1.484375 C 6.816406 -1.367188 6.363281 -1.414062 6 -1.625 C 5.632812 -1.832031 5.398438 -2.171875 5.296875 -2.640625 C 5.285156 -2.734375 5.273438 -2.832031 5.265625 -2.9375 C 5.265625 -3.039062 5.265625 -3.140625 5.265625 -3.234375 L 5.296875 -8.40625 C 5.285156 -8.457031 5.28125 -8.5 5.28125 -8.53125 C 5.289062 -8.570312 5.289062 -8.609375 5.28125 -8.640625 C 5.195312 -9.078125 4.894531 -9.242188 4.375 -9.140625 L 2.515625 -8.765625 L 2.4375 -0.484375 L -0.625 0.125 L -0.359375 -26.8125 L 5.390625 -27.96875 C 6.203125 -28.132812 6.867188 -28.050781 7.390625 -27.71875 C 7.921875 -27.382812 8.257812 -26.863281 8.40625 -26.15625 C 8.4375 -26.03125 8.460938 -25.898438 8.484375 -25.765625 C 8.515625 -25.640625 8.519531 -25.492188 8.5 -25.328125 L 8.375 -13.703125 C 8.375 -13.191406 8.222656 -12.695312 7.921875 -12.21875 C 7.628906 -11.738281 7.257812 -11.328125 6.8125 -10.984375 C 7.632812 -10.734375 8.128906 -10.191406 8.296875 -9.359375 C 8.304688 -9.285156 8.316406 -9.207031 8.328125 -9.125 C 8.347656 -9.050781 8.359375 -8.972656 8.359375 -8.890625 L 8.296875 -4.828125 C 8.304688 -4.796875 8.300781 -4.769531 8.28125 -4.75 C 8.269531 -4.738281 8.269531 -4.71875 8.28125 -4.6875 C 8.320312 -4.476562 8.46875 -4.398438 8.71875 -4.453125 L 9.15625 -4.53125 L 9.15625 -1.84375 Z M 2.546875 -11.453125 L 4.4375 -11.828125 C 4.695312 -11.878906 4.910156 -12.019531 5.078125 -12.25 C 5.242188 -12.476562 5.332031 -12.71875 5.34375 -12.96875 L 5.484375 -24.25 C 5.484375 -24.5625 5.382812 -24.789062 5.1875 -24.9375 C 4.988281 -25.09375 4.738281 -25.140625 4.4375 -25.078125 L 2.6875 -24.734375 Z M 2.546875 -11.453125 "/></g></g></g><g fill="#0b65ff" fill-opacity="1"><g transform="translate(7.052726, 37.429692)"><g><path d="M 3.328125 -0.28125 C 2.140625 -0.0390625 1.171875 -0.128906 0.421875 -0.546875 C -0.328125 -0.972656 -0.796875 -1.660156 -0.984375 -2.609375 C -1.035156 -2.898438 -1.070312 -3.238281 -1.09375 -3.625 L -1 -11.25 L 2.03125 -11.859375 L 1.96875 -4.203125 C 1.957031 -4.109375 1.96875 -3.992188 2 -3.859375 C 2.144531 -3.117188 2.59375 -2.828125 3.34375 -2.984375 C 3.757812 -3.066406 4.101562 -3.273438 4.375 -3.609375 C 4.644531 -3.941406 4.789062 -4.328125 4.8125 -4.765625 L 5.03125 -27.90625 L 8.09375 -28.515625 L 7.859375 -5.421875 C 7.847656 -4.148438 7.429688 -3.039062 6.609375 -2.09375 C 5.796875 -1.15625 4.703125 -0.550781 3.328125 -0.28125 Z M 3.328125 -0.28125 "/></g></g></g><g fill="#0b65ff" fill-opacity="1"><g transform="translate(18.535035, 35.119873)"><g><path d="M 3.6875 -0.359375 C 2.519531 -0.117188 1.554688 -0.207031 0.796875 -0.625 C 0.0351562 -1.050781 -0.4375 -1.738281 -0.625 -2.6875 C -0.675781 -2.976562 -0.707031 -3.3125 -0.71875 -3.6875 L -0.5 -22.953125 C -0.488281 -24.253906 -0.078125 -25.363281 0.734375 -26.28125 C 1.554688 -27.195312 2.644531 -27.789062 4 -28.0625 C 5.15625 -28.300781 6.113281 -28.210938 6.875 -27.796875 C 7.644531 -27.390625 8.128906 -26.707031 8.328125 -25.75 C 8.390625 -25.457031 8.421875 -25.125 8.421875 -24.75 L 8.21875 -5.5 C 8.226562 -4.226562 7.820312 -3.117188 7 -2.171875 C 6.175781 -1.234375 5.070312 -0.628906 3.6875 -0.359375 Z M 2.359375 -4.28125 C 2.347656 -4.21875 2.347656 -4.148438 2.359375 -4.078125 C 2.378906 -4.003906 2.394531 -3.941406 2.40625 -3.890625 C 2.46875 -3.566406 2.613281 -3.328125 2.84375 -3.171875 C 3.082031 -3.023438 3.375 -2.988281 3.71875 -3.0625 C 4.132812 -3.144531 4.484375 -3.351562 4.765625 -3.6875 C 5.046875 -4.03125 5.191406 -4.421875 5.203125 -4.859375 L 5.421875 -24.203125 C 5.421875 -24.285156 5.410156 -24.390625 5.390625 -24.515625 C 5.242188 -25.253906 4.78125 -25.546875 4 -25.390625 C 3.582031 -25.304688 3.238281 -25.101562 2.96875 -24.78125 C 2.707031 -24.457031 2.578125 -24.078125 2.578125 -23.640625 Z M 2.359375 -4.28125 "/></g></g></g><g fill="#0b65ff" fill-opacity="1"><g transform="translate(30.27579, 32.758065)"><g><path d="M -0.625 0.125 L -0.359375 -26.8125 L 5.390625 -27.96875 C 6.203125 -28.132812 6.867188 -28.050781 7.390625 -27.71875 C 7.921875 -27.382812 8.257812 -26.863281 8.40625 -26.15625 C 8.4375 -26.03125 8.460938 -25.898438 8.484375 -25.765625 C 8.515625 -25.640625 8.519531 -25.492188 8.5 -25.328125 L 8.421875 -17.546875 C 8.421875 -17.015625 8.265625 -16.503906 7.953125 -16.015625 C 7.640625 -15.535156 7.238281 -15.128906 6.75 -14.796875 C 7.625 -14.566406 8.144531 -14.035156 8.3125 -13.203125 C 8.332031 -13.128906 8.347656 -13.050781 8.359375 -12.96875 C 8.378906 -12.894531 8.382812 -12.816406 8.375 -12.734375 L 8.3125 -4.9375 C 8.300781 -3.9375 8.007812 -3.082031 7.4375 -2.375 C 6.863281 -1.675781 6.09375 -1.226562 5.125 -1.03125 Z M 2.4375 -3.1875 L 4.203125 -3.546875 C 4.523438 -3.609375 4.785156 -3.753906 4.984375 -3.984375 C 5.179688 -4.210938 5.265625 -4.488281 5.234375 -4.8125 L 5.328125 -12.234375 C 5.316406 -12.285156 5.3125 -12.332031 5.3125 -12.375 C 5.320312 -12.414062 5.328125 -12.453125 5.328125 -12.484375 C 5.234375 -12.921875 4.953125 -13.09375 4.484375 -13 L 2.578125 -12.609375 Z M 2.5625 -15.3125 L 4.5 -15.703125 C 4.757812 -15.753906 4.972656 -15.882812 5.140625 -16.09375 C 5.316406 -16.3125 5.394531 -16.546875 5.375 -16.796875 L 5.484375 -24.25 C 5.484375 -24.5625 5.390625 -24.796875 5.203125 -24.953125 C 5.023438 -25.109375 4.769531 -25.148438 4.4375 -25.078125 L 2.6875 -24.734375 Z M 2.5625 -15.3125 "/></g></g></g><g fill="#0b65ff" fill-opacity="1"><g transform="translate(41.942709, 30.41111)"><g><path d="M -0.625 0.125 L -0.359375 -26.8125 L 5.390625 -27.96875 C 6.203125 -28.132812 6.867188 -28.050781 7.390625 -27.71875 C 7.921875 -27.382812 8.257812 -26.863281 8.40625 -26.15625 C 8.4375 -26.03125 8.460938 -25.898438 8.484375 -25.765625 C 8.515625 -25.640625 8.519531 -25.492188 8.5 -25.328125 L 8.421875 -17.546875 C 8.421875 -17.015625 8.265625 -16.503906 7.953125 -16.015625 C 7.640625 -15.535156 7.238281 -15.128906 6.75 -14.796875 C 7.625 -14.566406 8.144531 -14.035156 8.3125 -13.203125 C 8.332031 -13.128906 8.347656 -13.050781 8.359375 -12.96875 C 8.378906 -12.894531 8.382812 -12.816406 8.375 -12.734375 L 8.3125 -4.9375 C 8.300781 -3.9375 8.007812 -3.082031 7.4375 -2.375 C 6.863281 -1.675781 6.09375 -1.226562 5.125 -1.03125 Z M 2.4375 -3.1875 L 4.203125 -3.546875 C 4.523438 -3.609375 4.785156 -3.753906 4.984375 -3.984375 C 5.179688 -4.210938 5.265625 -4.488281 5.234375 -4.8125 L 5.328125 -12.234375 C 5.316406 -12.285156 5.3125 -12.332031 5.3125 -12.375 C 5.320312 -12.414062 5.328125 -12.453125 5.328125 -12.484375 C 5.234375 -12.921875 4.953125 -13.09375 4.484375 -13 L 2.578125 -12.609375 Z M 2.5625 -15.3125 L 4.5 -15.703125 C 4.757812 -15.753906 4.972656 -15.882812 5.140625 -16.09375 C 5.316406 -16.3125 5.394531 -16.546875 5.375 -16.796875 L 5.484375 -24.25 C 5.484375 -24.5625 5.390625 -24.796875 5.203125 -24.953125 C 5.023438 -25.109375 4.769531 -25.148438 4.4375 -25.078125 L 2.6875 -24.734375 Z M 2.5625 -15.3125 "/></g></g></g><g fill="#0b65ff" fill-opacity="1"><g transform="translate(53.609629, 28.064155)"><g><path d="M 7.359375 -1.484375 C 6.816406 -1.367188 6.363281 -1.414062 6 -1.625 C 5.632812 -1.832031 5.398438 -2.171875 5.296875 -2.640625 C 5.285156 -2.734375 5.273438 -2.832031 5.265625 -2.9375 C 5.265625 -3.039062 5.265625 -3.140625 5.265625 -3.234375 L 5.296875 -8.40625 C 5.285156 -8.457031 5.28125 -8.5 5.28125 -8.53125 C 5.289062 -8.570312 5.289062 -8.609375 5.28125 -8.640625 C 5.195312 -9.078125 4.894531 -9.242188 4.375 -9.140625 L 2.515625 -8.765625 L 2.4375 -0.484375 L -0.625 0.125 L -0.359375 -26.8125 L 5.390625 -27.96875 C 6.203125 -28.132812 6.867188 -28.050781 7.390625 -27.71875 C 7.921875 -27.382812 8.257812 -26.863281 8.40625 -26.15625 C 8.4375 -26.03125 8.460938 -25.898438 8.484375 -25.765625 C 8.515625 -25.640625 8.519531 -25.492188 8.5 -25.328125 L 8.375 -13.703125 C 8.375 -13.191406 8.222656 -12.695312 7.921875 -12.21875 C 7.628906 -11.738281 7.257812 -11.328125 6.8125 -10.984375 C 7.632812 -10.734375 8.128906 -10.191406 8.296875 -9.359375 C 8.304688 -9.285156 8.316406 -9.207031 8.328125 -9.125 C 8.347656 -9.050781 8.359375 -8.972656 8.359375 -8.890625 L 8.296875 -4.828125 C 8.304688 -4.796875 8.300781 -4.769531 8.28125 -4.75 C 8.269531 -4.738281 8.269531 -4.71875 8.28125 -4.6875 C 8.320312 -4.476562 8.46875 -4.398438 8.71875 -4.453125 L 9.15625 -4.53125 L 9.15625 -1.84375 Z M 2.546875 -11.453125 L 4.4375 -11.828125 C 4.695312 -11.878906 4.910156 -12.019531 5.078125 -12.25 C 5.242188 -12.476562 5.332031 -12.71875 5.34375 -12.96875 L 5.484375 -24.25 C 5.484375 -24.5625 5.382812 -24.789062 5.1875 -24.9375 C 4.988281 -25.09375 4.738281 -25.140625 4.4375 -25.078125 L 2.6875 -24.734375 Z M 2.546875 -11.453125 "/></g></g></g><g fill="#000000" fill-opacity="1"><g transform="translate(67.605784, 26.946355)"><g/></g></g><g fill="#0b65ff" fill-opacity="1"><g transform="translate(65.645866, 25.642907)"><g/></g></g><g fill="#000000" fill-opacity="1"><g transform="translate(55.196805, 36.694523)"><g><path d="M 1.046875 -0.1875 C 0.992188 -0.175781 0.945312 -0.179688 0.90625 -0.203125 C 0.832031 -0.191406 0.757812 -0.207031 0.6875 -0.25 C 0.613281 -0.289062 0.566406 -0.347656 0.546875 -0.421875 C 0.523438 -0.523438 0.546875 -0.597656 0.609375 -0.640625 C 0.679688 -0.691406 0.75 -0.722656 0.8125 -0.734375 C 0.863281 -0.742188 0.914062 -0.75 0.96875 -0.75 C 1.03125 -0.75 1.070312 -0.753906 1.09375 -0.765625 C 1.144531 -0.773438 1.207031 -0.800781 1.28125 -0.84375 C 1.320312 -0.875 1.363281 -0.910156 1.40625 -0.953125 C 1.445312 -1.003906 1.476562 -1.046875 1.5 -1.078125 C 1.550781 -1.171875 1.597656 -1.265625 1.640625 -1.359375 C 1.679688 -1.453125 1.710938 -1.546875 1.734375 -1.640625 C 1.753906 -1.734375 1.773438 -1.832031 1.796875 -1.9375 C 1.828125 -2.039062 1.84375 -2.140625 1.84375 -2.234375 C 1.84375 -2.285156 1.84375 -2.328125 1.84375 -2.359375 C 1.84375 -2.390625 1.835938 -2.414062 1.828125 -2.4375 C 1.828125 -2.476562 1.816406 -2.515625 1.796875 -2.546875 C 1.765625 -2.585938 1.726562 -2.601562 1.6875 -2.59375 C 1.601562 -2.582031 1.507812 -2.523438 1.40625 -2.421875 C 1.3125 -2.316406 1.21875 -2.195312 1.125 -2.0625 C 1.03125 -1.925781 0.953125 -1.800781 0.890625 -1.6875 C 0.859375 -1.601562 0.8125 -1.507812 0.75 -1.40625 C 0.6875 -1.3125 0.632812 -1.21875 0.59375 -1.125 C 0.550781 -1.019531 0.503906 -0.898438 0.453125 -0.765625 C 0.410156 -0.640625 0.375 -0.546875 0.34375 -0.484375 C 0.320312 -0.398438 0.300781 -0.3125 0.28125 -0.21875 C 0.257812 -0.132812 0.207031 -0.0859375 0.125 -0.078125 C 0.0703125 -0.0664062 0.03125 -0.078125 0 -0.109375 C -0.03125 -0.140625 -0.0507812 -0.1875 -0.0625 -0.25 C -0.0703125 -0.3125 -0.078125 -0.367188 -0.078125 -0.421875 C -0.078125 -0.472656 -0.0664062 -0.519531 -0.046875 -0.5625 C -0.0351562 -0.675781 -0.0195312 -0.789062 0 -0.90625 C 0.0078125 -1.019531 0.0234375 -1.128906 0.046875 -1.234375 C 0.0664062 -1.335938 0.0820312 -1.445312 0.09375 -1.5625 C 0.101562 -1.675781 0.113281 -1.785156 0.125 -1.890625 C 0.132812 -1.941406 0.144531 -1.992188 0.15625 -2.046875 C 0.164062 -2.109375 0.164062 -2.15625 0.15625 -2.1875 C 0.144531 -2.226562 0.128906 -2.265625 0.109375 -2.296875 C 0.0976562 -2.328125 0.09375 -2.359375 0.09375 -2.390625 C 0.0703125 -2.453125 0.0859375 -2.507812 0.140625 -2.5625 C 0.191406 -2.625 0.234375 -2.6875 0.265625 -2.75 C 0.285156 -2.800781 0.296875 -2.847656 0.296875 -2.890625 C 0.304688 -2.941406 0.320312 -3 0.34375 -3.0625 C 0.363281 -3.175781 0.390625 -3.285156 0.421875 -3.390625 C 0.453125 -3.492188 0.472656 -3.597656 0.484375 -3.703125 C 0.523438 -3.796875 0.554688 -3.894531 0.578125 -4 C 0.609375 -4.101562 0.644531 -4.207031 0.6875 -4.3125 C 0.726562 -4.414062 0.769531 -4.515625 0.8125 -4.609375 C 0.851562 -4.703125 0.910156 -4.796875 0.984375 -4.890625 C 1.015625 -4.972656 1.070312 -5.054688 1.15625 -5.140625 C 1.25 -5.222656 1.347656 -5.273438 1.453125 -5.296875 C 1.566406 -5.316406 1.664062 -5.296875 1.75 -5.234375 C 1.84375 -5.171875 1.90625 -5.070312 1.9375 -4.9375 C 1.945312 -4.863281 1.945312 -4.78125 1.9375 -4.6875 C 1.925781 -4.601562 1.914062 -4.519531 1.90625 -4.4375 C 1.851562 -4.226562 1.78125 -4.035156 1.6875 -3.859375 C 1.59375 -3.691406 1.484375 -3.515625 1.359375 -3.328125 C 1.304688 -3.242188 1.242188 -3.160156 1.171875 -3.078125 C 1.109375 -3.003906 1.039062 -2.925781 0.96875 -2.84375 C 0.9375 -2.800781 0.898438 -2.753906 0.859375 -2.703125 C 0.816406 -2.660156 0.78125 -2.617188 0.75 -2.578125 C 0.675781 -2.503906 0.628906 -2.40625 0.609375 -2.28125 C 0.597656 -2.269531 0.585938 -2.226562 0.578125 -2.15625 C 0.566406 -2.082031 0.566406 -2.023438 0.578125 -1.984375 C 0.578125 -1.960938 0.585938 -1.953125 0.609375 -1.953125 C 0.617188 -1.960938 0.628906 -1.976562 0.640625 -2 C 0.648438 -2.03125 0.675781 -2.070312 0.71875 -2.125 C 0.726562 -2.144531 0.738281 -2.164062 0.75 -2.1875 C 0.769531 -2.21875 0.796875 -2.25 0.828125 -2.28125 C 0.847656 -2.332031 0.875 -2.378906 0.90625 -2.421875 C 0.945312 -2.460938 0.976562 -2.507812 1 -2.5625 C 1.03125 -2.601562 1.0625 -2.640625 1.09375 -2.671875 C 1.125 -2.710938 1.15625 -2.753906 1.1875 -2.796875 C 1.269531 -2.859375 1.351562 -2.914062 1.4375 -2.96875 C 1.53125 -3.03125 1.617188 -3.070312 1.703125 -3.09375 C 1.785156 -3.101562 1.875 -3.085938 1.96875 -3.046875 C 2.070312 -3.003906 2.144531 -2.929688 2.1875 -2.828125 C 2.226562 -2.765625 2.257812 -2.679688 2.28125 -2.578125 C 2.3125 -2.421875 2.3125 -2.25 2.28125 -2.0625 C 2.25 -1.875 2.207031 -1.710938 2.15625 -1.578125 C 2.144531 -1.546875 2.132812 -1.515625 2.125 -1.484375 C 2.113281 -1.453125 2.109375 -1.425781 2.109375 -1.40625 C 2.117188 -1.375 2.132812 -1.359375 2.15625 -1.359375 C 2.195312 -1.367188 2.234375 -1.390625 2.265625 -1.421875 C 2.296875 -1.460938 2.320312 -1.5 2.34375 -1.53125 C 2.414062 -1.601562 2.476562 -1.675781 2.53125 -1.75 C 2.59375 -1.832031 2.644531 -1.925781 2.6875 -2.03125 C 2.71875 -2.082031 2.742188 -2.132812 2.765625 -2.1875 C 2.785156 -2.25 2.800781 -2.304688 2.8125 -2.359375 C 2.832031 -2.410156 2.851562 -2.453125 2.875 -2.484375 C 2.90625 -2.523438 2.945312 -2.550781 3 -2.5625 C 3.050781 -2.570312 3.09375 -2.5625 3.125 -2.53125 C 3.164062 -2.507812 3.191406 -2.472656 3.203125 -2.421875 C 3.210938 -2.390625 3.210938 -2.347656 3.203125 -2.296875 C 3.191406 -2.253906 3.191406 -2.21875 3.203125 -2.1875 C 3.054688 -1.769531 2.820312 -1.410156 2.5 -1.109375 C 2.414062 -1.035156 2.332031 -0.96875 2.25 -0.90625 C 2.164062 -0.851562 2.078125 -0.800781 1.984375 -0.75 C 1.941406 -0.738281 1.894531 -0.710938 1.84375 -0.671875 C 1.789062 -0.640625 1.738281 -0.609375 1.6875 -0.578125 C 1.632812 -0.546875 1.585938 -0.515625 1.546875 -0.484375 C 1.515625 -0.460938 1.472656 -0.4375 1.421875 -0.40625 C 1.359375 -0.351562 1.296875 -0.304688 1.234375 -0.265625 C 1.171875 -0.234375 1.109375 -0.207031 1.046875 -0.1875 Z M 0.8125 -3.21875 C 0.832031 -3.226562 0.859375 -3.25 0.890625 -3.28125 C 0.921875 -3.320312 0.945312 -3.347656 0.96875 -3.359375 C 1.007812 -3.441406 1.066406 -3.550781 1.140625 -3.6875 C 1.222656 -3.820312 1.285156 -3.941406 1.328125 -4.046875 C 1.359375 -4.097656 1.390625 -4.160156 1.421875 -4.234375 C 1.453125 -4.304688 1.476562 -4.375 1.5 -4.4375 C 1.519531 -4.476562 1.535156 -4.539062 1.546875 -4.625 C 1.566406 -4.707031 1.570312 -4.773438 1.5625 -4.828125 C 1.550781 -4.878906 1.53125 -4.90625 1.5 -4.90625 C 1.46875 -4.894531 1.4375 -4.867188 1.40625 -4.828125 C 1.375 -4.796875 1.351562 -4.773438 1.34375 -4.765625 C 1.3125 -4.722656 1.273438 -4.664062 1.234375 -4.59375 C 1.203125 -4.53125 1.175781 -4.472656 1.15625 -4.421875 C 1.125 -4.304688 1.085938 -4.195312 1.046875 -4.09375 C 1.003906 -3.988281 0.960938 -3.890625 0.921875 -3.796875 C 0.910156 -3.765625 0.890625 -3.710938 0.859375 -3.640625 C 0.835938 -3.566406 0.820312 -3.492188 0.8125 -3.421875 C 0.800781 -3.359375 0.789062 -3.3125 0.78125 -3.28125 C 0.789062 -3.269531 0.796875 -3.257812 0.796875 -3.25 C 0.796875 -3.226562 0.800781 -3.21875 0.8125 -3.21875 Z M 0.8125 -3.21875 "/></g></g></g><g fill="#000000" fill-opacity="1"><g transform="translate(57.867261, 36.157326)"><g><path d="M 0.5625 2.546875 C 0.46875 2.566406 0.382812 2.578125 0.3125 2.578125 C 0.101562 2.546875 -0.0546875 2.453125 -0.171875 2.296875 C -0.191406 2.265625 -0.207031 2.226562 -0.21875 2.1875 C -0.226562 2.144531 -0.238281 2.109375 -0.25 2.078125 C -0.257812 2.023438 -0.257812 1.96875 -0.25 1.90625 C -0.25 1.84375 -0.238281 1.773438 -0.21875 1.703125 C -0.195312 1.585938 -0.160156 1.484375 -0.109375 1.390625 C -0.0664062 1.304688 -0.015625 1.222656 0.046875 1.140625 C 0.160156 0.960938 0.28125 0.800781 0.40625 0.65625 C 0.539062 0.507812 0.6875 0.367188 0.84375 0.234375 C 0.914062 0.179688 0.988281 0.117188 1.0625 0.046875 C 1.144531 -0.0234375 1.21875 -0.09375 1.28125 -0.15625 C 1.320312 -0.1875 1.359375 -0.21875 1.390625 -0.25 C 1.429688 -0.289062 1.460938 -0.328125 1.484375 -0.359375 C 1.515625 -0.378906 1.539062 -0.394531 1.5625 -0.40625 C 1.582031 -0.425781 1.601562 -0.445312 1.625 -0.46875 C 1.675781 -0.507812 1.707031 -0.550781 1.71875 -0.59375 C 1.738281 -0.613281 1.75 -0.644531 1.75 -0.6875 C 1.75 -0.726562 1.75 -0.769531 1.75 -0.8125 C 1.75 -0.820312 1.75 -0.851562 1.75 -0.90625 C 1.75 -0.957031 1.75 -1 1.75 -1.03125 C 1.738281 -1.0625 1.722656 -1.078125 1.703125 -1.078125 C 1.691406 -1.066406 1.675781 -1.050781 1.65625 -1.03125 C 1.644531 -1.007812 1.632812 -0.988281 1.625 -0.96875 C 1.613281 -0.9375 1.597656 -0.90625 1.578125 -0.875 C 1.566406 -0.851562 1.554688 -0.832031 1.546875 -0.8125 C 1.523438 -0.78125 1.5 -0.742188 1.46875 -0.703125 C 1.4375 -0.660156 1.398438 -0.613281 1.359375 -0.5625 C 1.296875 -0.46875 1.210938 -0.378906 1.109375 -0.296875 C 1.015625 -0.210938 0.90625 -0.160156 0.78125 -0.140625 C 0.707031 -0.128906 0.632812 -0.128906 0.5625 -0.140625 C 0.5 -0.148438 0.429688 -0.179688 0.359375 -0.234375 C 0.304688 -0.285156 0.253906 -0.359375 0.203125 -0.453125 C 0.148438 -0.546875 0.113281 -0.644531 0.09375 -0.75 C 0.0703125 -0.84375 0.0625 -0.945312 0.0625 -1.0625 C 0.0625 -1.175781 0.0703125 -1.285156 0.09375 -1.390625 C 0.09375 -1.492188 0.101562 -1.601562 0.125 -1.71875 C 0.144531 -1.832031 0.164062 -1.9375 0.1875 -2.03125 C 0.226562 -2.113281 0.265625 -2.203125 0.296875 -2.296875 C 0.328125 -2.398438 0.363281 -2.492188 0.40625 -2.578125 C 0.4375 -2.640625 0.472656 -2.695312 0.515625 -2.75 C 0.554688 -2.8125 0.597656 -2.847656 0.640625 -2.859375 C 0.703125 -2.867188 0.753906 -2.859375 0.796875 -2.828125 C 0.847656 -2.804688 0.878906 -2.765625 0.890625 -2.703125 C 0.898438 -2.628906 0.890625 -2.554688 0.859375 -2.484375 C 0.828125 -2.410156 0.796875 -2.34375 0.765625 -2.28125 C 0.722656 -2.1875 0.691406 -2.085938 0.671875 -1.984375 C 0.648438 -1.878906 0.625 -1.769531 0.59375 -1.65625 C 0.570312 -1.550781 0.554688 -1.445312 0.546875 -1.34375 C 0.535156 -1.238281 0.523438 -1.128906 0.515625 -1.015625 C 0.515625 -0.984375 0.515625 -0.941406 0.515625 -0.890625 C 0.515625 -0.835938 0.519531 -0.789062 0.53125 -0.75 C 0.5625 -0.59375 0.628906 -0.523438 0.734375 -0.546875 C 0.773438 -0.554688 0.8125 -0.578125 0.84375 -0.609375 C 0.882812 -0.640625 0.921875 -0.664062 0.953125 -0.6875 C 0.984375 -0.726562 1.015625 -0.769531 1.046875 -0.8125 C 1.078125 -0.851562 1.101562 -0.890625 1.125 -0.921875 C 1.1875 -1.015625 1.242188 -1.109375 1.296875 -1.203125 C 1.347656 -1.296875 1.394531 -1.390625 1.4375 -1.484375 C 1.488281 -1.578125 1.53125 -1.671875 1.5625 -1.765625 C 1.601562 -1.867188 1.632812 -1.972656 1.65625 -2.078125 C 1.6875 -2.179688 1.71875 -2.28125 1.75 -2.375 C 1.757812 -2.40625 1.765625 -2.445312 1.765625 -2.5 C 1.773438 -2.5625 1.796875 -2.613281 1.828125 -2.65625 C 1.859375 -2.726562 1.910156 -2.773438 1.984375 -2.796875 C 2.085938 -2.816406 2.164062 -2.773438 2.21875 -2.671875 C 2.226562 -2.640625 2.234375 -2.613281 2.234375 -2.59375 C 2.242188 -2.550781 2.25 -2.507812 2.25 -2.46875 C 2.25 -2.4375 2.242188 -2.40625 2.234375 -2.375 C 2.234375 -2.3125 2.234375 -2.253906 2.234375 -2.203125 C 2.234375 -2.148438 2.226562 -2.097656 2.21875 -2.046875 C 2.21875 -1.929688 2.21875 -1.820312 2.21875 -1.71875 C 2.21875 -1.625 2.210938 -1.523438 2.203125 -1.421875 C 2.203125 -1.390625 2.195312 -1.347656 2.1875 -1.296875 C 2.175781 -1.242188 2.175781 -1.203125 2.1875 -1.171875 C 2.195312 -1.109375 2.21875 -1.082031 2.25 -1.09375 C 2.28125 -1.09375 2.3125 -1.113281 2.34375 -1.15625 C 2.382812 -1.207031 2.410156 -1.238281 2.421875 -1.25 C 2.535156 -1.414062 2.640625 -1.585938 2.734375 -1.765625 C 2.773438 -1.859375 2.816406 -1.957031 2.859375 -2.0625 C 2.910156 -2.175781 2.945312 -2.285156 2.96875 -2.390625 C 2.988281 -2.421875 3.003906 -2.453125 3.015625 -2.484375 C 3.035156 -2.515625 3.066406 -2.535156 3.109375 -2.546875 C 3.148438 -2.554688 3.195312 -2.546875 3.25 -2.515625 C 3.3125 -2.484375 3.347656 -2.441406 3.359375 -2.390625 C 3.367188 -2.347656 3.363281 -2.300781 3.34375 -2.25 C 3.332031 -2.207031 3.320312 -2.160156 3.3125 -2.109375 C 3.289062 -2.066406 3.269531 -2.015625 3.25 -1.953125 C 3.238281 -1.898438 3.222656 -1.847656 3.203125 -1.796875 C 3.128906 -1.617188 3.035156 -1.441406 2.921875 -1.265625 C 2.859375 -1.179688 2.796875 -1.097656 2.734375 -1.015625 C 2.679688 -0.929688 2.617188 -0.847656 2.546875 -0.765625 C 2.515625 -0.722656 2.476562 -0.679688 2.4375 -0.640625 C 2.394531 -0.609375 2.351562 -0.570312 2.3125 -0.53125 C 2.28125 -0.5 2.242188 -0.460938 2.203125 -0.421875 C 2.160156 -0.390625 2.125 -0.359375 2.09375 -0.328125 C 2.082031 -0.296875 2.070312 -0.253906 2.0625 -0.203125 C 2.0625 -0.148438 2.054688 -0.101562 2.046875 -0.0625 C 2.035156 -0.0078125 2.03125 0.0351562 2.03125 0.078125 C 2.03125 0.128906 2.023438 0.179688 2.015625 0.234375 C 1.972656 0.441406 1.914062 0.640625 1.84375 0.828125 C 1.769531 1.015625 1.695312 1.207031 1.625 1.40625 C 1.550781 1.613281 1.453125 1.800781 1.328125 1.96875 C 1.210938 2.132812 1.066406 2.285156 0.890625 2.421875 C 0.785156 2.484375 0.675781 2.523438 0.5625 2.546875 Z M 0.453125 2.171875 C 0.546875 2.148438 0.628906 2.101562 0.703125 2.03125 C 0.785156 1.96875 0.851562 1.90625 0.90625 1.84375 C 1.019531 1.707031 1.109375 1.5625 1.171875 1.40625 C 1.222656 1.3125 1.265625 1.226562 1.296875 1.15625 C 1.335938 1.09375 1.375 1.019531 1.40625 0.9375 C 1.4375 0.851562 1.460938 0.765625 1.484375 0.671875 C 1.515625 0.578125 1.546875 0.488281 1.578125 0.40625 C 1.578125 0.375 1.585938 0.328125 1.609375 0.265625 C 1.628906 0.203125 1.640625 0.15625 1.640625 0.125 C 1.628906 0.09375 1.609375 0.0820312 1.578125 0.09375 C 1.546875 0.09375 1.507812 0.109375 1.46875 0.140625 C 1.4375 0.179688 1.410156 0.207031 1.390625 0.21875 C 1.265625 0.34375 1.144531 0.46875 1.03125 0.59375 C 0.925781 0.71875 0.816406 0.84375 0.703125 0.96875 C 0.640625 1.03125 0.578125 1.097656 0.515625 1.171875 C 0.453125 1.242188 0.394531 1.320312 0.34375 1.40625 C 0.300781 1.488281 0.253906 1.582031 0.203125 1.6875 C 0.160156 1.789062 0.148438 1.894531 0.171875 2 C 0.179688 2.0625 0.210938 2.109375 0.265625 2.140625 C 0.316406 2.171875 0.378906 2.179688 0.453125 2.171875 Z M 0.453125 2.171875 "/></g></g></g><g fill="#000000" fill-opacity="1"><g transform="translate(60.686946, 35.590109)"><g><path d="M 2.515625 -0.03125 C 2.328125 0 2.175781 -0.0351562 2.0625 -0.140625 C 1.957031 -0.253906 1.882812 -0.398438 1.84375 -0.578125 C 1.8125 -0.742188 1.800781 -0.921875 1.8125 -1.109375 C 1.832031 -1.296875 1.863281 -1.484375 1.90625 -1.671875 C 1.9375 -1.847656 1.972656 -2.03125 2.015625 -2.21875 C 2.054688 -2.40625 2.09375 -2.59375 2.125 -2.78125 C 2.15625 -2.988281 2.1875 -3.1875 2.21875 -3.375 C 2.257812 -3.570312 2.289062 -3.78125 2.3125 -4 C 2.320312 -4.09375 2.328125 -4.195312 2.328125 -4.3125 C 2.335938 -4.4375 2.332031 -4.554688 2.3125 -4.671875 C 2.300781 -4.742188 2.273438 -4.804688 2.234375 -4.859375 C 2.191406 -4.921875 2.117188 -4.941406 2.015625 -4.921875 C 1.953125 -4.910156 1.890625 -4.890625 1.828125 -4.859375 C 1.773438 -4.828125 1.726562 -4.796875 1.6875 -4.765625 C 1.601562 -4.703125 1.53125 -4.632812 1.46875 -4.5625 C 1.40625 -4.488281 1.347656 -4.410156 1.296875 -4.328125 C 1.203125 -4.179688 1.117188 -4.023438 1.046875 -3.859375 C 0.972656 -3.691406 0.929688 -3.519531 0.921875 -3.34375 C 0.910156 -3.289062 0.90625 -3.242188 0.90625 -3.203125 C 0.90625 -3.171875 0.910156 -3.132812 0.921875 -3.09375 C 0.929688 -3.019531 0.960938 -2.960938 1.015625 -2.921875 C 1.054688 -2.878906 1.109375 -2.84375 1.171875 -2.8125 C 1.242188 -2.78125 1.285156 -2.726562 1.296875 -2.65625 C 1.316406 -2.582031 1.300781 -2.519531 1.25 -2.46875 C 1.207031 -2.425781 1.15625 -2.398438 1.09375 -2.390625 C 0.988281 -2.367188 0.894531 -2.390625 0.8125 -2.453125 C 0.726562 -2.523438 0.660156 -2.601562 0.609375 -2.6875 C 0.546875 -2.789062 0.503906 -2.90625 0.484375 -3.03125 C 0.441406 -3.226562 0.4375 -3.429688 0.46875 -3.640625 C 0.507812 -3.859375 0.578125 -4.0625 0.671875 -4.25 C 0.773438 -4.4375 0.882812 -4.601562 1 -4.75 C 1.101562 -4.90625 1.234375 -5.046875 1.390625 -5.171875 C 1.554688 -5.296875 1.734375 -5.375 1.921875 -5.40625 C 2.066406 -5.4375 2.210938 -5.425781 2.359375 -5.375 C 2.503906 -5.332031 2.609375 -5.242188 2.671875 -5.109375 C 2.734375 -5.023438 2.78125 -4.914062 2.8125 -4.78125 C 2.832031 -4.65625 2.84375 -4.53125 2.84375 -4.40625 C 2.84375 -4.289062 2.835938 -4.179688 2.828125 -4.078125 C 2.816406 -3.878906 2.796875 -3.6875 2.765625 -3.5 C 2.734375 -3.320312 2.695312 -3.128906 2.65625 -2.921875 C 2.625 -2.734375 2.585938 -2.539062 2.546875 -2.34375 C 2.503906 -2.15625 2.46875 -1.972656 2.4375 -1.796875 C 2.414062 -1.679688 2.390625 -1.550781 2.359375 -1.40625 C 2.335938 -1.257812 2.320312 -1.117188 2.3125 -0.984375 C 2.300781 -0.859375 2.300781 -0.753906 2.3125 -0.671875 C 2.320312 -0.628906 2.335938 -0.59375 2.359375 -0.5625 C 2.390625 -0.53125 2.429688 -0.519531 2.484375 -0.53125 C 2.566406 -0.550781 2.632812 -0.597656 2.6875 -0.671875 C 2.738281 -0.742188 2.785156 -0.820312 2.828125 -0.90625 C 2.910156 -1.019531 2.984375 -1.144531 3.046875 -1.28125 C 3.117188 -1.414062 3.179688 -1.546875 3.234375 -1.671875 C 3.359375 -1.941406 3.460938 -2.210938 3.546875 -2.484375 C 3.640625 -2.765625 3.71875 -3.046875 3.78125 -3.328125 C 3.832031 -3.523438 3.878906 -3.722656 3.921875 -3.921875 C 3.960938 -4.128906 4 -4.328125 4.03125 -4.515625 C 4.039062 -4.617188 4.054688 -4.710938 4.078125 -4.796875 C 4.109375 -4.890625 4.140625 -4.984375 4.171875 -5.078125 C 4.179688 -5.160156 4.195312 -5.238281 4.21875 -5.3125 C 4.25 -5.382812 4.304688 -5.429688 4.390625 -5.453125 C 4.453125 -5.460938 4.507812 -5.445312 4.5625 -5.40625 C 4.625 -5.375 4.664062 -5.320312 4.6875 -5.25 C 4.695312 -5.175781 4.6875 -5.09375 4.65625 -5 C 4.625 -4.90625 4.601562 -4.820312 4.59375 -4.75 C 4.550781 -4.582031 4.515625 -4.410156 4.484375 -4.234375 C 4.453125 -4.054688 4.421875 -3.882812 4.390625 -3.71875 C 4.335938 -3.519531 4.300781 -3.316406 4.28125 -3.109375 C 4.269531 -2.910156 4.257812 -2.707031 4.25 -2.5 C 4.238281 -2.320312 4.226562 -2.144531 4.21875 -1.96875 C 4.21875 -1.800781 4.238281 -1.632812 4.28125 -1.46875 C 4.300781 -1.351562 4.332031 -1.257812 4.375 -1.1875 C 4.414062 -1.125 4.488281 -1.101562 4.59375 -1.125 C 4.664062 -1.132812 4.738281 -1.171875 4.8125 -1.234375 C 4.882812 -1.296875 4.941406 -1.351562 4.984375 -1.40625 C 5.097656 -1.550781 5.195312 -1.703125 5.28125 -1.859375 C 5.375 -2.023438 5.460938 -2.1875 5.546875 -2.34375 C 5.703125 -2.75 5.828125 -3.160156 5.921875 -3.578125 C 5.992188 -3.921875 6.039062 -4.265625 6.0625 -4.609375 C 6.082031 -4.742188 6.09375 -4.882812 6.09375 -5.03125 C 6.09375 -5.1875 6.078125 -5.335938 6.046875 -5.484375 C 6.023438 -5.597656 5.972656 -5.6875 5.890625 -5.75 C 5.867188 -5.78125 5.835938 -5.8125 5.796875 -5.84375 C 5.765625 -5.875 5.742188 -5.914062 5.734375 -5.96875 C 5.722656 -6.03125 5.734375 -6.085938 5.765625 -6.140625 C 5.804688 -6.203125 5.863281 -6.238281 5.9375 -6.25 C 6.050781 -6.269531 6.148438 -6.242188 6.234375 -6.171875 C 6.316406 -6.097656 6.378906 -6.007812 6.421875 -5.90625 C 6.472656 -5.800781 6.507812 -5.703125 6.53125 -5.609375 C 6.570312 -5.421875 6.585938 -5.226562 6.578125 -5.03125 C 6.566406 -4.832031 6.550781 -4.632812 6.53125 -4.4375 C 6.519531 -4.25 6.492188 -4.050781 6.453125 -3.84375 C 6.421875 -3.644531 6.382812 -3.453125 6.34375 -3.265625 C 6.269531 -2.941406 6.171875 -2.632812 6.046875 -2.34375 C 5.984375 -2.144531 5.90625 -1.953125 5.8125 -1.765625 C 5.71875 -1.585938 5.609375 -1.410156 5.484375 -1.234375 C 5.390625 -1.097656 5.273438 -0.96875 5.140625 -0.84375 C 5.015625 -0.71875 4.859375 -0.632812 4.671875 -0.59375 C 4.535156 -0.570312 4.40625 -0.585938 4.28125 -0.640625 C 4.164062 -0.691406 4.070312 -0.78125 4 -0.90625 C 3.96875 -0.9375 3.941406 -0.976562 3.921875 -1.03125 C 3.898438 -1.09375 3.882812 -1.144531 3.875 -1.1875 C 3.863281 -1.21875 3.859375 -1.25 3.859375 -1.28125 C 3.859375 -1.320312 3.851562 -1.363281 3.84375 -1.40625 C 3.832031 -1.445312 3.828125 -1.5 3.828125 -1.5625 C 3.828125 -1.625 3.828125 -1.664062 3.828125 -1.6875 C 3.816406 -1.726562 3.804688 -1.75 3.796875 -1.75 C 3.773438 -1.75 3.753906 -1.726562 3.734375 -1.6875 C 3.710938 -1.644531 3.695312 -1.601562 3.6875 -1.5625 C 3.664062 -1.53125 3.644531 -1.492188 3.625 -1.453125 C 3.613281 -1.410156 3.597656 -1.363281 3.578125 -1.3125 C 3.523438 -1.207031 3.472656 -1.109375 3.421875 -1.015625 C 3.378906 -0.929688 3.332031 -0.835938 3.28125 -0.734375 C 3.195312 -0.578125 3.09375 -0.429688 2.96875 -0.296875 C 2.851562 -0.160156 2.703125 -0.0703125 2.515625 -0.03125 Z M 2.515625 -0.03125 "/></g></g></g><g fill="#000000" fill-opacity="1"><g transform="translate(67.504459, 34.218676)"><g><path d="M 0.921875 -0.125 C 0.804688 -0.09375 0.6875 -0.09375 0.5625 -0.125 C 0.445312 -0.15625 0.359375 -0.222656 0.296875 -0.328125 C 0.148438 -0.472656 0.0625 -0.640625 0.03125 -0.828125 C 0.0078125 -0.910156 0 -0.988281 0 -1.0625 C 0 -1.144531 0.00390625 -1.222656 0.015625 -1.296875 C 0.046875 -1.640625 0.160156 -1.953125 0.359375 -2.234375 C 0.472656 -2.410156 0.625 -2.550781 0.8125 -2.65625 C 0.882812 -2.695312 0.957031 -2.753906 1.03125 -2.828125 C 1.101562 -2.921875 1.207031 -2.984375 1.34375 -3.015625 C 1.457031 -3.035156 1.5625 -3.007812 1.65625 -2.9375 C 1.757812 -2.875 1.835938 -2.785156 1.890625 -2.671875 C 1.953125 -2.554688 1.992188 -2.445312 2.015625 -2.34375 C 2.035156 -2.257812 2.046875 -2.171875 2.046875 -2.078125 C 2.054688 -1.984375 2.0625 -1.90625 2.0625 -1.84375 C 2.0625 -1.820312 2.054688 -1.800781 2.046875 -1.78125 C 2.046875 -1.757812 2.050781 -1.738281 2.0625 -1.71875 C 2.070312 -1.664062 2.09375 -1.640625 2.125 -1.640625 C 2.164062 -1.648438 2.207031 -1.671875 2.25 -1.703125 C 2.289062 -1.742188 2.328125 -1.773438 2.359375 -1.796875 C 2.421875 -1.859375 2.472656 -1.921875 2.515625 -1.984375 C 2.566406 -2.054688 2.613281 -2.132812 2.65625 -2.21875 C 2.664062 -2.257812 2.675781 -2.289062 2.6875 -2.3125 C 2.707031 -2.332031 2.71875 -2.359375 2.71875 -2.390625 C 2.726562 -2.410156 2.738281 -2.429688 2.75 -2.453125 C 2.769531 -2.472656 2.804688 -2.488281 2.859375 -2.5 C 2.910156 -2.507812 2.960938 -2.5 3.015625 -2.46875 C 3.066406 -2.445312 3.097656 -2.410156 3.109375 -2.359375 C 3.109375 -2.304688 3.097656 -2.253906 3.078125 -2.203125 C 3.066406 -2.148438 3.050781 -2.101562 3.03125 -2.0625 C 2.988281 -1.988281 2.9375 -1.90625 2.875 -1.8125 C 2.820312 -1.726562 2.757812 -1.648438 2.6875 -1.578125 C 2.632812 -1.523438 2.578125 -1.46875 2.515625 -1.40625 C 2.460938 -1.351562 2.394531 -1.304688 2.3125 -1.265625 C 2.238281 -1.210938 2.148438 -1.171875 2.046875 -1.140625 C 1.972656 -1.117188 1.914062 -1.078125 1.875 -1.015625 C 1.851562 -0.972656 1.832031 -0.929688 1.8125 -0.890625 C 1.800781 -0.847656 1.789062 -0.8125 1.78125 -0.78125 C 1.726562 -0.71875 1.671875 -0.644531 1.609375 -0.5625 C 1.515625 -0.445312 1.40625 -0.347656 1.28125 -0.265625 C 1.164062 -0.191406 1.046875 -0.144531 0.921875 -0.125 Z M 1.5625 -1.53125 C 1.601562 -1.539062 1.628906 -1.578125 1.640625 -1.640625 C 1.648438 -1.710938 1.65625 -1.773438 1.65625 -1.828125 C 1.65625 -1.921875 1.648438 -2.023438 1.640625 -2.140625 C 1.628906 -2.160156 1.617188 -2.179688 1.609375 -2.203125 C 1.609375 -2.234375 1.609375 -2.265625 1.609375 -2.296875 C 1.585938 -2.359375 1.566406 -2.421875 1.546875 -2.484375 C 1.523438 -2.554688 1.476562 -2.585938 1.40625 -2.578125 C 1.363281 -2.566406 1.332031 -2.535156 1.3125 -2.484375 C 1.289062 -2.429688 1.273438 -2.382812 1.265625 -2.34375 C 1.253906 -2.300781 1.25 -2.238281 1.25 -2.15625 C 1.257812 -2.082031 1.269531 -2.019531 1.28125 -1.96875 C 1.289062 -1.894531 1.316406 -1.820312 1.359375 -1.75 C 1.367188 -1.71875 1.394531 -1.671875 1.4375 -1.609375 C 1.476562 -1.546875 1.519531 -1.519531 1.5625 -1.53125 Z M 0.875 -0.546875 C 0.945312 -0.566406 1.019531 -0.59375 1.09375 -0.625 C 1.144531 -0.664062 1.191406 -0.707031 1.234375 -0.75 C 1.273438 -0.800781 1.3125 -0.851562 1.34375 -0.90625 C 1.375 -0.945312 1.398438 -0.984375 1.421875 -1.015625 C 1.453125 -1.046875 1.460938 -1.078125 1.453125 -1.109375 C 1.453125 -1.128906 1.4375 -1.144531 1.40625 -1.15625 C 1.382812 -1.164062 1.367188 -1.175781 1.359375 -1.1875 C 1.285156 -1.238281 1.222656 -1.285156 1.171875 -1.328125 C 1.117188 -1.367188 1.066406 -1.421875 1.015625 -1.484375 C 0.984375 -1.535156 0.953125 -1.59375 0.921875 -1.65625 C 0.890625 -1.726562 0.863281 -1.828125 0.84375 -1.953125 C 0.84375 -1.960938 0.835938 -1.984375 0.828125 -2.015625 C 0.816406 -2.046875 0.804688 -2.0625 0.796875 -2.0625 C 0.765625 -2.039062 0.734375 -2.007812 0.703125 -1.96875 C 0.679688 -1.925781 0.671875 -1.894531 0.671875 -1.875 C 0.628906 -1.820312 0.59375 -1.757812 0.5625 -1.6875 C 0.539062 -1.613281 0.519531 -1.546875 0.5 -1.484375 C 0.476562 -1.390625 0.457031 -1.296875 0.4375 -1.203125 C 0.425781 -1.109375 0.429688 -1.007812 0.453125 -0.90625 C 0.460938 -0.863281 0.476562 -0.816406 0.5 -0.765625 C 0.519531 -0.703125 0.550781 -0.644531 0.59375 -0.59375 C 0.632812 -0.550781 0.679688 -0.53125 0.734375 -0.53125 C 0.773438 -0.53125 0.820312 -0.535156 0.875 -0.546875 Z M 0.875 -0.546875 "/></g></g></g><g fill="#000000" fill-opacity="1"><g transform="translate(70.049247, 33.706759)"><g><path d="M 1.421875 -0.3125 C 1.265625 -0.28125 1.128906 -0.304688 1.015625 -0.390625 C 0.910156 -0.472656 0.84375 -0.578125 0.8125 -0.703125 C 0.789062 -0.828125 0.796875 -0.960938 0.828125 -1.109375 C 0.867188 -1.253906 0.910156 -1.382812 0.953125 -1.5 C 0.984375 -1.550781 1.007812 -1.609375 1.03125 -1.671875 C 1.050781 -1.734375 1.070312 -1.789062 1.09375 -1.84375 C 1.101562 -1.882812 1.125 -1.925781 1.15625 -1.96875 C 1.1875 -2.019531 1.195312 -2.070312 1.1875 -2.125 C 1.175781 -2.175781 1.132812 -2.210938 1.0625 -2.234375 C 0.988281 -2.253906 0.929688 -2.273438 0.890625 -2.296875 C 0.835938 -2.304688 0.796875 -2.304688 0.765625 -2.296875 C 0.722656 -2.285156 0.695312 -2.25 0.6875 -2.1875 C 0.664062 -2.132812 0.644531 -2.082031 0.625 -2.03125 C 0.613281 -1.976562 0.601562 -1.925781 0.59375 -1.875 C 0.570312 -1.820312 0.554688 -1.769531 0.546875 -1.71875 C 0.535156 -1.664062 0.515625 -1.628906 0.484375 -1.609375 C 0.460938 -1.597656 0.4375 -1.585938 0.40625 -1.578125 C 0.351562 -1.566406 0.296875 -1.570312 0.234375 -1.59375 C 0.179688 -1.625 0.148438 -1.664062 0.140625 -1.71875 C 0.140625 -1.75 0.144531 -1.785156 0.15625 -1.828125 C 0.164062 -1.878906 0.175781 -1.925781 0.1875 -1.96875 C 0.207031 -2.03125 0.226562 -2.085938 0.25 -2.140625 C 0.269531 -2.203125 0.285156 -2.257812 0.296875 -2.3125 C 0.296875 -2.351562 0.296875 -2.382812 0.296875 -2.40625 C 0.304688 -2.4375 0.3125 -2.460938 0.3125 -2.484375 C 0.3125 -2.492188 0.3125 -2.5 0.3125 -2.5 C 0.300781 -2.53125 0.289062 -2.554688 0.28125 -2.578125 C 0.269531 -2.609375 0.257812 -2.640625 0.25 -2.671875 C 0.226562 -2.703125 0.210938 -2.738281 0.203125 -2.78125 C 0.171875 -2.957031 0.222656 -3.113281 0.359375 -3.25 C 0.410156 -3.3125 0.472656 -3.347656 0.546875 -3.359375 C 0.617188 -3.378906 0.675781 -3.363281 0.71875 -3.3125 C 0.769531 -3.269531 0.800781 -3.222656 0.8125 -3.171875 C 0.8125 -3.140625 0.8125 -3.109375 0.8125 -3.078125 C 0.820312 -3.046875 0.820312 -3.015625 0.8125 -2.984375 C 0.8125 -2.953125 0.8125 -2.921875 0.8125 -2.890625 C 0.8125 -2.859375 0.8125 -2.832031 0.8125 -2.8125 C 0.820312 -2.75 0.859375 -2.707031 0.921875 -2.6875 C 0.984375 -2.664062 1.035156 -2.648438 1.078125 -2.640625 C 1.179688 -2.597656 1.289062 -2.546875 1.40625 -2.484375 C 1.519531 -2.429688 1.59375 -2.34375 1.625 -2.21875 C 1.644531 -2.113281 1.628906 -2.003906 1.578125 -1.890625 C 1.535156 -1.785156 1.5 -1.691406 1.46875 -1.609375 C 1.414062 -1.515625 1.363281 -1.398438 1.3125 -1.265625 C 1.269531 -1.140625 1.242188 -1.023438 1.234375 -0.921875 C 1.222656 -0.890625 1.222656 -0.859375 1.234375 -0.828125 C 1.242188 -0.753906 1.289062 -0.726562 1.375 -0.75 C 1.4375 -0.757812 1.5 -0.796875 1.5625 -0.859375 C 1.632812 -0.929688 1.695312 -1.003906 1.75 -1.078125 C 1.800781 -1.160156 1.835938 -1.21875 1.859375 -1.25 C 1.929688 -1.351562 1.988281 -1.457031 2.03125 -1.5625 C 2.082031 -1.675781 2.132812 -1.796875 2.1875 -1.921875 C 2.21875 -2.046875 2.253906 -2.160156 2.296875 -2.265625 C 2.316406 -2.335938 2.359375 -2.378906 2.421875 -2.390625 C 2.453125 -2.390625 2.484375 -2.382812 2.515625 -2.375 C 2.597656 -2.34375 2.644531 -2.296875 2.65625 -2.234375 C 2.664062 -2.191406 2.664062 -2.15625 2.65625 -2.125 C 2.644531 -2.070312 2.628906 -2.015625 2.609375 -1.953125 C 2.585938 -1.898438 2.570312 -1.84375 2.5625 -1.78125 C 2.5 -1.582031 2.40625 -1.375 2.28125 -1.15625 C 2.164062 -0.9375 2.03125 -0.753906 1.875 -0.609375 C 1.8125 -0.535156 1.742188 -0.472656 1.671875 -0.421875 C 1.597656 -0.367188 1.515625 -0.332031 1.421875 -0.3125 Z M 1.421875 -0.3125 "/></g></g></g><g fill="#000000" fill-opacity="1"><g transform="translate(72.17776, 33.27858)"><g><path d="M 0.15625 -0.03125 C 0.0820312 -0.0195312 0.0234375 -0.0390625 -0.015625 -0.09375 C -0.046875 -0.125 -0.0664062 -0.160156 -0.078125 -0.203125 C -0.078125 -0.234375 -0.078125 -0.269531 -0.078125 -0.3125 C -0.078125 -0.351562 -0.0703125 -0.382812 -0.0625 -0.40625 C -0.0507812 -0.507812 -0.0351562 -0.613281 -0.015625 -0.71875 C -0.00390625 -0.820312 0.00390625 -0.929688 0.015625 -1.046875 C 0.0234375 -1.148438 0.0390625 -1.253906 0.0625 -1.359375 C 0.0820312 -1.460938 0.0976562 -1.570312 0.109375 -1.6875 C 0.117188 -1.738281 0.128906 -1.789062 0.140625 -1.84375 C 0.148438 -1.90625 0.160156 -1.960938 0.171875 -2.015625 C 0.179688 -2.054688 0.191406 -2.09375 0.203125 -2.125 C 0.210938 -2.15625 0.210938 -2.179688 0.203125 -2.203125 C 0.191406 -2.242188 0.175781 -2.273438 0.15625 -2.296875 C 0.144531 -2.328125 0.140625 -2.359375 0.140625 -2.390625 C 0.128906 -2.441406 0.148438 -2.492188 0.203125 -2.546875 C 0.222656 -2.578125 0.242188 -2.601562 0.265625 -2.625 C 0.296875 -2.65625 0.316406 -2.695312 0.328125 -2.75 C 0.359375 -2.851562 0.390625 -2.972656 0.421875 -3.109375 C 0.453125 -3.242188 0.476562 -3.367188 0.5 -3.484375 C 0.539062 -3.691406 0.597656 -3.90625 0.671875 -4.125 C 0.742188 -4.34375 0.835938 -4.546875 0.953125 -4.734375 C 0.992188 -4.828125 1.039062 -4.914062 1.09375 -5 C 1.144531 -5.09375 1.210938 -5.171875 1.296875 -5.234375 C 1.367188 -5.285156 1.445312 -5.316406 1.53125 -5.328125 C 1.65625 -5.359375 1.765625 -5.328125 1.859375 -5.234375 C 1.921875 -5.160156 1.960938 -5.070312 1.984375 -4.96875 C 1.992188 -4.914062 2 -4.863281 2 -4.8125 C 2.007812 -4.757812 2.003906 -4.703125 1.984375 -4.640625 C 1.972656 -4.523438 1.945312 -4.414062 1.90625 -4.3125 C 1.875 -4.21875 1.835938 -4.117188 1.796875 -4.015625 C 1.703125 -3.828125 1.59375 -3.644531 1.46875 -3.46875 C 1.351562 -3.300781 1.234375 -3.140625 1.109375 -2.984375 C 1.078125 -2.929688 1.039062 -2.882812 1 -2.84375 C 0.957031 -2.800781 0.921875 -2.757812 0.890625 -2.71875 C 0.847656 -2.664062 0.8125 -2.617188 0.78125 -2.578125 C 0.757812 -2.546875 0.738281 -2.507812 0.71875 -2.46875 C 0.695312 -2.425781 0.675781 -2.375 0.65625 -2.3125 C 0.644531 -2.25 0.644531 -2.203125 0.65625 -2.171875 C 0.65625 -2.148438 0.664062 -2.144531 0.6875 -2.15625 C 0.707031 -2.15625 0.726562 -2.175781 0.75 -2.21875 C 0.78125 -2.257812 0.800781 -2.285156 0.8125 -2.296875 C 0.863281 -2.378906 0.925781 -2.46875 1 -2.5625 C 1.070312 -2.65625 1.144531 -2.734375 1.21875 -2.796875 C 1.289062 -2.835938 1.359375 -2.882812 1.421875 -2.9375 C 1.492188 -3 1.570312 -3.035156 1.65625 -3.046875 C 1.800781 -3.078125 1.921875 -3.046875 2.015625 -2.953125 C 2.109375 -2.867188 2.171875 -2.769531 2.203125 -2.65625 C 2.222656 -2.539062 2.222656 -2.425781 2.203125 -2.3125 C 2.179688 -2.207031 2.140625 -2.101562 2.078125 -2 C 2.035156 -1.90625 1.976562 -1.8125 1.90625 -1.71875 C 1.84375 -1.625 1.78125 -1.550781 1.71875 -1.5 C 1.613281 -1.414062 1.519531 -1.335938 1.4375 -1.265625 C 1.375 -1.234375 1.328125 -1.207031 1.296875 -1.1875 C 1.273438 -1.164062 1.269531 -1.140625 1.28125 -1.109375 C 1.28125 -1.078125 1.304688 -1.035156 1.359375 -0.984375 C 1.410156 -0.941406 1.457031 -0.914062 1.5 -0.90625 C 1.539062 -0.875 1.582031 -0.851562 1.625 -0.84375 C 1.675781 -0.832031 1.726562 -0.832031 1.78125 -0.84375 C 1.90625 -0.875 2.007812 -0.929688 2.09375 -1.015625 C 2.175781 -1.109375 2.234375 -1.175781 2.265625 -1.21875 C 2.328125 -1.3125 2.378906 -1.398438 2.421875 -1.484375 C 2.460938 -1.578125 2.5 -1.664062 2.53125 -1.75 C 2.550781 -1.800781 2.570312 -1.851562 2.59375 -1.90625 C 2.613281 -1.957031 2.632812 -2.015625 2.65625 -2.078125 C 2.664062 -2.117188 2.675781 -2.164062 2.6875 -2.21875 C 2.707031 -2.269531 2.726562 -2.320312 2.75 -2.375 C 2.769531 -2.457031 2.820312 -2.503906 2.90625 -2.515625 C 2.925781 -2.523438 2.957031 -2.519531 3 -2.5 C 3.070312 -2.476562 3.117188 -2.429688 3.140625 -2.359375 C 3.140625 -2.316406 3.132812 -2.269531 3.125 -2.21875 C 3.125 -2.175781 3.113281 -2.132812 3.09375 -2.09375 C 3.070312 -2.050781 3.054688 -2.015625 3.046875 -1.984375 C 3.015625 -1.878906 2.976562 -1.785156 2.9375 -1.703125 C 2.90625 -1.597656 2.867188 -1.492188 2.828125 -1.390625 C 2.785156 -1.285156 2.734375 -1.1875 2.671875 -1.09375 C 2.578125 -0.9375 2.457031 -0.789062 2.3125 -0.65625 C 2.164062 -0.53125 2.003906 -0.453125 1.828125 -0.421875 C 1.703125 -0.390625 1.578125 -0.390625 1.453125 -0.421875 C 1.328125 -0.460938 1.210938 -0.519531 1.109375 -0.59375 C 1.078125 -0.625 1.039062 -0.660156 1 -0.703125 C 0.96875 -0.742188 0.929688 -0.785156 0.890625 -0.828125 C 0.859375 -0.878906 0.828125 -0.925781 0.796875 -0.96875 C 0.773438 -1.007812 0.757812 -1.054688 0.75 -1.109375 C 0.726562 -1.203125 0.757812 -1.28125 0.84375 -1.34375 C 0.882812 -1.382812 0.921875 -1.414062 0.953125 -1.4375 C 0.992188 -1.457031 1.035156 -1.488281 1.078125 -1.53125 C 1.160156 -1.59375 1.242188 -1.660156 1.328125 -1.734375 C 1.421875 -1.816406 1.5 -1.894531 1.5625 -1.96875 C 1.601562 -2.019531 1.632812 -2.066406 1.65625 -2.109375 C 1.6875 -2.160156 1.710938 -2.210938 1.734375 -2.265625 C 1.753906 -2.304688 1.769531 -2.347656 1.78125 -2.390625 C 1.800781 -2.441406 1.804688 -2.488281 1.796875 -2.53125 C 1.785156 -2.59375 1.75 -2.613281 1.6875 -2.59375 C 1.625 -2.582031 1.554688 -2.550781 1.484375 -2.5 C 1.421875 -2.445312 1.367188 -2.398438 1.328125 -2.359375 C 1.285156 -2.316406 1.242188 -2.273438 1.203125 -2.234375 C 1.171875 -2.203125 1.132812 -2.164062 1.09375 -2.125 C 1.050781 -2.070312 1.007812 -2.019531 0.96875 -1.96875 C 0.925781 -1.914062 0.882812 -1.867188 0.84375 -1.828125 C 0.789062 -1.734375 0.742188 -1.65625 0.703125 -1.59375 C 0.671875 -1.53125 0.628906 -1.441406 0.578125 -1.328125 C 0.523438 -1.242188 0.484375 -1.128906 0.453125 -0.984375 C 0.429688 -0.847656 0.410156 -0.734375 0.390625 -0.640625 C 0.378906 -0.578125 0.367188 -0.515625 0.359375 -0.453125 C 0.359375 -0.398438 0.351562 -0.34375 0.34375 -0.28125 C 0.34375 -0.238281 0.332031 -0.195312 0.3125 -0.15625 C 0.289062 -0.125 0.265625 -0.09375 0.234375 -0.0625 C 0.210938 -0.0507812 0.1875 -0.0390625 0.15625 -0.03125 Z M 0.859375 -3.171875 C 0.867188 -3.171875 0.882812 -3.179688 0.90625 -3.203125 C 0.9375 -3.234375 0.957031 -3.253906 0.96875 -3.265625 C 1.03125 -3.378906 1.097656 -3.515625 1.171875 -3.671875 C 1.242188 -3.828125 1.304688 -3.957031 1.359375 -4.0625 C 1.398438 -4.113281 1.429688 -4.171875 1.453125 -4.234375 C 1.484375 -4.304688 1.507812 -4.378906 1.53125 -4.453125 C 1.5625 -4.515625 1.585938 -4.578125 1.609375 -4.640625 C 1.609375 -4.671875 1.609375 -4.703125 1.609375 -4.734375 C 1.617188 -4.765625 1.617188 -4.789062 1.609375 -4.8125 C 1.609375 -4.851562 1.59375 -4.867188 1.5625 -4.859375 C 1.53125 -4.859375 1.5 -4.84375 1.46875 -4.8125 C 1.4375 -4.789062 1.414062 -4.769531 1.40625 -4.75 C 1.363281 -4.707031 1.328125 -4.660156 1.296875 -4.609375 C 1.273438 -4.554688 1.253906 -4.503906 1.234375 -4.453125 C 1.191406 -4.335938 1.148438 -4.226562 1.109375 -4.125 C 1.066406 -4.019531 1.023438 -3.914062 0.984375 -3.8125 C 0.984375 -3.78125 0.96875 -3.726562 0.9375 -3.65625 C 0.914062 -3.582031 0.894531 -3.507812 0.875 -3.4375 C 0.851562 -3.363281 0.84375 -3.3125 0.84375 -3.28125 C 0.84375 -3.269531 0.835938 -3.253906 0.828125 -3.234375 C 0.816406 -3.210938 0.816406 -3.191406 0.828125 -3.171875 C 0.828125 -3.160156 0.835938 -3.160156 0.859375 -3.171875 Z M 0.859375 -3.171875 "/></g></g></g><g fill="#000000" fill-opacity="1"><g transform="translate(74.769667, 32.757184)"><g><path d="M 0.171875 -0.03125 C 0.109375 -0.0195312 0.0546875 -0.03125 0.015625 -0.0625 C -0.015625 -0.101562 -0.0351562 -0.148438 -0.046875 -0.203125 C -0.046875 -0.242188 -0.046875 -0.285156 -0.046875 -0.328125 C -0.046875 -0.367188 -0.0390625 -0.410156 -0.03125 -0.453125 C -0.0078125 -0.546875 0.00390625 -0.644531 0.015625 -0.75 C 0.0234375 -0.863281 0.0390625 -0.96875 0.0625 -1.0625 C 0.0703125 -1.175781 0.0820312 -1.28125 0.09375 -1.375 C 0.101562 -1.476562 0.113281 -1.585938 0.125 -1.703125 C 0.144531 -1.816406 0.164062 -1.914062 0.1875 -2 C 0.207031 -2.09375 0.210938 -2.171875 0.203125 -2.234375 C 0.203125 -2.242188 0.191406 -2.265625 0.171875 -2.296875 C 0.160156 -2.328125 0.15625 -2.351562 0.15625 -2.375 C 0.144531 -2.414062 0.15625 -2.46875 0.1875 -2.53125 C 0.207031 -2.570312 0.234375 -2.609375 0.265625 -2.640625 C 0.296875 -2.679688 0.320312 -2.71875 0.34375 -2.75 C 0.351562 -2.789062 0.363281 -2.832031 0.375 -2.875 C 0.394531 -2.914062 0.410156 -2.960938 0.421875 -3.015625 C 0.429688 -3.066406 0.4375 -3.117188 0.4375 -3.171875 C 0.445312 -3.222656 0.457031 -3.273438 0.46875 -3.328125 C 0.539062 -3.710938 0.65625 -4.085938 0.8125 -4.453125 C 0.851562 -4.554688 0.898438 -4.660156 0.953125 -4.765625 C 1.015625 -4.878906 1.09375 -4.984375 1.1875 -5.078125 C 1.28125 -5.171875 1.382812 -5.234375 1.5 -5.265625 C 1.613281 -5.285156 1.707031 -5.257812 1.78125 -5.1875 C 1.851562 -5.113281 1.898438 -5.019531 1.921875 -4.90625 C 1.941406 -4.820312 1.945312 -4.734375 1.9375 -4.640625 C 1.9375 -4.546875 1.925781 -4.453125 1.90625 -4.359375 C 1.84375 -4.171875 1.769531 -3.992188 1.6875 -3.828125 C 1.632812 -3.734375 1.585938 -3.648438 1.546875 -3.578125 C 1.503906 -3.503906 1.457031 -3.425781 1.40625 -3.34375 C 1.300781 -3.175781 1.179688 -3.007812 1.046875 -2.84375 C 1.015625 -2.8125 0.984375 -2.78125 0.953125 -2.75 C 0.929688 -2.71875 0.90625 -2.6875 0.875 -2.65625 C 0.84375 -2.613281 0.804688 -2.570312 0.765625 -2.53125 C 0.734375 -2.488281 0.710938 -2.445312 0.703125 -2.40625 C 0.679688 -2.363281 0.664062 -2.316406 0.65625 -2.265625 C 0.644531 -2.210938 0.640625 -2.171875 0.640625 -2.140625 C 0.617188 -2.085938 0.601562 -2.023438 0.59375 -1.953125 C 0.59375 -1.890625 0.59375 -1.84375 0.59375 -1.8125 C 0.601562 -1.78125 0.617188 -1.765625 0.640625 -1.765625 C 0.660156 -1.773438 0.675781 -1.796875 0.6875 -1.828125 C 0.707031 -1.859375 0.722656 -1.890625 0.734375 -1.921875 C 0.753906 -1.960938 0.765625 -1.988281 0.765625 -2 C 0.785156 -2.0625 0.804688 -2.109375 0.828125 -2.140625 C 0.859375 -2.179688 0.890625 -2.226562 0.921875 -2.28125 C 1.003906 -2.4375 1.113281 -2.597656 1.25 -2.765625 C 1.382812 -2.929688 1.546875 -3.03125 1.734375 -3.0625 C 1.859375 -3.09375 1.972656 -3.070312 2.078125 -3 C 2.191406 -2.9375 2.257812 -2.832031 2.28125 -2.6875 C 2.300781 -2.613281 2.304688 -2.539062 2.296875 -2.46875 C 2.296875 -2.394531 2.289062 -2.328125 2.28125 -2.265625 C 2.25 -2.160156 2.222656 -2.0625 2.203125 -1.96875 C 2.179688 -1.875 2.148438 -1.78125 2.109375 -1.6875 C 2.097656 -1.65625 2.085938 -1.613281 2.078125 -1.5625 C 2.078125 -1.519531 2.066406 -1.476562 2.046875 -1.4375 C 2.046875 -1.414062 2.039062 -1.382812 2.03125 -1.34375 C 2.03125 -1.3125 2.035156 -1.28125 2.046875 -1.25 C 2.054688 -1.15625 2.101562 -1.117188 2.1875 -1.140625 C 2.25 -1.148438 2.3125 -1.1875 2.375 -1.25 C 2.445312 -1.320312 2.5 -1.378906 2.53125 -1.421875 C 2.644531 -1.585938 2.75 -1.757812 2.84375 -1.9375 C 2.875 -2.03125 2.910156 -2.128906 2.953125 -2.234375 C 2.960938 -2.273438 2.972656 -2.316406 2.984375 -2.359375 C 3.003906 -2.410156 3.023438 -2.457031 3.046875 -2.5 C 3.054688 -2.519531 3.082031 -2.535156 3.125 -2.546875 C 3.164062 -2.554688 3.21875 -2.539062 3.28125 -2.5 C 3.332031 -2.46875 3.367188 -2.425781 3.390625 -2.375 C 3.398438 -2.34375 3.398438 -2.316406 3.390625 -2.296875 C 3.367188 -2.203125 3.335938 -2.101562 3.296875 -2 C 3.265625 -1.90625 3.226562 -1.816406 3.1875 -1.734375 C 3.101562 -1.535156 3 -1.363281 2.875 -1.21875 C 2.820312 -1.125 2.757812 -1.046875 2.6875 -0.984375 C 2.613281 -0.921875 2.535156 -0.859375 2.453125 -0.796875 C 2.378906 -0.753906 2.300781 -0.722656 2.21875 -0.703125 C 2.101562 -0.679688 2 -0.703125 1.90625 -0.765625 C 1.75 -0.828125 1.65625 -0.953125 1.625 -1.140625 C 1.613281 -1.210938 1.609375 -1.304688 1.609375 -1.421875 C 1.617188 -1.546875 1.640625 -1.648438 1.671875 -1.734375 C 1.679688 -1.828125 1.703125 -1.921875 1.734375 -2.015625 C 1.765625 -2.109375 1.789062 -2.207031 1.8125 -2.3125 C 1.8125 -2.34375 1.816406 -2.375 1.828125 -2.40625 C 1.835938 -2.445312 1.835938 -2.488281 1.828125 -2.53125 C 1.816406 -2.601562 1.785156 -2.632812 1.734375 -2.625 C 1.710938 -2.625 1.6875 -2.613281 1.65625 -2.59375 C 1.625 -2.570312 1.601562 -2.554688 1.59375 -2.546875 C 1.519531 -2.472656 1.457031 -2.398438 1.40625 -2.328125 C 1.351562 -2.265625 1.300781 -2.191406 1.25 -2.109375 C 1.132812 -1.941406 1.03125 -1.769531 0.9375 -1.59375 C 0.851562 -1.414062 0.769531 -1.238281 0.6875 -1.0625 C 0.644531 -0.96875 0.597656 -0.863281 0.546875 -0.75 C 0.503906 -0.644531 0.460938 -0.554688 0.421875 -0.484375 C 0.398438 -0.429688 0.382812 -0.378906 0.375 -0.328125 C 0.363281 -0.285156 0.347656 -0.242188 0.328125 -0.203125 C 0.316406 -0.160156 0.296875 -0.125 0.265625 -0.09375 C 0.242188 -0.0625 0.210938 -0.0390625 0.171875 -0.03125 Z M 0.90625 -3.203125 C 0.914062 -3.203125 0.929688 -3.210938 0.953125 -3.234375 C 0.972656 -3.265625 0.988281 -3.296875 1 -3.328125 C 1.0625 -3.421875 1.125 -3.535156 1.1875 -3.671875 C 1.257812 -3.816406 1.316406 -3.9375 1.359375 -4.03125 C 1.390625 -4.09375 1.414062 -4.148438 1.4375 -4.203125 C 1.46875 -4.265625 1.492188 -4.328125 1.515625 -4.390625 C 1.515625 -4.421875 1.519531 -4.445312 1.53125 -4.46875 C 1.539062 -4.5 1.546875 -4.535156 1.546875 -4.578125 C 1.578125 -4.660156 1.585938 -4.726562 1.578125 -4.78125 C 1.566406 -4.8125 1.546875 -4.828125 1.515625 -4.828125 C 1.484375 -4.816406 1.457031 -4.796875 1.4375 -4.765625 C 1.414062 -4.742188 1.398438 -4.726562 1.390625 -4.71875 C 1.359375 -4.664062 1.328125 -4.613281 1.296875 -4.5625 C 1.273438 -4.507812 1.253906 -4.453125 1.234375 -4.390625 C 1.191406 -4.285156 1.144531 -4.171875 1.09375 -4.046875 C 1.050781 -3.929688 1.015625 -3.828125 0.984375 -3.734375 C 0.960938 -3.671875 0.9375 -3.59375 0.90625 -3.5 C 0.875 -3.414062 0.863281 -3.34375 0.875 -3.28125 C 0.863281 -3.257812 0.859375 -3.242188 0.859375 -3.234375 C 0.867188 -3.210938 0.882812 -3.203125 0.90625 -3.203125 Z M 0.90625 -3.203125 "/></g></g></g><g fill="#000000" fill-opacity="1"><g transform="translate(77.612911, 32.185228)"><g><path d="M 0.921875 -0.125 C 0.804688 -0.09375 0.6875 -0.09375 0.5625 -0.125 C 0.445312 -0.15625 0.359375 -0.222656 0.296875 -0.328125 C 0.148438 -0.472656 0.0625 -0.640625 0.03125 -0.828125 C 0.0078125 -0.910156 0 -0.988281 0 -1.0625 C 0 -1.144531 0.00390625 -1.222656 0.015625 -1.296875 C 0.046875 -1.640625 0.160156 -1.953125 0.359375 -2.234375 C 0.472656 -2.410156 0.625 -2.550781 0.8125 -2.65625 C 0.882812 -2.695312 0.957031 -2.753906 1.03125 -2.828125 C 1.101562 -2.921875 1.207031 -2.984375 1.34375 -3.015625 C 1.457031 -3.035156 1.5625 -3.007812 1.65625 -2.9375 C 1.757812 -2.875 1.835938 -2.785156 1.890625 -2.671875 C 1.953125 -2.554688 1.992188 -2.445312 2.015625 -2.34375 C 2.035156 -2.257812 2.046875 -2.171875 2.046875 -2.078125 C 2.054688 -1.984375 2.0625 -1.90625 2.0625 -1.84375 C 2.0625 -1.820312 2.054688 -1.800781 2.046875 -1.78125 C 2.046875 -1.757812 2.050781 -1.738281 2.0625 -1.71875 C 2.070312 -1.664062 2.09375 -1.640625 2.125 -1.640625 C 2.164062 -1.648438 2.207031 -1.671875 2.25 -1.703125 C 2.289062 -1.742188 2.328125 -1.773438 2.359375 -1.796875 C 2.421875 -1.859375 2.472656 -1.921875 2.515625 -1.984375 C 2.566406 -2.054688 2.613281 -2.132812 2.65625 -2.21875 C 2.664062 -2.257812 2.675781 -2.289062 2.6875 -2.3125 C 2.707031 -2.332031 2.71875 -2.359375 2.71875 -2.390625 C 2.726562 -2.410156 2.738281 -2.429688 2.75 -2.453125 C 2.769531 -2.472656 2.804688 -2.488281 2.859375 -2.5 C 2.910156 -2.507812 2.960938 -2.5 3.015625 -2.46875 C 3.066406 -2.445312 3.097656 -2.410156 3.109375 -2.359375 C 3.109375 -2.304688 3.097656 -2.253906 3.078125 -2.203125 C 3.066406 -2.148438 3.050781 -2.101562 3.03125 -2.0625 C 2.988281 -1.988281 2.9375 -1.90625 2.875 -1.8125 C 2.820312 -1.726562 2.757812 -1.648438 2.6875 -1.578125 C 2.632812 -1.523438 2.578125 -1.46875 2.515625 -1.40625 C 2.460938 -1.351562 2.394531 -1.304688 2.3125 -1.265625 C 2.238281 -1.210938 2.148438 -1.171875 2.046875 -1.140625 C 1.972656 -1.117188 1.914062 -1.078125 1.875 -1.015625 C 1.851562 -0.972656 1.832031 -0.929688 1.8125 -0.890625 C 1.800781 -0.847656 1.789062 -0.8125 1.78125 -0.78125 C 1.726562 -0.71875 1.671875 -0.644531 1.609375 -0.5625 C 1.515625 -0.445312 1.40625 -0.347656 1.28125 -0.265625 C 1.164062 -0.191406 1.046875 -0.144531 0.921875 -0.125 Z M 1.5625 -1.53125 C 1.601562 -1.539062 1.628906 -1.578125 1.640625 -1.640625 C 1.648438 -1.710938 1.65625 -1.773438 1.65625 -1.828125 C 1.65625 -1.921875 1.648438 -2.023438 1.640625 -2.140625 C 1.628906 -2.160156 1.617188 -2.179688 1.609375 -2.203125 C 1.609375 -2.234375 1.609375 -2.265625 1.609375 -2.296875 C 1.585938 -2.359375 1.566406 -2.421875 1.546875 -2.484375 C 1.523438 -2.554688 1.476562 -2.585938 1.40625 -2.578125 C 1.363281 -2.566406 1.332031 -2.535156 1.3125 -2.484375 C 1.289062 -2.429688 1.273438 -2.382812 1.265625 -2.34375 C 1.253906 -2.300781 1.25 -2.238281 1.25 -2.15625 C 1.257812 -2.082031 1.269531 -2.019531 1.28125 -1.96875 C 1.289062 -1.894531 1.316406 -1.820312 1.359375 -1.75 C 1.367188 -1.71875 1.394531 -1.671875 1.4375 -1.609375 C 1.476562 -1.546875 1.519531 -1.519531 1.5625 -1.53125 Z M 0.875 -0.546875 C 0.945312 -0.566406 1.019531 -0.59375 1.09375 -0.625 C 1.144531 -0.664062 1.191406 -0.707031 1.234375 -0.75 C 1.273438 -0.800781 1.3125 -0.851562 1.34375 -0.90625 C 1.375 -0.945312 1.398438 -0.984375 1.421875 -1.015625 C 1.453125 -1.046875 1.460938 -1.078125 1.453125 -1.109375 C 1.453125 -1.128906 1.4375 -1.144531 1.40625 -1.15625 C 1.382812 -1.164062 1.367188 -1.175781 1.359375 -1.1875 C 1.285156 -1.238281 1.222656 -1.285156 1.171875 -1.328125 C 1.117188 -1.367188 1.066406 -1.421875 1.015625 -1.484375 C 0.984375 -1.535156 0.953125 -1.59375 0.921875 -1.65625 C 0.890625 -1.726562 0.863281 -1.828125 0.84375 -1.953125 C 0.84375 -1.960938 0.835938 -1.984375 0.828125 -2.015625 C 0.816406 -2.046875 0.804688 -2.0625 0.796875 -2.0625 C 0.765625 -2.039062 0.734375 -2.007812 0.703125 -1.96875 C 0.679688 -1.925781 0.671875 -1.894531 0.671875 -1.875 C 0.628906 -1.820312 0.59375 -1.757812 0.5625 -1.6875 C 0.539062 -1.613281 0.519531 -1.546875 0.5 -1.484375 C 0.476562 -1.390625 0.457031 -1.296875 0.4375 -1.203125 C 0.425781 -1.109375 0.429688 -1.007812 0.453125 -0.90625 C 0.460938 -0.863281 0.476562 -0.816406 0.5 -0.765625 C 0.519531 -0.703125 0.550781 -0.644531 0.59375 -0.59375 C 0.632812 -0.550781 0.679688 -0.53125 0.734375 -0.53125 C 0.773438 -0.53125 0.820312 -0.535156 0.875 -0.546875 Z M 0.875 -0.546875 "/></g></g></g><g fill="#000000" fill-opacity="1"><g transform="translate(80.157698, 31.67331)"><g><path d="M 1.421875 -0.3125 C 1.265625 -0.28125 1.128906 -0.304688 1.015625 -0.390625 C 0.910156 -0.472656 0.84375 -0.578125 0.8125 -0.703125 C 0.789062 -0.828125 0.796875 -0.960938 0.828125 -1.109375 C 0.867188 -1.253906 0.910156 -1.382812 0.953125 -1.5 C 0.984375 -1.550781 1.007812 -1.609375 1.03125 -1.671875 C 1.050781 -1.734375 1.070312 -1.789062 1.09375 -1.84375 C 1.101562 -1.882812 1.125 -1.925781 1.15625 -1.96875 C 1.1875 -2.019531 1.195312 -2.070312 1.1875 -2.125 C 1.175781 -2.175781 1.132812 -2.210938 1.0625 -2.234375 C 0.988281 -2.253906 0.929688 -2.273438 0.890625 -2.296875 C 0.835938 -2.304688 0.796875 -2.304688 0.765625 -2.296875 C 0.722656 -2.285156 0.695312 -2.25 0.6875 -2.1875 C 0.664062 -2.132812 0.644531 -2.082031 0.625 -2.03125 C 0.613281 -1.976562 0.601562 -1.925781 0.59375 -1.875 C 0.570312 -1.820312 0.554688 -1.769531 0.546875 -1.71875 C 0.535156 -1.664062 0.515625 -1.628906 0.484375 -1.609375 C 0.460938 -1.597656 0.4375 -1.585938 0.40625 -1.578125 C 0.351562 -1.566406 0.296875 -1.570312 0.234375 -1.59375 C 0.179688 -1.625 0.148438 -1.664062 0.140625 -1.71875 C 0.140625 -1.75 0.144531 -1.785156 0.15625 -1.828125 C 0.164062 -1.878906 0.175781 -1.925781 0.1875 -1.96875 C 0.207031 -2.03125 0.226562 -2.085938 0.25 -2.140625 C 0.269531 -2.203125 0.285156 -2.257812 0.296875 -2.3125 C 0.296875 -2.351562 0.296875 -2.382812 0.296875 -2.40625 C 0.304688 -2.4375 0.3125 -2.460938 0.3125 -2.484375 C 0.3125 -2.492188 0.3125 -2.5 0.3125 -2.5 C 0.300781 -2.53125 0.289062 -2.554688 0.28125 -2.578125 C 0.269531 -2.609375 0.257812 -2.640625 0.25 -2.671875 C 0.226562 -2.703125 0.210938 -2.738281 0.203125 -2.78125 C 0.171875 -2.957031 0.222656 -3.113281 0.359375 -3.25 C 0.410156 -3.3125 0.472656 -3.347656 0.546875 -3.359375 C 0.617188 -3.378906 0.675781 -3.363281 0.71875 -3.3125 C 0.769531 -3.269531 0.800781 -3.222656 0.8125 -3.171875 C 0.8125 -3.140625 0.8125 -3.109375 0.8125 -3.078125 C 0.820312 -3.046875 0.820312 -3.015625 0.8125 -2.984375 C 0.8125 -2.953125 0.8125 -2.921875 0.8125 -2.890625 C 0.8125 -2.859375 0.8125 -2.832031 0.8125 -2.8125 C 0.820312 -2.75 0.859375 -2.707031 0.921875 -2.6875 C 0.984375 -2.664062 1.035156 -2.648438 1.078125 -2.640625 C 1.179688 -2.597656 1.289062 -2.546875 1.40625 -2.484375 C 1.519531 -2.429688 1.59375 -2.34375 1.625 -2.21875 C 1.644531 -2.113281 1.628906 -2.003906 1.578125 -1.890625 C 1.535156 -1.785156 1.5 -1.691406 1.46875 -1.609375 C 1.414062 -1.515625 1.363281 -1.398438 1.3125 -1.265625 C 1.269531 -1.140625 1.242188 -1.023438 1.234375 -0.921875 C 1.222656 -0.890625 1.222656 -0.859375 1.234375 -0.828125 C 1.242188 -0.753906 1.289062 -0.726562 1.375 -0.75 C 1.4375 -0.757812 1.5 -0.796875 1.5625 -0.859375 C 1.632812 -0.929688 1.695312 -1.003906 1.75 -1.078125 C 1.800781 -1.160156 1.835938 -1.21875 1.859375 -1.25 C 1.929688 -1.351562 1.988281 -1.457031 2.03125 -1.5625 C 2.082031 -1.675781 2.132812 -1.796875 2.1875 -1.921875 C 2.21875 -2.046875 2.253906 -2.160156 2.296875 -2.265625 C 2.316406 -2.335938 2.359375 -2.378906 2.421875 -2.390625 C 2.453125 -2.390625 2.484375 -2.382812 2.515625 -2.375 C 2.597656 -2.34375 2.644531 -2.296875 2.65625 -2.234375 C 2.664062 -2.191406 2.664062 -2.15625 2.65625 -2.125 C 2.644531 -2.070312 2.628906 -2.015625 2.609375 -1.953125 C 2.585938 -1.898438 2.570312 -1.84375 2.5625 -1.78125 C 2.5 -1.582031 2.40625 -1.375 2.28125 -1.15625 C 2.164062 -0.9375 2.03125 -0.753906 1.875 -0.609375 C 1.8125 -0.535156 1.742188 -0.472656 1.671875 -0.421875 C 1.597656 -0.367188 1.515625 -0.332031 1.421875 -0.3125 Z M 1.421875 -0.3125 "/></g></g></g><g fill="#000000" fill-opacity="1"><g transform="translate(82.286211, 31.245132)"><g><path d="M 0.921875 -0.25 C 0.796875 -0.226562 0.675781 -0.21875 0.5625 -0.21875 C 0.507812 -0.238281 0.457031 -0.253906 0.40625 -0.265625 C 0.363281 -0.273438 0.332031 -0.300781 0.3125 -0.34375 C 0.289062 -0.363281 0.273438 -0.394531 0.265625 -0.4375 C 0.253906 -0.476562 0.257812 -0.519531 0.28125 -0.5625 C 0.300781 -0.613281 0.34375 -0.644531 0.40625 -0.65625 C 0.4375 -0.65625 0.46875 -0.648438 0.5 -0.640625 C 0.53125 -0.640625 0.5625 -0.640625 0.59375 -0.640625 C 0.664062 -0.617188 0.726562 -0.613281 0.78125 -0.625 C 0.832031 -0.632812 0.875 -0.660156 0.90625 -0.703125 C 0.988281 -0.765625 1.039062 -0.84375 1.0625 -0.9375 C 1.082031 -1.039062 1.082031 -1.144531 1.0625 -1.25 C 1.039062 -1.363281 1.007812 -1.46875 0.96875 -1.5625 C 0.9375 -1.664062 0.898438 -1.769531 0.859375 -1.875 C 0.847656 -1.90625 0.835938 -1.929688 0.828125 -1.953125 C 0.816406 -1.984375 0.8125 -2.015625 0.8125 -2.046875 C 0.800781 -2.066406 0.789062 -2.09375 0.78125 -2.125 C 0.78125 -2.15625 0.769531 -2.175781 0.75 -2.1875 C 0.738281 -2.175781 0.726562 -2.171875 0.71875 -2.171875 C 0.695312 -2.171875 0.671875 -2.140625 0.640625 -2.078125 C 0.640625 -2.046875 0.632812 -2.007812 0.625 -1.96875 C 0.613281 -1.9375 0.601562 -1.90625 0.59375 -1.875 C 0.570312 -1.820312 0.554688 -1.769531 0.546875 -1.71875 C 0.535156 -1.664062 0.515625 -1.628906 0.484375 -1.609375 C 0.460938 -1.597656 0.4375 -1.585938 0.40625 -1.578125 C 0.351562 -1.566406 0.296875 -1.570312 0.234375 -1.59375 C 0.179688 -1.625 0.148438 -1.664062 0.140625 -1.71875 C 0.140625 -1.75 0.144531 -1.785156 0.15625 -1.828125 C 0.164062 -1.878906 0.175781 -1.925781 0.1875 -1.96875 C 0.207031 -2.03125 0.222656 -2.082031 0.234375 -2.125 C 0.253906 -2.164062 0.269531 -2.21875 0.28125 -2.28125 C 0.320312 -2.382812 0.351562 -2.484375 0.375 -2.578125 C 0.40625 -2.671875 0.441406 -2.769531 0.484375 -2.875 C 0.503906 -2.945312 0.535156 -3.023438 0.578125 -3.109375 C 0.617188 -3.191406 0.675781 -3.238281 0.75 -3.25 C 0.789062 -3.257812 0.828125 -3.257812 0.859375 -3.25 C 0.910156 -3.238281 0.953125 -3.210938 0.984375 -3.171875 C 1.023438 -3.140625 1.050781 -3.097656 1.0625 -3.046875 C 1.070312 -2.992188 1.070312 -2.941406 1.0625 -2.890625 C 1.050781 -2.835938 1.050781 -2.78125 1.0625 -2.71875 C 1.070312 -2.664062 1.082031 -2.609375 1.09375 -2.546875 C 1.113281 -2.492188 1.132812 -2.441406 1.15625 -2.390625 C 1.195312 -2.296875 1.238281 -2.191406 1.28125 -2.078125 C 1.320312 -1.972656 1.363281 -1.867188 1.40625 -1.765625 C 1.4375 -1.660156 1.460938 -1.5625 1.484375 -1.46875 C 1.492188 -1.414062 1.5 -1.367188 1.5 -1.328125 C 1.507812 -1.296875 1.515625 -1.253906 1.515625 -1.203125 C 1.515625 -1.179688 1.519531 -1.164062 1.53125 -1.15625 C 1.539062 -1.101562 1.5625 -1.078125 1.59375 -1.078125 C 1.613281 -1.085938 1.644531 -1.113281 1.6875 -1.15625 C 1.726562 -1.195312 1.789062 -1.269531 1.875 -1.375 C 1.945312 -1.457031 2.015625 -1.550781 2.078125 -1.65625 C 2.140625 -1.757812 2.191406 -1.867188 2.234375 -1.984375 C 2.242188 -2.015625 2.257812 -2.054688 2.28125 -2.109375 C 2.300781 -2.160156 2.320312 -2.210938 2.34375 -2.265625 C 2.351562 -2.316406 2.363281 -2.351562 2.375 -2.375 C 2.394531 -2.394531 2.421875 -2.40625 2.453125 -2.40625 C 2.503906 -2.414062 2.550781 -2.410156 2.59375 -2.390625 C 2.675781 -2.347656 2.722656 -2.296875 2.734375 -2.234375 C 2.742188 -2.191406 2.726562 -2.125 2.6875 -2.03125 C 2.644531 -1.9375 2.613281 -1.867188 2.59375 -1.828125 C 2.519531 -1.597656 2.410156 -1.390625 2.265625 -1.203125 C 2.179688 -1.097656 2.09375 -1 2 -0.90625 C 1.914062 -0.820312 1.828125 -0.738281 1.734375 -0.65625 C 1.578125 -0.53125 1.394531 -0.425781 1.1875 -0.34375 C 1.101562 -0.300781 1.015625 -0.269531 0.921875 -0.25 Z M 0.921875 -0.25 "/></g></g></g><g fill="#000000" fill-opacity="1"><g transform="translate(84.461844, 30.807475)"><g><path d="M 0.953125 -0.171875 C 0.796875 -0.140625 0.640625 -0.140625 0.484375 -0.171875 C 0.335938 -0.210938 0.210938 -0.300781 0.109375 -0.4375 C 0.0546875 -0.539062 0.0195312 -0.648438 0 -0.765625 C -0.0390625 -0.941406 -0.0390625 -1.117188 0 -1.296875 C 0.0390625 -1.472656 0.0820312 -1.632812 0.125 -1.78125 C 0.207031 -1.976562 0.304688 -2.175781 0.421875 -2.375 C 0.546875 -2.570312 0.703125 -2.734375 0.890625 -2.859375 C 0.921875 -2.890625 0.96875 -2.914062 1.03125 -2.9375 C 1.09375 -2.957031 1.148438 -2.972656 1.203125 -2.984375 C 1.335938 -3.015625 1.457031 -2.992188 1.5625 -2.921875 C 1.664062 -2.859375 1.734375 -2.765625 1.765625 -2.640625 C 1.773438 -2.546875 1.769531 -2.453125 1.75 -2.359375 C 1.726562 -2.265625 1.695312 -2.175781 1.65625 -2.09375 C 1.625 -2 1.570312 -1.90625 1.5 -1.8125 C 1.4375 -1.71875 1.363281 -1.640625 1.28125 -1.578125 C 1.226562 -1.535156 1.179688 -1.492188 1.140625 -1.453125 C 1.097656 -1.421875 1.054688 -1.390625 1.015625 -1.359375 C 0.972656 -1.328125 0.925781 -1.296875 0.875 -1.265625 C 0.820312 -1.242188 0.769531 -1.21875 0.71875 -1.1875 C 0.664062 -1.164062 0.613281 -1.140625 0.5625 -1.109375 C 0.507812 -1.085938 0.472656 -1.054688 0.453125 -1.015625 C 0.410156 -0.972656 0.398438 -0.914062 0.421875 -0.84375 C 0.441406 -0.707031 0.5 -0.625 0.59375 -0.59375 C 0.6875 -0.5625 0.785156 -0.554688 0.890625 -0.578125 C 1.015625 -0.609375 1.140625 -0.660156 1.265625 -0.734375 C 1.398438 -0.816406 1.515625 -0.910156 1.609375 -1.015625 C 1.703125 -1.085938 1.78125 -1.164062 1.84375 -1.25 C 1.90625 -1.34375 1.960938 -1.4375 2.015625 -1.53125 C 2.078125 -1.613281 2.132812 -1.707031 2.1875 -1.8125 C 2.238281 -1.925781 2.28125 -2.035156 2.3125 -2.140625 C 2.34375 -2.191406 2.363281 -2.242188 2.375 -2.296875 C 2.382812 -2.347656 2.410156 -2.390625 2.453125 -2.421875 C 2.484375 -2.441406 2.515625 -2.457031 2.546875 -2.46875 C 2.609375 -2.476562 2.664062 -2.460938 2.71875 -2.421875 C 2.738281 -2.398438 2.753906 -2.367188 2.765625 -2.328125 C 2.773438 -2.296875 2.773438 -2.265625 2.765625 -2.234375 C 2.765625 -2.210938 2.757812 -2.179688 2.75 -2.140625 C 2.726562 -2.085938 2.703125 -2.03125 2.671875 -1.96875 C 2.648438 -1.90625 2.628906 -1.847656 2.609375 -1.796875 C 2.566406 -1.691406 2.523438 -1.585938 2.484375 -1.484375 C 2.441406 -1.378906 2.382812 -1.285156 2.3125 -1.203125 C 2.1875 -1.003906 2.035156 -0.820312 1.859375 -0.65625 C 1.691406 -0.5 1.503906 -0.378906 1.296875 -0.296875 C 1.179688 -0.234375 1.066406 -0.191406 0.953125 -0.171875 Z M 0.609375 -1.578125 C 0.660156 -1.585938 0.710938 -1.613281 0.765625 -1.65625 C 0.816406 -1.695312 0.851562 -1.734375 0.875 -1.765625 C 0.925781 -1.796875 0.96875 -1.832031 1 -1.875 C 1.039062 -1.925781 1.078125 -1.972656 1.109375 -2.015625 C 1.117188 -2.023438 1.144531 -2.0625 1.1875 -2.125 C 1.238281 -2.195312 1.28125 -2.265625 1.3125 -2.328125 C 1.34375 -2.390625 1.351562 -2.445312 1.34375 -2.5 C 1.34375 -2.53125 1.332031 -2.546875 1.3125 -2.546875 C 1.289062 -2.546875 1.269531 -2.546875 1.25 -2.546875 C 1.207031 -2.535156 1.15625 -2.515625 1.09375 -2.484375 C 1.039062 -2.453125 1.003906 -2.414062 0.984375 -2.375 C 0.941406 -2.332031 0.90625 -2.289062 0.875 -2.25 C 0.84375 -2.21875 0.8125 -2.179688 0.78125 -2.140625 C 0.71875 -2.035156 0.664062 -1.929688 0.625 -1.828125 C 0.613281 -1.804688 0.597656 -1.769531 0.578125 -1.71875 C 0.554688 -1.675781 0.546875 -1.644531 0.546875 -1.625 C 0.554688 -1.59375 0.578125 -1.578125 0.609375 -1.578125 Z M 0.609375 -1.578125 "/></g></g></g><g fill="#000000" fill-opacity="1"><g transform="translate(86.675048, 30.36226)"><g/></g></g></svg>